<svg width="19" height="18" viewBox="0 0 19 18" fill="none" xmlns="http://www.w3.org/2000/svg">
<g id="Burger_Menu">
<path id="Vector" d="M17.8125 3.09609H1.1875C0.514583 3.09609 0 2.42538 0 1.54829C0 0.671203 0.514583 0.000488281 1.1875 0.000488281H17.8125C18.4854 0.000488281 19 0.671203 19 1.54829C19 2.42538 18.4854 3.09609 17.8125 3.09609Z" fill="black"/>
<path id="Vector_2" d="M17.8125 10.3192H1.1875C0.514583 10.3192 0 9.64852 0 8.77144C0 7.89435 0.514583 7.22363 1.1875 7.22363H17.8125C18.4854 7.22363 19 7.89435 19 8.77144C19 9.64852 18.4854 10.3192 17.8125 10.3192Z" fill="black"/>
<path id="Vector_3" d="M17.8125 17.5421H1.1875C0.514583 17.5421 0 16.8714 0 15.9943C0 15.1172 0.514583 14.4465 1.1875 14.4465H17.8125C18.4854 14.4465 19 15.1172 19 15.9943C19 16.8714 18.4854 17.5421 17.8125 17.5421Z" fill="black"/>
</g>
</svg>
