<svg width="134" height="134" viewBox="0 0 134 134" fill="none" xmlns="http://www.w3.org/2000/svg">
<g id="Group 1000004230">
<g id="Group 1000004302">
<g id="Rectangle 5135" filter="url(#filter0_d_1925_18798)">
<rect x="2" y="1" width="130" height="130" rx="10" fill="white"/>
</g>
<path id="Vector" d="M71.9453 64.9453H68.0547V61.0547C68.0547 60.4722 67.5825 60 67 60C66.4175 60 65.9453 60.4722 65.9453 61.0547V64.9453H62.0547C61.4722 64.9453 61 65.4175 61 66C61 66.5825 61.4722 67.0547 62.0547 67.0547H65.9453V70.9453C65.9453 71.5278 66.4175 72 67 72C67.5825 72 68.0547 71.5278 68.0547 70.9453V67.0547H71.9453C72.5278 67.0547 73 66.5825 73 66C73 65.4175 72.5278 64.9453 71.9453 64.9453Z" fill="#7E7E7E"/>
</g>
</g>
<defs>
<filter id="filter0_d_1925_18798" x="0" y="0" width="134" height="134" filterUnits="userSpaceOnUse" color-interpolation-filters="sRGB">
<feFlood flood-opacity="0" result="BackgroundImageFix"/>
<feColorMatrix in="SourceAlpha" type="matrix" values="0 0 0 0 0 0 0 0 0 0 0 0 0 0 0 0 0 0 127 0" result="hardAlpha"/>
<feOffset dy="1"/>
<feGaussianBlur stdDeviation="1"/>
<feComposite in2="hardAlpha" operator="out"/>
<feColorMatrix type="matrix" values="0 0 0 0 0 0 0 0 0 0 0 0 0 0 0 0 0 0 0.25 0"/>
<feBlend mode="normal" in2="BackgroundImageFix" result="effect1_dropShadow_1925_18798"/>
<feBlend mode="normal" in="SourceGraphic" in2="effect1_dropShadow_1925_18798" result="shape"/>
</filter>
</defs>
</svg>
