<svg width="20" height="26" viewBox="0 0 20 26" fill="none" xmlns="http://www.w3.org/2000/svg">
<g id="g1357">
<g id="g1363">
<path id="path1365" d="M2.6364 1C2.20268 1 1.7855 1.1684 1.47869 1.4688C1.17182 1.7688 1 2.1756 1 2.59998V23.9064C1 24.5104 1.49911 25 2.11682 25H2.12094C2.45231 25 2.76727 24.8712 3.00045 24.6424C4.08453 23.5832 7.28363 20.4552 8.60501 19.1656C8.97319 18.8036 9.47632 18.6 10 18.6C10.5237 18.6 11.0269 18.8036 11.395 19.1656C12.7204 20.4592 15.9359 23.6024 17.0077 24.652C17.2368 24.8748 17.5436 25 17.8668 25C18.4927 25 19 24.5044 19 23.8928V2.59998C19 2.1756 18.8282 1.7688 18.5214 1.4688C18.2145 1.1684 17.7973 1 17.3636 1H2.6364Z" stroke="black" stroke-width="2" stroke-miterlimit="10" stroke-linecap="round" stroke-linejoin="round"/>
</g>
</g>
</svg>
