<svg width="29" height="24" viewBox="0 0 29 24" fill="none" xmlns="http://www.w3.org/2000/svg">
<path id="Vector" d="M14.5 24C13.8053 24.0006 13.1251 23.8007 12.5403 23.424C10.8813 22.3527 7.69064 20.154 4.99172 17.4693C1.67961 14.172 0 11.0666 0 8.23731C0 6.2713 0.578673 4.46997 1.67364 3.02863C2.71198 1.65814 4.17874 0.678041 5.83829 0.245798C7.49785 -0.186445 9.25386 -0.0457443 10.8242 0.645296C12.2298 1.25463 13.4833 2.28196 14.5 3.6453C15.5167 2.27863 16.7702 1.2513 18.1758 0.645296C19.7461 -0.0457443 21.5022 -0.186445 23.1617 0.245798C24.8213 0.678041 26.288 1.65814 27.3264 3.02863C28.4213 4.46997 29 6.2713 29 8.23731C29 11.0666 27.3204 14.1706 24.0083 17.4667C21.3094 20.1513 18.12 22.35 16.4597 23.4213C15.8752 23.799 15.1949 23.9998 14.5 24ZM7.74174 1.67063C7.21686 1.67016 6.69423 1.73965 6.18755 1.8773C4.91582 2.22805 3.79348 2.98767 2.99224 4.03997C2.12025 5.18797 1.65904 6.63997 1.65904 8.23997C1.65904 10.608 3.17275 13.3146 6.15902 16.2853C8.74712 18.8627 11.8309 20.9853 13.4369 22.0187C13.754 22.2222 14.1224 22.3303 14.4987 22.3303C14.8749 22.3303 15.2434 22.2222 15.5605 22.0187C17.1664 20.9827 20.2476 18.86 22.8383 16.2853C25.8246 13.3146 27.3383 10.608 27.3383 8.23997C27.3383 6.63997 26.8771 5.19064 26.0051 4.03997C25.2039 2.98767 24.0815 2.22805 22.8098 1.8773C20.5422 1.25863 17.3562 1.9053 15.2127 5.57597C15.1397 5.70141 15.0352 5.80545 14.9097 5.87776C14.7842 5.95006 14.642 5.9881 14.4973 5.9881C14.3527 5.9881 14.2105 5.95006 14.085 5.87776C13.9595 5.80545 13.855 5.70141 13.782 5.57597C12.0977 2.68663 9.76444 1.67063 7.74174 1.67063Z" fill="black"/>
</svg>
