<svg width="17" height="18" viewBox="0 0 17 18" fill="none" xmlns="http://www.w3.org/2000/svg">
<g id="user (1) 1" clip-path="url(#clip0_1758_25129)">
<path id="Vector" d="M3.14577 15.5618C2.99409 15.5618 2.87158 15.4391 2.87158 15.2876V13.9656C2.87158 13.814 2.99409 13.6914 3.14577 13.6914C3.29733 13.6914 3.41997 13.814 3.41997 13.9656V15.2876C3.41997 15.4389 3.29706 15.5618 3.14577 15.5618Z" fill="#C43704"/>
<path id="Vector_2" d="M8.9181 15.9645H0.274193C0.122503 15.9645 0 15.842 0 15.6903V13.0049C0 10.5314 1.5169 8.31844 3.7743 7.4988C3.86775 7.46453 3.97165 7.48408 4.04622 7.54848C4.66891 8.08173 5.45454 8.37574 6.25877 8.37574C7.06676 8.37574 7.85479 8.08013 8.47775 7.54299C8.55286 7.47859 8.65769 7.45904 8.75061 7.49305C9.33353 7.70512 9.8767 8.01359 10.365 8.41028C10.4319 8.46424 10.4695 8.54684 10.4662 8.63293C10.4632 8.71875 10.4201 8.79854 10.3497 8.84768L10.3165 8.87097L10.1658 8.65596L10.0196 8.83616C9.61951 8.51123 9.17917 8.25203 8.7083 8.06393C8.00729 8.61981 7.14387 8.92439 6.25877 8.92439C5.37769 8.92439 4.51682 8.62195 3.81674 8.06968C1.85549 8.85143 0.548386 10.8147 0.548386 13.0049V15.4161H8.9181V15.9645Z" fill="#C43704"/>
<path id="Vector_3" d="M6.25897 8.92433C4.02861 8.92433 2.21436 7.03457 2.21436 4.71223C2.21436 2.38976 4.02861 0.5 6.25897 0.5C8.4892 0.5 10.3038 2.38949 10.3038 4.71183C10.3038 7.0343 8.4892 8.92433 6.25897 8.92433ZM6.25897 1.04839C4.33105 1.04839 2.76274 2.69194 2.76274 4.71183C2.76274 6.73213 4.33105 8.37568 6.25897 8.37568C8.18675 8.37568 9.75546 6.73213 9.75546 4.71183C9.75546 2.69194 8.18675 1.04839 6.25897 1.04839Z" fill="#C43704"/>
<g id="Group">
<path id="Vector_4" d="M12.2308 14.5929C12.1165 14.5929 12.0016 14.5826 11.8873 14.5615C11.3841 14.468 10.9446 14.1779 10.649 13.7439C10.3551 13.3109 10.2435 12.7921 10.3348 12.2837C10.4266 11.7743 10.712 11.3287 11.1385 11.0287C11.5665 10.728 12.0798 10.6147 12.5835 10.7071C13.0869 10.8007 13.5261 11.091 13.8211 11.525L13.8234 11.5281C14.1143 11.9684 14.225 12.4862 14.1357 12.9849C14.0437 13.494 13.7587 13.9396 13.332 14.2396C13.001 14.472 12.6193 14.5929 12.2308 14.5929ZM12.2405 11.2238C11.9634 11.2238 11.691 11.3104 11.454 11.4773C11.1464 11.6934 10.9407 12.0142 10.875 12.3808C10.8091 12.7471 10.8902 13.1217 11.1031 13.4357C11.3153 13.7476 11.6295 13.9558 11.9877 14.0225C12.3441 14.0882 12.7101 14.0065 13.0167 13.791C13.3244 13.5749 13.53 13.2541 13.5958 12.8878C13.6602 12.5289 13.5787 12.1537 13.3665 11.8316C13.1549 11.5205 12.8412 11.3125 12.4833 11.2463C12.4022 11.2314 12.3213 11.2238 12.2405 11.2238Z" fill="#C43704"/>
<path id="Vector_5" d="M12.2999 17.4999C12.2651 17.4999 12.2298 17.4967 12.1947 17.4903L10.5876 17.1925C10.2806 17.1355 10.0836 16.8482 10.1393 16.5384L10.2676 15.8244C10.2498 15.8126 10.2328 15.8006 10.217 15.7885L10.1964 15.775L9.60325 16.192C9.49601 16.2741 9.34633 16.3111 9.20106 16.2867C9.05098 16.2622 8.91616 16.1758 8.83061 16.0497L7.9044 14.6876C7.82354 14.5777 7.789 14.4312 7.81336 14.2837C7.83773 14.1348 7.92194 14.0001 8.04471 13.914L8.62523 13.4951C8.62055 13.4726 8.61666 13.4512 8.61318 13.4312C8.61117 13.4211 8.60957 13.4106 8.60796 13.3999L7.90708 13.27C7.76342 13.2431 7.63423 13.157 7.55309 13.0333C7.46982 12.9061 7.44318 12.7542 7.47745 12.6053L7.76865 10.9849C7.79582 10.8335 7.87776 10.7038 8 10.6191C8.12156 10.5349 8.27017 10.5039 8.41878 10.5313L9.11444 10.6605C9.12529 10.6432 9.13653 10.6268 9.14778 10.6114L9.16505 10.5834L8.75135 9.97504C8.67075 9.86565 8.63621 9.71945 8.66004 9.57191C8.68441 9.42304 8.76862 9.28821 8.89112 9.20173L10.2322 8.25905C10.3397 8.17739 10.4897 8.14124 10.6346 8.16453C10.7845 8.1889 10.9195 8.27525 11.005 8.40137L11.4166 9.00652C11.4242 9.00465 11.4318 9.00251 11.4393 9.0005C11.4483 8.99782 11.4577 8.99555 11.4672 8.99394C11.4768 8.99206 11.4867 8.99032 11.4966 8.98899L11.6252 8.27365C11.6529 8.12169 11.7348 7.99236 11.8572 7.90761C11.9783 7.82367 12.1267 7.79301 12.2756 7.82019L13.8749 8.1166C14.1821 8.1735 14.3789 8.46095 14.3232 8.77076L14.1946 9.48476C14.2127 9.49654 14.2297 9.50859 14.2456 9.52064L14.2661 9.53416L14.8592 9.11711C14.9667 9.03531 15.1167 8.99889 15.2616 9.02246C15.4115 9.04682 15.5465 9.13318 15.632 9.25943L16.551 10.621C16.631 10.7296 16.6656 10.8758 16.6418 11.0232C16.6174 11.1721 16.5332 11.307 16.4107 11.3934L15.8118 11.8141C15.8142 11.825 15.8168 11.8357 15.8194 11.8458C15.822 11.8546 15.8241 11.8633 15.8255 11.8727C15.8275 11.8834 15.8294 11.8941 15.831 11.9051L16.5316 12.035C16.8123 12.0872 17.009 12.347 16.9996 12.6523C16.9991 12.6657 16.9978 12.6791 16.9952 12.6923L16.7016 14.3262C16.6742 14.4778 16.5922 14.6075 16.4696 14.6923C16.3479 14.7761 16.1998 14.8061 16.0509 14.7794L15.3558 14.6502C15.3448 14.6675 15.3336 14.684 15.3223 14.6994L15.3051 14.7271L15.7189 15.3357C15.7998 15.4458 15.8343 15.5921 15.8099 15.7396C15.7854 15.8885 15.7014 16.0232 15.5785 16.1093L14.2379 17.0517C14.1305 17.1336 13.9811 17.1703 13.8357 17.1465C13.686 17.1219 13.5511 17.0358 13.4652 16.9099L13.0557 16.3072C13.0378 16.3108 13.0202 16.3141 13.0032 16.3174C12.9934 16.319 12.9838 16.321 12.9736 16.3223L12.8451 17.0374C12.8179 17.1888 12.736 17.3184 12.6136 17.4031C12.5207 17.4667 12.4124 17.4999 12.2999 17.4999ZM10.1985 15.1641C10.2657 15.1641 10.3326 15.1889 10.385 15.2373C10.413 15.2632 10.4451 15.2826 10.4771 15.3037L10.5399 15.3454C10.5673 15.3657 10.6079 15.3933 10.6874 15.4301C10.8007 15.4825 10.8646 15.6047 10.8423 15.7276L10.6793 16.6355L12.2947 16.951L12.4686 16.0319C12.4878 15.9249 12.5678 15.8401 12.6735 15.814C12.7298 15.8003 12.7853 15.7928 12.8388 15.7862C12.8612 15.7833 12.8831 15.7807 12.9043 15.777C12.9375 15.7708 13.0181 15.7558 13.0699 15.7352C13.19 15.6873 13.3268 15.7292 13.399 15.8354L13.9191 16.6006L15.2632 15.6599L14.7446 14.8784C14.6739 14.7742 14.6829 14.6352 14.7671 14.5414C14.7927 14.5129 14.8118 14.4799 14.8327 14.4471L14.8738 14.3835C14.8938 14.3558 14.9212 14.3138 14.9583 14.2319C15.0099 14.1167 15.1318 14.0526 15.2585 14.0744L16.1512 14.24L16.451 12.6202C16.4484 12.5922 16.4366 12.5754 16.4314 12.5744L15.5387 12.4088C15.4321 12.389 15.3471 12.3081 15.3221 12.2023C15.3084 12.1456 15.3016 12.0901 15.295 12.037C15.2928 12.0174 15.2906 11.998 15.2878 11.9797C15.2804 11.9514 15.2739 11.9218 15.2678 11.8913C15.2613 11.8601 15.2558 11.8274 15.2446 11.7981C15.1982 11.6804 15.2388 11.5467 15.3419 11.4737L16.0948 10.9446L15.1776 9.56669L14.4217 10.0951C14.3155 10.1694 14.1724 10.1598 14.0775 10.0718C14.0496 10.046 14.0175 10.0266 13.9854 10.0054L13.9226 9.96379C13.8951 9.94344 13.8543 9.91546 13.7751 9.87904C13.6617 9.82723 13.5977 9.70432 13.6199 9.58155L13.7834 8.67369L12.1757 8.35947L12.0019 9.27858C11.9828 9.38501 11.903 9.47016 11.7981 9.49627C11.7414 9.51019 11.6863 9.51769 11.6328 9.52425C11.6142 9.52666 11.5958 9.52894 11.5783 9.53161C11.55 9.53911 11.5205 9.54594 11.4906 9.55223C11.4606 9.55852 11.4294 9.56401 11.402 9.57499C11.2824 9.62466 11.1448 9.58236 11.0718 9.47538L10.5517 8.71011L9.20762 9.65064L9.72615 10.4321C9.79711 10.5365 9.78774 10.6759 9.70313 10.7696C9.67782 10.7979 9.65894 10.8303 9.63833 10.8628L9.59696 10.9271C9.57701 10.9547 9.54956 10.9967 9.51248 11.0786C9.46093 11.1938 9.33977 11.2579 9.21231 11.2361L8.31944 11.0705L8.01539 12.7156L8.90076 12.896C9.0072 12.9158 9.09195 12.9964 9.11739 13.1016C9.13104 13.1589 9.13827 13.2146 9.14483 13.2683C9.14751 13.2913 9.15032 13.3138 9.1538 13.3355C9.15956 13.3682 9.17415 13.4517 9.19531 13.5063C9.24109 13.6228 9.20187 13.7554 9.10038 13.8285L8.36309 14.3605L9.28461 15.741L10.0412 15.2135C10.0886 15.1805 10.1437 15.1641 10.1985 15.1641Z" fill="#C43704"/>
</g>
</g>
<defs>
<clipPath id="clip0_1758_25129">
<rect width="17" height="17" fill="white" transform="translate(0 0.5)"/>
</clipPath>
</defs>
</svg>
