<svg width="17" height="18" viewBox="0 0 17 18" fill="none" xmlns="http://www.w3.org/2000/svg">
<g id="list 1">
<g id="Layer 44">
<path id="Vector" d="M2.7066 1.16406C2.3005 1.16406 1.90352 1.28449 1.56586 1.5101C1.2282 1.73572 0.965026 2.0564 0.809618 2.43159C0.65421 2.80678 0.613548 3.21962 0.692774 3.61792C0.772001 4.01622 0.967557 4.38208 1.25471 4.66923C1.54187 4.95639 1.90773 5.15195 2.30603 5.23117C2.70432 5.3104 3.11717 5.26974 3.49236 5.11433C3.86755 4.95892 4.18823 4.69575 4.41384 4.35809C4.63946 4.02043 4.75988 3.62344 4.75988 3.21734C4.75918 2.673 4.54263 2.15114 4.15772 1.76623C3.7728 1.38132 3.25095 1.16477 2.7066 1.16406ZM2.7066 4.47375C2.45811 4.47375 2.2152 4.40006 2.00858 4.26201C1.80197 4.12395 1.64093 3.92773 1.54583 3.69815C1.45074 3.46857 1.42586 3.21595 1.47434 2.97223C1.52282 2.72851 1.64248 2.50464 1.81819 2.32893C1.9939 2.15322 2.21777 2.03356 2.46149 1.98508C2.70521 1.9366 2.95783 1.96148 3.18741 2.05658C3.41699 2.15167 3.61321 2.31271 3.75127 2.51932C3.88932 2.72594 3.96301 2.96885 3.96301 3.21734C3.96441 3.38323 3.93295 3.54775 3.87044 3.70141C3.80793 3.85508 3.7156 3.99484 3.59879 4.11263C3.48199 4.23043 3.34301 4.32393 3.18988 4.38773C3.03674 4.45153 2.87249 4.48438 2.7066 4.48438V4.47375Z" fill="#C43704"/>
<path id="Vector_2" d="M2.7066 6.94629C2.3005 6.94629 1.90352 7.06671 1.56586 7.29233C1.2282 7.51795 0.965026 7.83863 0.809618 8.21381C0.65421 8.589 0.613548 9.00185 0.692774 9.40015C0.772001 9.79844 0.967557 10.1643 1.25471 10.4515C1.54187 10.7386 1.90773 10.9342 2.30603 11.0134C2.70432 11.0926 3.11717 11.052 3.49236 10.8966C3.86755 10.7411 4.18823 10.478 4.41384 10.1403C4.63946 9.80265 4.75988 9.40567 4.75988 8.99957C4.75918 8.45522 4.54263 7.93337 4.15772 7.54846C3.7728 7.16354 3.25095 6.94699 2.7066 6.94629ZM2.7066 10.256C2.45811 10.256 2.2152 10.1823 2.00858 10.0442C1.80197 9.90618 1.64093 9.70995 1.54583 9.48038C1.45074 9.2508 1.42586 8.99818 1.47434 8.75446C1.52282 8.51074 1.64248 8.28687 1.81819 8.11116C1.9939 7.93545 2.21777 7.81578 2.46149 7.76731C2.70521 7.71883 2.95783 7.74371 3.18741 7.8388C3.41699 7.9339 3.61321 8.09493 3.75127 8.30155C3.88932 8.50816 3.96301 8.75108 3.96301 8.99957C3.96301 9.16456 3.93051 9.32794 3.86737 9.48038C3.80423 9.63281 3.71168 9.77132 3.59502 9.88798C3.47835 10.0047 3.33984 10.0972 3.18741 10.1603C3.03497 10.2235 2.8716 10.256 2.7066 10.256Z" fill="#C43704"/>
<path id="Vector_3" d="M2.7066 12.7188C2.3005 12.7188 1.90352 12.8392 1.56586 13.0648C1.2282 13.2904 0.965026 13.6111 0.809618 13.9863C0.65421 14.3615 0.613548 14.7743 0.692774 15.1726C0.772001 15.5709 0.967557 15.9368 1.25471 16.2239C1.54187 16.5111 1.90773 16.7066 2.30603 16.7859C2.70432 16.8651 3.11717 16.8244 3.49236 16.669C3.86755 16.5136 4.18823 16.2504 4.41384 15.9128C4.63946 15.5751 4.75988 15.1781 4.75988 14.772C4.75918 14.2277 4.54263 13.7058 4.15772 13.3209C3.7728 12.936 3.25095 12.7195 2.7066 12.7188ZM2.7066 16.0284C2.45811 16.0284 2.2152 15.9548 2.00858 15.8167C1.80197 15.6786 1.64093 15.4824 1.54583 15.2528C1.45074 15.0233 1.42586 14.7706 1.47434 14.5269C1.52282 14.2832 1.64248 14.0593 1.81819 13.8836C1.9939 13.7079 2.21777 13.5882 2.46149 13.5398C2.70521 13.4913 2.95783 13.5162 3.18741 13.6113C3.41699 13.7064 3.61321 13.8674 3.75127 14.074C3.88932 14.2806 3.96301 14.5235 3.96301 14.772C3.96441 14.9379 3.93295 15.1024 3.87044 15.2561C3.80793 15.4098 3.7156 15.5495 3.59879 15.6673C3.48199 15.7851 3.34301 15.8786 3.18988 15.9424C3.03674 16.0062 2.87249 16.0391 2.7066 16.0391V16.0284Z" fill="#C43704"/>
<path id="Vector_4" d="M7.94745 4.4423H15.1193C15.2851 4.45002 15.4507 4.42404 15.6062 4.36591C15.7616 4.30779 15.9037 4.21874 16.0237 4.10415C16.1438 3.98956 16.2394 3.85181 16.3046 3.69923C16.3699 3.54665 16.4036 3.38241 16.4036 3.21645C16.4036 3.05048 16.3699 2.88625 16.3046 2.73366C16.2394 2.58108 16.1438 2.44333 16.0237 2.32874C15.9037 2.21415 15.7616 2.1251 15.6062 2.06698C15.4507 2.00885 15.2851 1.98287 15.1193 1.99059H7.94745C7.63221 2.00526 7.33473 2.14083 7.11683 2.36911C6.89892 2.5974 6.77734 2.90086 6.77734 3.21645C6.77734 3.53203 6.89892 3.83549 7.11683 4.06378C7.33473 4.29206 7.63221 4.42763 7.94745 4.4423ZM7.94745 2.78746H15.1193C15.1785 2.7828 15.238 2.79043 15.2941 2.80988C15.3502 2.82932 15.4016 2.86016 15.4452 2.90045C15.4888 2.94074 15.5236 2.98961 15.5474 3.04399C15.5711 3.09837 15.5834 3.15709 15.5834 3.21645C15.5834 3.2758 15.5711 3.33452 15.5474 3.3889C15.5236 3.44328 15.4888 3.49215 15.4452 3.53244C15.4016 3.57273 15.3502 3.60357 15.2941 3.62301C15.238 3.64246 15.1785 3.65009 15.1193 3.64543H7.94745C7.83951 3.63693 7.73874 3.58805 7.66524 3.50853C7.59174 3.42902 7.55092 3.32472 7.55092 3.21645C7.55092 3.10817 7.59174 3.00387 7.66524 2.92436C7.73874 2.84484 7.83951 2.79596 7.94745 2.78746Z" fill="#C43704"/>
<path id="Vector_5" d="M15.1193 7.77246H7.9474C7.62193 7.77246 7.30979 7.90175 7.07965 8.1319C6.84951 8.36204 6.72021 8.67418 6.72021 8.99965C6.72021 9.32512 6.84951 9.63726 7.07965 9.8674C7.30979 10.0975 7.62193 10.2268 7.9474 10.2268H15.1193C15.4447 10.2268 15.7569 10.0975 15.987 9.8674C16.2172 9.63726 16.3465 9.32512 16.3465 8.99965C16.3465 8.67418 16.2172 8.36204 15.987 8.1319C15.7569 7.90175 15.4447 7.77246 15.1193 7.77246ZM15.1193 9.42996H7.9474C7.83328 9.42996 7.72382 9.38462 7.64313 9.30393C7.56243 9.22323 7.51709 9.11377 7.51709 8.99965C7.51709 8.88552 7.56243 8.77607 7.64313 8.69537C7.72382 8.61467 7.83328 8.56934 7.9474 8.56934H15.1193C15.2334 8.56934 15.3429 8.61467 15.4236 8.69537C15.5043 8.77607 15.5496 8.88552 15.5496 8.99965C15.5496 9.11377 15.5043 9.22323 15.4236 9.30393C15.3429 9.38462 15.2334 9.42996 15.1193 9.42996Z" fill="#C43704"/>
<path id="Vector_6" d="M15.1193 13.555H7.94745C7.63221 13.5697 7.33473 13.7053 7.11683 13.9336C6.89892 14.1619 6.77734 14.4653 6.77734 14.7809C6.77734 15.0965 6.89892 15.3999 7.11683 15.6282C7.33473 15.8565 7.63221 15.9921 7.94745 16.0068H15.1193C15.2851 16.0145 15.4507 15.9885 15.6062 15.9304C15.7616 15.8722 15.9037 15.7832 16.0237 15.6686C16.1438 15.554 16.2394 15.4163 16.3046 15.2637C16.3699 15.1111 16.4036 14.9469 16.4036 14.7809C16.4036 14.6149 16.3699 14.4507 16.3046 14.2981C16.2394 14.1455 16.1438 14.0078 16.0237 13.8932C15.9037 13.7786 15.7616 13.6896 15.6062 13.6314C15.4507 13.5733 15.2851 13.5473 15.1193 13.555ZM15.1193 15.2099H7.94745C7.83951 15.2014 7.73874 15.1525 7.66524 15.073C7.59174 14.9935 7.55092 14.8892 7.55092 14.7809C7.55092 14.6726 7.59174 14.5683 7.66524 14.4888C7.73874 14.4093 7.83951 14.3604 7.94745 14.3519H15.1193C15.1785 14.3473 15.238 14.3549 15.2941 14.3743C15.3502 14.3938 15.4016 14.4246 15.4452 14.4649C15.4888 14.5052 15.5236 14.5541 15.5474 14.6084C15.5711 14.6628 15.5834 14.7215 15.5834 14.7809C15.5834 14.8403 15.5711 14.899 15.5474 14.9533C15.5236 15.0077 15.4888 15.0566 15.4452 15.0969C15.4016 15.1372 15.3502 15.168 15.2941 15.1875C15.238 15.2069 15.1785 15.2145 15.1193 15.2099Z" fill="#C43704"/>
</g>
</g>
</svg>
