<svg width="17" height="17" viewBox="0 0 17 17" fill="none" xmlns="http://www.w3.org/2000/svg">
<g clip-path="url(#clip0_3630_20003)">
<path d="M10.4833 9.91699H10.1717C10.0544 9.91721 9.94957 9.84407 9.9093 9.73396C9.87473 9.64329 9.83762 9.55461 9.79767 9.46678C9.74801 9.35996 9.77068 9.23349 9.85433 9.15058L10.0765 8.92816C10.4062 8.59549 10.4056 8.059 10.0751 7.72711L9.27435 6.92641C8.94204 6.59604 8.40533 6.59604 8.07302 6.92641L7.85088 7.14826C7.7678 7.23159 7.64154 7.25423 7.53468 7.20493C7.44685 7.16498 7.35817 7.12786 7.26722 7.09159C7.15654 7.05161 7.08291 6.94635 7.08333 6.82866V6.51699C7.08333 6.04754 6.70278 5.66699 6.23333 5.66699H5.1C4.63055 5.66699 4.25 6.04754 4.25 6.51699V6.82866C4.25021 6.94589 4.17708 7.05076 4.06697 7.09103C3.9763 7.12559 3.88762 7.16271 3.79978 7.20266C3.69293 7.25207 3.56664 7.22943 3.48358 7.14599L3.26117 6.92386C2.92889 6.59371 2.3924 6.59371 2.06012 6.92386L1.25942 7.72711C0.92905 8.05942 0.92905 8.59613 1.25942 8.92844L1.48127 9.15058C1.56492 9.23349 1.58759 9.35996 1.53793 9.46678C1.49798 9.55461 1.46087 9.64329 1.42602 9.73424C1.38546 9.84499 1.2796 9.9182 1.16167 9.91699H0.85C0.380552 9.91699 0 10.2975 0 10.767V11.9003C0 12.3698 0.380552 12.7503 0.85 12.7503H1.16167C1.2789 12.7501 1.38376 12.8232 1.42403 12.9334C1.4586 13.024 1.49572 13.1127 1.53567 13.2005C1.58532 13.3074 1.56265 13.4338 1.479 13.5167L1.25687 13.7392C0.926713 14.0714 0.926713 14.6079 1.25687 14.9402L2.05757 15.7409C2.38988 16.0713 2.92659 16.0713 3.2589 15.7409L3.48103 15.5191C3.56412 15.4357 3.69038 15.4131 3.79723 15.4624C3.88507 15.5023 3.97375 15.5395 4.0647 15.5757C4.17594 15.6153 4.25021 15.7206 4.25 15.8387V16.1503C4.25 16.6198 4.63055 17.0003 5.1 17.0003H6.23333C6.70278 17.0003 7.08333 16.6198 7.08333 16.1503V15.8387C7.08312 15.7214 7.15626 15.6166 7.26637 15.5763C7.35703 15.5417 7.44572 15.5046 7.53355 15.4647C7.6404 15.4153 7.7667 15.4379 7.84975 15.5213L8.07217 15.7435C8.40491 16.0731 8.94126 16.0724 9.27322 15.742L10.0739 14.9413C10.4043 14.609 10.4043 14.0723 10.0739 13.74L9.85207 13.5179C9.76841 13.435 9.74575 13.3085 9.7954 13.2017C9.83535 13.1138 9.87247 13.0252 9.90873 12.9342C9.94872 12.8235 10.054 12.7499 10.1717 12.7503H10.4833C10.9528 12.7503 11.3333 12.3698 11.3333 11.9003V10.767C11.3333 10.2975 10.9528 9.91699 10.4833 9.91699ZM10.7667 11.9003C10.7667 12.0568 10.6398 12.1837 10.4833 12.1837H10.1717C9.81945 12.185 9.50424 12.4027 9.37833 12.7316C9.3483 12.811 9.31582 12.8891 9.28087 12.9659C9.1352 13.2875 9.20277 13.6656 9.45087 13.9168L9.67243 14.1387C9.78315 14.2492 9.78325 14.4287 9.67265 14.5394C9.67258 14.5394 9.67251 14.5395 9.67243 14.5396L8.87173 15.3403C8.76109 15.4509 8.58174 15.4509 8.4711 15.3403L8.24897 15.1184C7.9979 14.8701 7.61965 14.8025 7.2981 14.9484C7.22132 14.9833 7.14312 15.0159 7.06435 15.0459C6.73565 15.1718 6.51808 15.4867 6.51667 15.8387V16.1503C6.51667 16.3068 6.3898 16.4337 6.23333 16.4337H5.1C4.94353 16.4337 4.81667 16.3068 4.81667 16.1503V15.8387C4.81536 15.4864 4.59765 15.1712 4.2687 15.0453C4.18937 15.0153 4.11127 14.9828 4.03438 14.9479C3.7128 14.8023 3.33473 14.8699 3.08352 15.1179L2.86167 15.3394C2.7511 15.4501 2.57168 15.4502 2.46096 15.3396C2.46089 15.3396 2.46082 15.3395 2.46075 15.3394L1.66005 14.5396C1.54944 14.4289 1.54944 14.2496 1.66005 14.1389L1.8819 13.9168C2.12999 13.6656 2.19757 13.2875 2.0519 12.9659C2.01705 12.8892 1.98447 12.811 1.95443 12.7322C1.82885 12.4031 1.51385 12.1852 1.16167 12.1837H0.85C0.693529 12.1837 0.566667 12.0568 0.566667 11.9003V10.767C0.566667 10.6105 0.693529 10.4837 0.85 10.4837H1.16167C1.51389 10.4823 1.82909 10.2646 1.955 9.93569C1.98503 9.85636 2.01751 9.77827 2.05247 9.70138C2.19814 9.37979 2.13053 9.00168 1.88247 8.75051L1.65977 8.52866C1.54905 8.41809 1.54895 8.23867 1.65955 8.12795C1.65963 8.12788 1.6597 8.12781 1.65977 8.12774L2.46047 7.32704C2.57111 7.21644 2.75046 7.21644 2.8611 7.32704L3.08323 7.54889C3.3343 7.7972 3.71255 7.86481 4.0341 7.71889C4.11088 7.68404 4.18908 7.65146 4.26785 7.62143C4.59701 7.49594 4.81507 7.18091 4.81667 6.82866V6.51699C4.81667 6.36052 4.94353 6.23366 5.1 6.23366H6.23333C6.3898 6.23366 6.51667 6.36052 6.51667 6.51699V6.82866C6.51798 7.18088 6.73568 7.49609 7.06463 7.62199C7.14397 7.65203 7.22206 7.6845 7.29895 7.71946C7.6205 7.86538 7.99875 7.79777 8.24982 7.54946L8.47167 7.32789C8.58273 7.21803 8.76152 7.21803 8.87258 7.32789L9.67328 8.12859C9.78389 8.23923 9.78389 8.41858 9.67328 8.52923L9.45143 8.75136C9.20338 9.00253 9.13577 9.38064 9.28143 9.70223C9.31628 9.77901 9.34887 9.85721 9.3789 9.93598C9.50477 10.2647 9.8197 10.4822 10.1717 10.4837H10.4833C10.6398 10.4837 10.7667 10.6105 10.7667 10.767V11.9003Z" fill="#C43704"/>
<path d="M8.21104 11.2199C8.2082 11.1519 8.20339 11.0842 8.19517 11.0167C8.1861 10.9442 8.17534 10.8722 8.16032 10.8017C8.1504 10.7555 8.13737 10.7099 8.1249 10.664C8.10904 10.6056 8.09119 10.5481 8.07135 10.4914C8.05747 10.452 8.04302 10.4129 8.02829 10.3741C7.99181 10.2834 7.95009 10.1948 7.90334 10.1089C7.89965 10.1024 7.89739 10.0953 7.8937 10.0888C7.82 9.95762 7.73465 9.83327 7.6387 9.71735C7.63049 9.70715 7.62114 9.69752 7.61264 9.6876C7.57354 9.64142 7.5333 9.59665 7.49109 9.55387C7.46899 9.53092 7.44575 9.50939 7.42252 9.48729C7.39419 9.46094 7.36585 9.43487 7.33752 9.40994C7.30313 9.38008 7.2681 9.35118 7.2324 9.32324L7.18594 9.28867C6.74751 8.96029 6.21446 8.78292 5.6667 8.7832C5.63837 8.7832 5.61004 8.78745 5.5817 8.78859C5.52135 8.79029 5.46072 8.79369 5.3998 8.79992C5.36779 8.80332 5.33549 8.807 5.30347 8.81154C5.2111 8.82368 5.11945 8.84083 5.02892 8.86282C3.66464 9.21536 2.84446 10.6072 3.19699 11.9714C3.42933 12.8705 4.13171 13.5723 5.0309 13.8039C5.03544 13.8039 5.04025 13.8053 5.04507 13.8064C5.14293 13.8308 5.24206 13.8498 5.342 13.8631C5.40802 13.8713 5.47404 13.873 5.54034 13.8761C5.58454 13.8784 5.62534 13.8849 5.67152 13.8849C5.75227 13.8849 5.83614 13.8795 5.9217 13.871C5.93077 13.871 5.93984 13.8685 5.95004 13.8673C6.01889 13.8597 6.08859 13.8495 6.1597 13.8353C6.18804 13.8299 6.21439 13.8229 6.24159 13.8166C6.29145 13.805 6.34104 13.7928 6.39204 13.7778C6.4317 13.7659 6.47024 13.752 6.50905 13.7384C6.54787 13.7248 6.5881 13.7101 6.62834 13.6948C6.66857 13.6795 6.70229 13.6619 6.73884 13.6449C6.78644 13.6231 6.83375 13.6016 6.8805 13.5761H6.8822C7.14663 13.4345 7.39086 13.2581 7.60839 13.0516C7.66714 12.9968 7.71825 12.9342 7.76025 12.8658C7.9814 12.5112 8.12668 12.1147 8.18695 11.7013C8.19489 11.6466 8.20197 11.5919 8.20622 11.5361C8.21019 11.4848 8.21302 11.4338 8.21415 11.3828C8.21415 11.3666 8.21642 11.3513 8.21642 11.3352C8.2167 11.2952 8.21274 11.2584 8.21104 11.2199ZM7.64635 11.4055C7.64635 11.429 7.64437 11.4525 7.64295 11.4757C7.63785 11.5443 7.62907 11.6129 7.61745 11.6817C7.51156 12.2708 7.14581 12.7808 6.62182 13.07C6.58669 13.0885 6.55212 13.1057 6.51755 13.1216L6.49404 13.1329C6.32942 13.2077 6.15567 13.2603 5.97724 13.2893C5.96477 13.2913 5.95202 13.2936 5.93927 13.2953C5.90385 13.3004 5.869 13.3046 5.83444 13.3078C5.78882 13.3117 5.74292 13.314 5.69617 13.3148C5.67634 13.3148 5.65679 13.3148 5.63695 13.3148C5.56991 13.3141 5.50297 13.3099 5.43635 13.3024L5.40235 13.2984C5.32444 13.2882 5.24716 13.2736 5.17087 13.2548C4.10972 12.9832 3.46967 11.9027 3.74124 10.8416C3.9207 10.1404 4.46789 9.59265 5.16889 9.41249V9.4122C5.33166 9.37116 5.49883 9.35019 5.6667 9.34987C5.7477 9.35033 5.82863 9.35582 5.90895 9.3663C5.93049 9.36885 5.95174 9.37282 5.97299 9.37594C6.03419 9.38557 6.09482 9.39775 6.1546 9.41305C6.17415 9.41815 6.1937 9.42269 6.21297 9.42807C6.36363 9.47156 6.50866 9.53262 6.64505 9.60997C6.66687 9.62272 6.68812 9.63604 6.70965 9.64935C6.75442 9.67769 6.79777 9.70602 6.84055 9.73832C6.8635 9.75504 6.88674 9.77147 6.90884 9.78932C6.96444 9.83373 7.01767 9.88101 7.06835 9.93099C7.08847 9.95139 7.10689 9.97377 7.12644 9.99502C7.15902 10.0304 7.19075 10.0667 7.22107 10.105C7.24204 10.1313 7.26215 10.1585 7.28199 10.186C7.31032 10.2268 7.33865 10.2693 7.36415 10.3124C7.37832 10.3359 7.39249 10.3588 7.40694 10.3829C7.44349 10.4502 7.47604 10.5195 7.5044 10.5906C7.51574 10.6189 7.52537 10.6473 7.53557 10.6756C7.55399 10.7277 7.56985 10.7804 7.58374 10.8337C7.59082 10.862 7.59875 10.8872 7.6047 10.9147C7.62124 10.9913 7.63325 11.0688 7.64069 11.1468C7.64239 11.1675 7.64239 11.1884 7.6438 11.2091C7.64777 11.2743 7.6489 11.3397 7.64635 11.4055Z" fill="#C43704"/>
<path d="M16.1498 5.95H15.2587C15.1399 5.9512 15.0336 5.87637 14.9947 5.76413C14.9068 5.50095 14.8005 5.24425 14.6765 4.99602C14.6239 4.88881 14.6458 4.75993 14.7309 4.67613L15.3627 4.04345C15.6944 3.71156 15.6944 3.17372 15.3627 2.84183L14.158 1.63908C13.8261 1.30744 13.2883 1.30744 12.9564 1.63908L12.3248 2.27035C12.2411 2.35542 12.1124 2.37745 12.0052 2.32503C11.757 2.2004 11.5002 2.09351 11.2368 2.00515C11.1241 1.96658 11.0488 1.86019 11.0498 1.74108V0.85C11.0498 0.380552 10.6693 0 10.1998 0H8.49983C8.03038 0 7.64983 0.380552 7.64983 0.85V1.74108C7.65103 1.85991 7.57623 1.96619 7.46396 2.00515C7.20075 2.09348 6.94405 2.2003 6.69585 2.32475C6.58864 2.37756 6.45969 2.35563 6.37596 2.27035L5.74328 1.63852C5.411 1.30783 4.87394 1.30783 4.54166 1.63852L3.3392 2.84098C3.00738 3.17291 3.00738 3.71096 3.3392 4.04288L4.26825 4.97363C4.38062 5.0825 4.56001 5.07967 4.66888 4.96726C4.77509 4.85761 4.77534 4.6835 4.66945 4.57357L3.73983 3.6431C3.62922 3.53246 3.62922 3.35311 3.73983 3.24247L4.9423 2.04C5.05294 1.92939 5.23229 1.92939 5.34293 2.04L5.9759 2.67183C6.23199 2.92945 6.62441 2.99384 6.94943 2.83163C7.17386 2.71926 7.40591 2.62278 7.64388 2.54292C7.98735 2.42664 8.21798 2.10371 8.2165 1.74108V0.85C8.2165 0.693529 8.34336 0.566667 8.49983 0.566667H10.1998C10.3563 0.566667 10.4832 0.693529 10.4832 0.85V1.74108C10.4817 2.10364 10.7123 2.42647 11.0558 2.54263C11.2939 2.62253 11.526 2.71908 11.7505 2.83163C12.0756 2.99299 12.4675 2.92853 12.7238 2.67155L13.3567 2.04C13.4674 1.92939 13.6467 1.92939 13.7574 2.04L14.9598 3.24275C15.0703 3.35336 15.0703 3.53249 14.9598 3.6431L14.328 4.27607C14.0706 4.53231 14.0063 4.92455 14.1682 5.2496C14.2806 5.47403 14.377 5.70608 14.4569 5.94405C14.5731 6.28759 14.8961 6.51822 15.2587 6.51667H16.1498C16.3063 6.51667 16.4332 6.64353 16.4332 6.8V8.5C16.4332 8.65647 16.3063 8.78333 16.1498 8.78333H15.2587C14.8962 8.78188 14.5734 9.01251 14.4572 9.35595C14.3773 9.59402 14.2807 9.82618 14.1682 10.0507C14.0066 10.3757 14.071 10.7678 14.3283 11.0239L14.9601 11.6569C15.0707 11.7675 15.0707 11.9469 14.9601 12.0575L13.7571 13.26C13.6465 13.3704 13.4673 13.3704 13.3567 13.26L12.4257 12.3309C12.3168 12.2185 12.1374 12.2157 12.0251 12.3246C11.9127 12.4334 11.9098 12.6128 12.0187 12.7252C12.021 12.7275 12.0233 12.7299 12.0256 12.7321L12.9564 13.6612C13.2883 13.9928 13.8261 13.9928 14.158 13.6612L15.3605 12.459C15.6923 12.1271 15.6923 11.589 15.3605 11.2571L14.7295 10.625C14.6445 10.5413 14.6225 10.4126 14.6748 10.3054C14.7994 10.0571 14.9063 9.80036 14.9947 9.537C15.0332 9.4243 15.1396 9.34894 15.2587 9.35H16.1498C16.6193 9.35 16.9998 8.96945 16.9998 8.5V6.8C16.9998 6.33055 16.6193 5.95 16.1498 5.95Z" fill="#C43704"/>
<path d="M11.9543 5.04594C10.5151 3.60969 8.1848 3.60969 6.74554 5.04594C6.63684 5.15849 6.63996 5.33788 6.75252 5.44657C6.86231 5.55261 7.03638 5.55261 7.14617 5.44657C8.35512 4.2213 10.3284 4.20809 11.5537 5.41703C12.779 6.62598 12.7922 8.59929 11.5832 9.82457C11.5735 9.83449 11.5636 9.84433 11.5537 9.85411C11.4412 9.96284 11.438 10.1422 11.5468 10.2547C11.6555 10.3673 11.8348 10.3704 11.9474 10.2617C11.9497 10.2594 11.9521 10.2571 11.9543 10.2547C13.3906 8.81548 13.3906 6.4852 11.9543 5.04594Z" fill="#C43704"/>
</g>
<defs>
<clipPath id="clip0_3630_20003">
<rect width="17" height="17" fill="white"/>
</clipPath>
</defs>
</svg>
