<svg width="17" height="18" viewBox="0 0 17 18" fill="none" xmlns="http://www.w3.org/2000/svg">
<g id="login- 1">
<g id="g9983">
<path id="path11103" d="M8.49984 1.91699C4.59202 1.91699 1.4165 5.09251 1.4165 9.00033C1.4165 12.9081 4.59202 16.0837 8.49984 16.0837C12.4077 16.0837 15.5832 12.9081 15.5832 9.00033C15.5832 5.09251 12.4077 1.91699 8.49984 1.91699ZM8.49984 2.62533C12.0248 2.62533 14.8748 5.47532 14.8748 9.00033C14.8748 12.5253 12.0248 15.3753 8.49984 15.3753C4.97483 15.3753 2.12484 12.5253 2.12484 9.00033C2.12484 5.47532 4.97483 2.62533 8.49984 2.62533Z" fill="#C43704"/>
<path id="path11109" d="M8.49868 8.29199C6.65445 8.2966 4.96429 9.32601 4.11311 10.9621C4.08691 11.0125 4.07324 11.0685 4.07324 11.1253C4.07324 11.1822 4.08691 11.2381 4.11311 11.2886C4.96429 12.9246 6.65445 13.954 8.49868 13.9587C8.49961 13.9587 8.50053 13.9587 8.50145 13.9587C10.3504 13.9539 12.0436 12.9201 12.8926 11.2775C12.919 11.2269 12.9328 11.1707 12.9328 11.1136C12.9328 11.0565 12.919 11.0002 12.8926 10.9496C12.0372 9.31628 10.3438 8.29208 8.50007 8.29199C8.4996 8.29199 8.49916 8.29199 8.49868 8.29199ZM8.50007 9.00033H8.50148C10.005 9.00089 11.348 9.83334 12.1109 11.1156C11.3528 12.405 10.0086 13.2455 8.50145 13.2503C6.99668 13.2466 5.65321 12.4109 4.89338 11.1253C5.65297 9.84015 6.99583 9.00458 8.50007 9.00033Z" fill="#C43704"/>
<path id="path11105" d="M8.49984 4.04199C7.52603 4.04199 6.729 4.83902 6.729 5.81283C6.729 6.78663 7.52603 7.58366 8.49984 7.58366C9.47365 7.58366 10.2707 6.78663 10.2707 5.81283C10.2707 4.83902 9.47365 4.04199 8.49984 4.04199ZM8.49984 4.75033C9.09083 4.75033 9.56234 5.22183 9.56234 5.81283C9.56234 6.40382 9.09083 6.87533 8.49984 6.87533C7.90884 6.87533 7.43734 6.40382 7.43734 5.81283C7.43734 5.22183 7.90884 4.75033 8.49984 4.75033Z" fill="#C43704"/>
</g>
</g>
</svg>
