<svg width="17" height="18" viewBox="0 0 17 18" fill="none" xmlns="http://www.w3.org/2000/svg">
<g id="list 1">
<g id="Layer 44">
<path id="Vector" d="M2.7066 1.16406C2.3005 1.16406 1.90352 1.28449 1.56586 1.5101C1.2282 1.73572 0.965026 2.0564 0.809618 2.43159C0.65421 2.80678 0.613548 3.21962 0.692774 3.61792C0.772001 4.01622 0.967557 4.38208 1.25471 4.66923C1.54187 4.95639 1.90773 5.15195 2.30603 5.23117C2.70432 5.3104 3.11717 5.26974 3.49236 5.11433C3.86755 4.95892 4.18823 4.69575 4.41384 4.35809C4.63946 4.02043 4.75988 3.62344 4.75988 3.21734C4.75918 2.673 4.54263 2.15114 4.15772 1.76623C3.7728 1.38132 3.25095 1.16477 2.7066 1.16406ZM2.7066 4.47375C2.45811 4.47375 2.2152 4.40006 2.00858 4.26201C1.80197 4.12395 1.64093 3.92773 1.54583 3.69815C1.45074 3.46857 1.42586 3.21595 1.47434 2.97223C1.52282 2.72851 1.64248 2.50464 1.81819 2.32893C1.9939 2.15322 2.21777 2.03356 2.46149 1.98508C2.70521 1.9366 2.95783 1.96148 3.18741 2.05658C3.41699 2.15167 3.61321 2.31271 3.75127 2.51932C3.88932 2.72594 3.96301 2.96885 3.96301 3.21734C3.96441 3.38323 3.93295 3.54775 3.87044 3.70141C3.80793 3.85508 3.7156 3.99484 3.59879 4.11263C3.48199 4.23043 3.34301 4.32393 3.18988 4.38773C3.03674 4.45153 2.87249 4.48438 2.7066 4.48438V4.47375Z" fill="black"/>
<path id="Vector_2" d="M2.7066 6.94678C2.3005 6.94678 1.90352 7.0672 1.56586 7.29282C1.2282 7.51844 0.965026 7.83911 0.809618 8.2143C0.65421 8.58949 0.613548 9.00234 0.692774 9.40063C0.772001 9.79893 0.967557 10.1648 1.25471 10.4519C1.54187 10.7391 1.90773 10.9347 2.30603 11.0139C2.70432 11.0931 3.11717 11.0525 3.49236 10.897C3.86755 10.7416 4.18823 10.4785 4.41384 10.1408C4.63946 9.80314 4.75988 9.40616 4.75988 9.00006C4.75918 8.45571 4.54263 7.93386 4.15772 7.54895C3.7728 7.16403 3.25095 6.94748 2.7066 6.94678ZM2.7066 10.2565C2.45811 10.2565 2.2152 10.1828 2.00858 10.0447C1.80197 9.90667 1.64093 9.71044 1.54583 9.48086C1.45074 9.25129 1.42586 8.99866 1.47434 8.75495C1.52282 8.51123 1.64248 8.28736 1.81819 8.11164C1.9939 7.93593 2.21777 7.81627 2.46149 7.76779C2.70521 7.71932 2.95783 7.7442 3.18741 7.83929C3.41699 7.93439 3.61321 8.09542 3.75127 8.30204C3.88932 8.50865 3.96301 8.75156 3.96301 9.00006C3.96301 9.16505 3.93051 9.32843 3.86737 9.48086C3.80423 9.6333 3.71168 9.7718 3.59502 9.88847C3.47835 10.0051 3.33984 10.0977 3.18741 10.1608C3.03497 10.224 2.8716 10.2565 2.7066 10.2565Z" fill="black"/>
<path id="Vector_3" d="M2.7066 12.7188C2.3005 12.7188 1.90352 12.8392 1.56586 13.0648C1.2282 13.2904 0.965026 13.6111 0.809618 13.9863C0.65421 14.3615 0.613548 14.7743 0.692774 15.1726C0.772001 15.5709 0.967557 15.9368 1.25471 16.2239C1.54187 16.5111 1.90773 16.7066 2.30603 16.7859C2.70432 16.8651 3.11717 16.8244 3.49236 16.669C3.86755 16.5136 4.18823 16.2504 4.41384 15.9128C4.63946 15.5751 4.75988 15.1781 4.75988 14.772C4.75918 14.2277 4.54263 13.7058 4.15772 13.3209C3.7728 12.936 3.25095 12.7195 2.7066 12.7188ZM2.7066 16.0284C2.45811 16.0284 2.2152 15.9548 2.00858 15.8167C1.80197 15.6786 1.64093 15.4824 1.54583 15.2528C1.45074 15.0233 1.42586 14.7706 1.47434 14.5269C1.52282 14.2832 1.64248 14.0593 1.81819 13.8836C1.9939 13.7079 2.21777 13.5882 2.46149 13.5398C2.70521 13.4913 2.95783 13.5162 3.18741 13.6113C3.41699 13.7064 3.61321 13.8674 3.75127 14.074C3.88932 14.2806 3.96301 14.5235 3.96301 14.772C3.96441 14.9379 3.93295 15.1024 3.87044 15.2561C3.80793 15.4098 3.7156 15.5495 3.59879 15.6673C3.48199 15.7851 3.34301 15.8786 3.18988 15.9424C3.03674 16.0062 2.87249 16.0391 2.7066 16.0391V16.0284Z" fill="black"/>
<path id="Vector_4" d="M7.94745 4.44182H15.1193C15.2851 4.44954 15.4507 4.42355 15.6062 4.36543C15.7616 4.3073 15.9037 4.21825 16.0237 4.10366C16.1438 3.98907 16.2394 3.85132 16.3046 3.69874C16.3699 3.54616 16.4036 3.38192 16.4036 3.21596C16.4036 3.04999 16.3699 2.88576 16.3046 2.73318C16.2394 2.5806 16.1438 2.44284 16.0237 2.32825C15.9037 2.21366 15.7616 2.12461 15.6062 2.06649C15.4507 2.00837 15.2851 1.98238 15.1193 1.9901H7.94745C7.63221 2.00478 7.33473 2.14034 7.11683 2.36863C6.89892 2.59691 6.77734 2.90037 6.77734 3.21596C6.77734 3.53155 6.89892 3.835 7.11683 4.06329C7.33473 4.29157 7.63221 4.42714 7.94745 4.44182ZM7.94745 2.78697H15.1193C15.1785 2.78231 15.238 2.78995 15.2941 2.80939C15.3502 2.82884 15.4016 2.85967 15.4452 2.89996C15.4888 2.94025 15.5236 2.98912 15.5474 3.04351C15.5711 3.09789 15.5834 3.1566 15.5834 3.21596C15.5834 3.27531 15.5711 3.33403 15.5474 3.38841C15.5236 3.44279 15.4888 3.49166 15.4452 3.53195C15.4016 3.57224 15.3502 3.60308 15.2941 3.62252C15.238 3.64197 15.1785 3.6496 15.1193 3.64494H7.94745C7.83951 3.63644 7.73874 3.58756 7.66524 3.50805C7.59174 3.42853 7.55092 3.32424 7.55092 3.21596C7.55092 3.10768 7.59174 3.00338 7.66524 2.92387C7.73874 2.84436 7.83951 2.79547 7.94745 2.78697Z" fill="black"/>
<path id="Vector_5" d="M15.1193 7.77271H7.9474C7.62193 7.77271 7.30979 7.902 7.07965 8.13214C6.84951 8.36228 6.72021 8.67442 6.72021 8.99989C6.72021 9.32536 6.84951 9.6375 7.07965 9.86765C7.30979 10.0978 7.62193 10.2271 7.9474 10.2271H15.1193C15.4447 10.2271 15.7569 10.0978 15.987 9.86765C16.2172 9.6375 16.3465 9.32536 16.3465 8.99989C16.3465 8.67442 16.2172 8.36228 15.987 8.13214C15.7569 7.902 15.4447 7.77271 15.1193 7.77271ZM15.1193 9.43021H7.9474C7.83328 9.43021 7.72382 9.38487 7.64313 9.30417C7.56243 9.22347 7.51709 9.11402 7.51709 8.99989C7.51709 8.88577 7.56243 8.77632 7.64313 8.69562C7.72382 8.61492 7.83328 8.56958 7.9474 8.56958H15.1193C15.2334 8.56958 15.3429 8.61492 15.4236 8.69562C15.5043 8.77632 15.5496 8.88577 15.5496 8.99989C15.5496 9.11402 15.5043 9.22347 15.4236 9.30417C15.3429 9.38487 15.2334 9.43021 15.1193 9.43021Z" fill="black"/>
<path id="Vector_6" d="M15.1193 13.5555H7.94745C7.63221 13.5702 7.33473 13.7058 7.11683 13.9341C6.89892 14.1623 6.77734 14.4658 6.77734 14.7814C6.77734 15.097 6.89892 15.4004 7.11683 15.6287C7.33473 15.857 7.63221 15.9926 7.94745 16.0072H15.1193C15.2851 16.015 15.4507 15.989 15.6062 15.9309C15.7616 15.8727 15.9037 15.7837 16.0237 15.6691C16.1438 15.5545 16.2394 15.4167 16.3046 15.2642C16.3699 15.1116 16.4036 14.9473 16.4036 14.7814C16.4036 14.6154 16.3699 14.4512 16.3046 14.2986C16.2394 14.146 16.1438 14.0083 16.0237 13.8937C15.9037 13.7791 15.7616 13.69 15.6062 13.6319C15.4507 13.5738 15.2851 13.5478 15.1193 13.5555ZM15.1193 15.2104H7.94745C7.83951 15.2019 7.73874 15.153 7.66524 15.0735C7.59174 14.994 7.55092 14.8897 7.55092 14.7814C7.55092 14.6731 7.59174 14.5688 7.66524 14.4893C7.73874 14.4098 7.83951 14.3609 7.94745 14.3524H15.1193C15.1785 14.3477 15.238 14.3554 15.2941 14.3748C15.3502 14.3943 15.4016 14.4251 15.4452 14.4654C15.4888 14.5057 15.5236 14.5546 15.5474 14.6089C15.5711 14.6633 15.5834 14.722 15.5834 14.7814C15.5834 14.8407 15.5711 14.8995 15.5474 14.9538C15.5236 15.0082 15.4888 15.0571 15.4452 15.0974C15.4016 15.1377 15.3502 15.1685 15.2941 15.188C15.238 15.2074 15.1785 15.215 15.1193 15.2104Z" fill="black"/>
</g>
</g>
</svg>
