<svg width="17" height="18" viewBox="0 0 17 18" fill="none" xmlns="http://www.w3.org/2000/svg">
<g id="discuss (1) 1">
<g id="consumer discuss">
<path id="Vector" d="M15.6719 15.9062H14.8272C14.6253 14.9287 14.5058 13.7813 13.1803 13.1889C13.8816 12.655 13.8125 11.9777 13.8125 11.3906C13.8125 10.9679 13.6446 10.5626 13.3457 10.2637C13.0468 9.96479 12.6414 9.79688 12.2188 9.79688C11.7961 9.79688 11.3907 9.96479 11.0918 10.2637C10.7929 10.5626 10.625 10.9679 10.625 11.3906C10.625 12.0228 10.5612 12.6577 11.2545 13.1889C10.7525 13.4094 11.1695 13.428 10.5267 12.9047C10.2418 12.6755 9.92034 12.4959 9.57578 12.3734C10.4205 11.7705 10.3727 10.963 10.3727 10.3281C10.3727 9.83499 10.1768 9.36205 9.82806 9.01335C9.47936 8.66465 9.00642 8.46875 8.51328 8.46875C8.02014 8.46875 7.5472 8.66465 7.1985 9.01335C6.8498 9.36205 6.65391 9.83499 6.65391 10.3281C6.65391 10.9178 6.56359 11.7519 7.45078 12.3761C6.90862 12.5679 6.42792 12.9019 6.05891 13.343C5.96643 13.2844 5.86964 13.2329 5.76937 13.1889C6.44672 12.6523 6.375 11.975 6.375 11.3906C6.375 10.9679 6.20709 10.5626 5.9082 10.2637C5.60932 9.96479 5.20394 9.79688 4.78125 9.79688C4.35856 9.79688 3.95318 9.96479 3.6543 10.2637C3.35541 10.5626 3.1875 10.9679 3.1875 11.3906C3.1875 12.0228 3.12375 12.6603 3.81969 13.1916C2.48891 13.7812 2.36672 14.9659 2.17281 15.9062H1.32812C1.25768 15.9062 1.19011 15.9342 1.1403 15.984C1.09049 16.0339 1.0625 16.1014 1.0625 16.1719C1.0625 16.2423 1.09049 16.3099 1.1403 16.3597C1.19011 16.4095 1.25768 16.4375 1.32812 16.4375H15.6719C15.7423 16.4375 15.8099 16.4095 15.8597 16.3597C15.9095 16.3099 15.9375 16.2423 15.9375 16.1719C15.9375 16.1014 15.9095 16.0339 15.8597 15.984C15.8099 15.9342 15.7423 15.9062 15.6719 15.9062ZM11.1562 11.9219V11.3906C11.1562 11.1088 11.2682 10.8386 11.4674 10.6393C11.6667 10.4401 11.937 10.3281 12.2188 10.3281C12.5005 10.3281 12.7708 10.4401 12.9701 10.6393C13.1693 10.8386 13.2812 11.1088 13.2812 11.3906V11.9219C13.2812 12.2037 13.1693 12.4739 12.9701 12.6732C12.7708 12.8724 12.5005 12.9844 12.2188 12.9844C11.937 12.9844 11.6667 12.8724 11.4674 12.6732C11.2682 12.4739 11.1562 12.2037 11.1562 11.9219ZM7.17188 10.8594V10.3281C7.17188 9.97588 7.3118 9.63807 7.56087 9.389C7.80995 9.13993 8.14776 9 8.5 9C8.85224 9 9.19005 9.13993 9.43913 9.389C9.6882 9.63807 9.82812 9.97588 9.82812 10.3281V10.8594C9.82812 11.2116 9.6882 11.5494 9.43913 11.7985C9.19005 12.0476 8.85224 12.1875 8.5 12.1875C8.14776 12.1875 7.80995 12.0476 7.56087 11.7985C7.3118 11.5494 7.17188 11.2116 7.17188 10.8594ZM3.71875 11.9219V11.3906C3.71875 11.1088 3.83069 10.8386 4.02995 10.6393C4.22921 10.4401 4.49946 10.3281 4.78125 10.3281C5.06304 10.3281 5.33329 10.4401 5.53255 10.6393C5.73181 10.8386 5.84375 11.1088 5.84375 11.3906V11.9219C5.84375 12.2037 5.73181 12.4739 5.53255 12.6732C5.33329 12.8724 5.06304 12.9844 4.78125 12.9844C4.49946 12.9844 4.22921 12.8724 4.02995 12.6732C3.83069 12.4739 3.71875 12.2037 3.71875 11.9219ZM2.87406 15.1386C2.92682 14.8339 3.05187 14.5463 3.23874 14.2999C3.42561 14.0536 3.66883 13.8556 3.94802 13.7226C4.2272 13.5897 4.53419 13.5256 4.84325 13.5358C5.15231 13.546 5.45441 13.6302 5.72422 13.7812C5.36031 14.3922 5.29922 14.9686 5.09734 15.9062H3.79312L3.98438 15.1731C4.00128 15.1027 3.98951 15.0284 3.95165 14.9666C3.91379 14.9049 3.85295 14.8607 3.7825 14.8438C3.71205 14.8268 3.63777 14.8386 3.576 14.8765C3.51423 14.9143 3.47003 14.9752 3.45312 15.0456L3.24594 15.9062H2.71469L2.87406 15.1386ZM10.5984 15.9062L10.3328 14.7853C10.3156 14.717 10.2719 14.6583 10.2113 14.6222C10.1508 14.5861 10.0784 14.5755 10.0101 14.5927C9.94174 14.61 9.88306 14.6537 9.84695 14.7142C9.81083 14.7747 9.80024 14.8471 9.8175 14.9155L10.0513 15.9062H6.96469L7.17188 14.8969C7.18596 14.8264 7.17149 14.7533 7.13164 14.6935C7.09179 14.6337 7.02982 14.5922 6.95938 14.5781C6.88893 14.564 6.81577 14.5785 6.75599 14.6184C6.69621 14.6582 6.65471 14.7202 6.64062 14.7906L6.42281 15.9062H5.64187C5.72085 15.4507 5.8228 14.9995 5.94734 14.5542C6.10642 14.0838 6.39231 13.6665 6.77348 13.3483C7.15465 13.0301 7.6163 12.8233 8.10752 12.7508C8.59874 12.6783 9.10045 12.7428 9.55733 12.9373C10.0142 13.1318 10.4085 13.4486 10.6967 13.853C11.1084 14.4267 11.1483 14.9155 11.3581 15.9062H10.5984ZM13.7541 15.9062L13.5469 15.0456C13.5278 14.9797 13.4839 14.9236 13.4245 14.8893C13.365 14.855 13.2945 14.845 13.2279 14.8615C13.1612 14.878 13.1036 14.9197 13.067 14.9778C13.0303 15.0359 13.0177 15.1059 13.0316 15.1731L13.2069 15.9062H11.9027C11.6769 14.8438 11.6131 14.3391 11.2758 13.7812C11.5459 13.6289 11.8488 13.5439 12.1588 13.5335C12.4688 13.5231 12.7767 13.5877 13.0564 13.7217C13.3361 13.8557 13.5794 14.0552 13.7656 14.3032C13.9518 14.5513 14.0754 14.8406 14.1259 15.1466L14.2827 15.9062H13.7541Z" fill="black"/>
<path id="Vector_2" d="M14.0781 1.5625H2.92188C2.42874 1.5625 1.9558 1.7584 1.6071 2.1071C1.2584 2.4558 1.0625 2.92874 1.0625 3.42188V5.01562C1.0625 5.50876 1.2584 5.9817 1.6071 6.3304C1.9558 6.6791 2.42874 6.875 2.92188 6.875H3.81969L4.54484 8.32266C4.56713 8.36617 4.601 8.40268 4.64271 8.42818C4.68442 8.45368 4.73236 8.46717 4.78125 8.46717C4.83014 8.46717 4.87808 8.45368 4.91979 8.42818C4.9615 8.40268 4.99537 8.36617 5.01766 8.32266L5.74281 6.875H7.80406L8.26359 7.79141C8.28588 7.83492 8.31975 7.87143 8.36146 7.89693C8.40317 7.92243 8.45111 7.93592 8.5 7.93592C8.54889 7.93592 8.59683 7.92243 8.63854 7.89693C8.68025 7.87143 8.71412 7.83492 8.73641 7.79141L9.19594 6.875H11.2572L11.9823 8.32266C12.0046 8.36617 12.0385 8.40268 12.0802 8.42818C12.1219 8.45368 12.1699 8.46717 12.2188 8.46717C12.2676 8.46717 12.3156 8.45368 12.3573 8.42818C12.399 8.40268 12.4329 8.36617 12.4552 8.32266L13.1803 6.875H14.0781C14.5713 6.875 15.0442 6.6791 15.3929 6.3304C15.7416 5.9817 15.9375 5.50876 15.9375 5.01562V3.42188C15.9375 2.92874 15.7416 2.4558 15.3929 2.1071C15.0442 1.7584 14.5713 1.5625 14.0781 1.5625ZM15.4062 5.01562C15.4063 5.36787 15.2663 5.70568 15.0173 5.95475C14.7682 6.20382 14.4304 6.34375 14.0781 6.34375H13.0156C12.7978 6.34375 12.8084 6.42875 12.2188 7.60813C11.6158 6.40484 11.637 6.34375 11.4219 6.34375C8.76562 6.34375 8.89313 6.29328 8.79484 6.48984L8.5 7.07688L8.20516 6.48984C8.10687 6.29062 8.18922 6.34375 5.57812 6.34375C5.36031 6.34375 5.37094 6.42875 4.78125 7.60813C4.17828 6.40484 4.19953 6.34375 3.98438 6.34375H2.92188C2.56963 6.34375 2.23182 6.20382 1.98275 5.95475C1.73368 5.70568 1.59375 5.36787 1.59375 5.01562V3.42188C1.59375 3.06963 1.73368 2.73182 1.98275 2.48275C2.23182 2.23368 2.56963 2.09375 2.92188 2.09375H14.0781C14.4304 2.09375 14.7682 2.23368 15.0173 2.48275C15.2663 2.73182 15.4062 3.06963 15.4062 3.42188V5.01562Z" fill="black"/>
<path id="Vector_3" d="M5.87553 3.5972L5.28585 3.48298L4.99366 2.95173C4.97069 2.91021 4.93701 2.8756 4.89614 2.8515C4.85527 2.82741 4.80868 2.8147 4.76124 2.8147C4.71379 2.8147 4.66721 2.82741 4.62633 2.8515C4.58546 2.8756 4.55179 2.91021 4.52881 2.95173L4.23663 3.48298C3.60975 3.60516 3.50881 3.58923 3.43975 3.77516C3.37069 3.9611 3.5035 4.04079 3.90725 4.47907C3.82756 5.11391 3.77975 5.20688 3.94178 5.3211C4.10381 5.43532 4.20741 5.34235 4.7546 5.09532C5.3496 5.36095 5.331 5.36095 5.41069 5.36095C5.44842 5.36122 5.48578 5.35345 5.52028 5.33815C5.55478 5.32286 5.58562 5.30039 5.61075 5.27224C5.63588 5.24409 5.65473 5.21091 5.66603 5.17491C5.67734 5.13891 5.68084 5.10091 5.67631 5.06345L5.60991 4.48438L6.01897 4.04345C6.05248 4.00888 6.07596 3.96585 6.0869 3.91898C6.09785 3.8721 6.09585 3.82312 6.08112 3.77729C6.06639 3.73146 6.03948 3.6905 6.00327 3.65877C5.96706 3.62705 5.9229 3.60577 5.87553 3.5972ZM5.09725 4.6597C4.72006 4.48438 4.79444 4.48704 4.42788 4.6597C4.47569 4.25595 4.50225 4.32766 4.22069 4.0222C4.6271 3.94251 4.566 3.98235 4.75194 3.62641C4.9485 3.98235 4.88475 3.94251 5.28319 4.0222C5.02819 4.32235 5.04678 4.25063 5.09725 4.66501V4.6597Z" fill="black"/>
<path id="Vector_4" d="M9.06555 3.15622C8.96049 3.15596 8.85642 3.17648 8.75932 3.2166C8.66222 3.25671 8.57401 3.31563 8.49977 3.38997C8.427 3.31151 8.33917 3.24852 8.24152 3.20474C8.14388 3.16097 8.03842 3.1373 7.93143 3.13517C7.82445 3.13303 7.71812 3.15247 7.61881 3.19231C7.5195 3.23216 7.42923 3.29159 7.35338 3.36708C7.27754 3.44257 7.21767 3.53256 7.17736 3.63168C7.13705 3.73081 7.11711 3.83704 7.11874 3.94403C7.12038 4.05103 7.14354 4.1566 7.18686 4.25445C7.23017 4.3523 7.29275 4.44042 7.37086 4.51356L8.31914 5.46184C8.36891 5.51132 8.43623 5.53908 8.50641 5.53908C8.57658 5.53908 8.6439 5.51132 8.69367 5.46184L9.63399 4.52419C9.74841 4.41288 9.82677 4.26977 9.8589 4.1134C9.89103 3.95704 9.87547 3.79462 9.81421 3.64721C9.75296 3.4998 9.64884 3.37418 9.51535 3.28663C9.38186 3.19909 9.22516 3.15366 9.06555 3.15622ZM9.2568 4.147L8.49977 4.89872L7.74539 4.13903C7.70913 4.10207 7.68447 4.05531 7.67443 4.00452C7.66439 3.95372 7.66941 3.9011 7.68889 3.85312C7.70836 3.80514 7.74143 3.7639 7.78403 3.73447C7.82663 3.70504 7.87691 3.6887 7.92867 3.68747C8.05883 3.68747 8.09336 3.74059 8.31117 3.95309C8.36094 4.00257 8.42826 4.03033 8.49844 4.03033C8.56861 4.03033 8.63594 4.00257 8.6857 3.95309L8.8743 3.7645C8.92502 3.71378 8.99382 3.68528 9.06555 3.68528C9.13728 3.68528 9.20607 3.71378 9.2568 3.7645C9.30752 3.81522 9.33602 3.88402 9.33602 3.95575C9.33602 4.02748 9.30752 4.09628 9.2568 4.147Z" fill="black"/>
<path id="Vector_5" d="M13.313 3.86282L12.7233 3.7486L12.4312 3.21735C12.4082 3.17583 12.3745 3.14123 12.3336 3.11713C12.2928 3.09303 12.2462 3.08032 12.1987 3.08032C12.1513 3.08032 12.1047 3.09303 12.0638 3.11713C12.023 3.14123 11.9893 3.17583 11.9663 3.21735L11.6741 3.7486C11.0473 3.87079 10.9463 3.85485 10.8773 4.04079C10.8082 4.22673 10.941 4.30641 11.3448 4.7447C11.2651 5.37954 11.2173 5.47251 11.3793 5.58673C11.5413 5.70095 11.6582 5.60798 12.1921 5.36095C12.7871 5.62657 12.7685 5.62657 12.8482 5.62657C12.8859 5.62684 12.9233 5.61907 12.9578 5.60378C12.9923 5.58848 13.0231 5.56601 13.0482 5.53786C13.0734 5.50971 13.0922 5.47654 13.1035 5.44053C13.1148 5.40453 13.1183 5.36653 13.1138 5.32907L13.0474 4.75001L13.4565 4.30907C13.49 4.2745 13.5135 4.23148 13.5244 4.1846C13.5353 4.13772 13.5333 4.08875 13.5186 4.04292C13.5039 3.99709 13.477 3.95612 13.4408 3.9244C13.4046 3.89268 13.3604 3.87139 13.313 3.86282ZM12.5348 4.92532C12.1576 4.75001 12.2319 4.75266 11.8654 4.92532C11.9132 4.52157 11.9398 4.59329 11.6582 4.28782C12.0646 4.20813 12.0035 4.24798 12.1894 3.89204C12.386 4.24798 12.3223 4.20813 12.7207 4.28782C12.4657 4.58798 12.4843 4.51626 12.5348 4.93063V4.92532Z" fill="black"/>
</g>
</g>
</svg>
