<svg width="18" height="18" viewBox="0 0 18 18" fill="none" xmlns="http://www.w3.org/2000/svg">
<g id="menu 1" clip-path="url(#clip0_2044_27417)">
<g id="Group">
<path id="Vector" d="M7.22917 6.16667H1.5625C0.976708 6.16667 0.5 5.68996 0.5 5.10417V1.5625C0.5 0.976708 0.976708 0.5 1.5625 0.5H7.22917C7.81496 0.5 8.29167 0.976708 8.29167 1.5625V5.10417C8.29167 5.68996 7.81496 6.16667 7.22917 6.16667ZM1.5625 1.20833C1.36771 1.20833 1.20833 1.367 1.20833 1.5625V5.10417C1.20833 5.29967 1.36771 5.45833 1.5625 5.45833H7.22917C7.42396 5.45833 7.58333 5.29967 7.58333 5.10417V1.5625C7.58333 1.367 7.42396 1.20833 7.22917 1.20833H1.5625Z" fill="#1B1C1E"/>
</g>
<g id="Group_2">
<path id="Vector_2" d="M7.22917 17.5H1.5625C0.976708 17.5 0.5 17.0233 0.5 16.4375V8.64587C0.5 8.06008 0.976708 7.58337 1.5625 7.58337H7.22917C7.81496 7.58337 8.29167 8.06008 8.29167 8.64587V16.4375C8.29167 17.0233 7.81496 17.5 7.22917 17.5ZM1.5625 8.29171C1.36771 8.29171 1.20833 8.45037 1.20833 8.64587V16.4375C1.20833 16.633 1.36771 16.7917 1.5625 16.7917H7.22917C7.42396 16.7917 7.58333 16.633 7.58333 16.4375V8.64587C7.58333 8.45037 7.42396 8.29171 7.22917 8.29171H1.5625Z" fill="#1B1C1E"/>
</g>
<g id="Group_3">
<path id="Vector_3" d="M16.4377 17.5H10.771C10.1852 17.5 9.7085 17.0233 9.7085 16.4375V12.8959C9.7085 12.3101 10.1852 11.8334 10.771 11.8334H16.4377C17.0235 11.8334 17.5002 12.3101 17.5002 12.8959V16.4375C17.5002 17.0233 17.0235 17.5 16.4377 17.5ZM10.771 12.5417C10.5762 12.5417 10.4168 12.7004 10.4168 12.8959V16.4375C10.4168 16.633 10.5762 16.7917 10.771 16.7917H16.4377C16.6325 16.7917 16.7918 16.633 16.7918 16.4375V12.8959C16.7918 12.7004 16.6325 12.5417 16.4377 12.5417H10.771Z" fill="#1B1C1E"/>
</g>
<g id="Group_4">
<path id="Vector_4" d="M16.4377 10.4167H10.771C10.1852 10.4167 9.7085 9.93996 9.7085 9.35417V1.5625C9.7085 0.976708 10.1852 0.5 10.771 0.5H16.4377C17.0235 0.5 17.5002 0.976708 17.5002 1.5625V9.35417C17.5002 9.93996 17.0235 10.4167 16.4377 10.4167ZM10.771 1.20833C10.5762 1.20833 10.4168 1.367 10.4168 1.5625V9.35417C10.4168 9.54967 10.5762 9.70833 10.771 9.70833H16.4377C16.6325 9.70833 16.7918 9.54967 16.7918 9.35417V1.5625C16.7918 1.367 16.6325 1.20833 16.4377 1.20833H10.771Z" fill="#1B1C1E"/>
</g>
</g>
<defs>
<clipPath id="clip0_2044_27417">
<rect width="18" height="18" fill="white"/>
</clipPath>
</defs>
</svg>
