<svg width="17" height="18" viewBox="0 0 17 18" fill="none" xmlns="http://www.w3.org/2000/svg">
<g id="log-out (2) 3">
<g id="Group">
<path id="Vector" d="M7.37082 2.85765C7.65248 2.85765 7.88082 2.6293 7.88082 2.34765C7.88082 2.06598 7.65248 1.83765 7.37082 1.83765H3.46343C2.24286 1.83765 1.25342 2.8271 1.25342 4.04765V13.9524C1.25342 15.1729 2.24286 16.1624 3.46341 16.1624H7.37082C7.65248 16.1624 7.88082 15.9341 7.88082 15.6524C7.88082 15.3707 7.65248 15.1424 7.37082 15.1424H3.46341C2.80621 15.1424 2.27341 14.6096 2.27341 13.9524L2.27343 4.04765C2.27343 3.39043 2.80621 2.85765 3.46343 2.85765H7.37082Z" fill="black"/>
<path id="Vector_2" d="M12.2437 5.0632C12.0445 4.86403 11.7216 4.86403 11.5225 5.0632C11.3233 5.26237 11.3233 5.58527 11.5225 5.78444L14.047 8.30901H4.75951C4.47786 8.30901 4.24951 8.53733 4.24951 8.81901C4.24951 9.10066 4.47786 9.32901 4.75951 9.32901H14.0118L11.5226 11.8183C11.3234 12.0174 11.3234 12.3404 11.5226 12.5395C11.7217 12.7387 12.0446 12.7387 12.2438 12.5395L15.5971 9.18628C15.6967 9.08666 15.7465 8.95608 15.7464 8.8255L15.7465 8.81901C15.7465 8.81141 15.7463 8.80384 15.746 8.79633C15.7511 8.65946 15.7014 8.52093 15.597 8.41645L12.2437 5.0632Z" fill="black"/>
</g>
</g>
</svg>
