<svg width="17" height="18" viewBox="0 0 17 18" fill="none" xmlns="http://www.w3.org/2000/svg">
<g id="financial-report 1" clip-path="url(#clip0_1949_18911)">
<g id="_x33_4">
<path id="Vector" d="M15.5501 3.95C15.3001 3.7 14.9001 3.7 14.6501 3.95C11.9501 6.65 12.8251 5.8 11.0001 7.625C10.9751 7.65 10.9501 7.7 10.9251 7.75L10.6501 9.35C10.6251 9.525 10.7751 9.675 10.9501 9.65L11.2751 9.6V11.525C10.6501 11.675 10.2001 12.225 10.2001 12.875C10.2001 13.3 10.4001 13.675 10.7001 13.95C9.8751 14.275 9.2751 15 9.1251 15.9H1.4751C1.2001 15.9 0.975098 15.675 0.975098 15.4V3.9C0.975098 3.625 1.2001 3.4 1.4751 3.4H3.7501C3.9001 3.4 4.0001 3.3 4.0001 3.15V2.525C4.0001 2.375 4.1001 2.275 4.2501 2.275H5.3001C5.4501 2.275 5.5501 2.175 5.5501 2.025C5.5501 1.725 5.8001 1.475 6.1001 1.475C6.4001 1.475 6.6501 1.725 6.6501 2.025C6.6501 2.175 6.7501 2.275 6.9001 2.275H7.9501C8.1001 2.275 8.2001 2.375 8.2001 2.525V3.15C8.2001 3.3 8.3001 3.4 8.4501 3.4H10.7501C11.0251 3.4 11.2501 3.625 11.2501 3.9V5.875C11.2501 6.025 11.3501 6.125 11.5001 6.125C11.6501 6.125 11.7501 6.025 11.7501 5.875V3.9C11.7501 3.35 11.3001 2.9 10.7501 2.9H8.7251V2.525C8.7251 2.1 8.4001 1.775 7.9751 1.775H7.1251C7.0251 1.325 6.6001 1 6.1001 1C5.6001 1 5.2001 1.35 5.0751 1.8H4.2501C3.8251 1.8 3.5001 2.125 3.5001 2.55V2.925H1.4751C0.925098 2.925 0.475098 3.375 0.475098 3.925V15.425C0.475098 15.975 0.925098 16.425 1.4751 16.425H9.0751C9.1251 16.775 9.4251 17.05 9.7751 17.05H13.4001C13.8001 17.05 14.1001 16.725 14.1001 16.35C14.1001 15.275 13.4251 14.375 12.4751 14C12.7751 13.75 12.9751 13.35 12.9751 12.925C12.9751 12.225 12.4501 11.625 11.7501 11.55V9.55L12.5251 9.425C12.5751 9.425 12.6251 9.4 12.6501 9.35C14.5501 7.45 13.8251 8.175 16.3251 5.675C16.5751 5.425 16.5751 5.025 16.3251 4.775L15.5501 3.95ZM13.6001 16.3C13.6001 16.425 13.5001 16.5 13.4001 16.5H9.7751C9.6501 16.5 9.5751 16.4 9.5751 16.3C9.5751 15.175 10.4751 14.275 11.6001 14.275C12.7251 14.275 13.6001 15.2 13.6001 16.3ZM12.4751 12.9C12.4751 13.4 12.0751 13.8 11.5751 13.8C11.0751 13.8 10.6751 13.4 10.6751 12.9C10.6751 12.4 11.0751 12 11.5751 12C12.0751 12 12.4751 12.4 12.4751 12.9ZM12.3751 8.9L11.2001 9.1L11.4001 7.925C11.4501 7.875 11.2251 8.1 14.1751 5.15L15.1501 6.125C12.0251 9.25 12.4001 8.875 12.3751 8.9ZM15.9751 5.3L15.5001 5.775L14.5251 4.8L15.0001 4.325C15.0501 4.275 15.1501 4.275 15.2001 4.325L15.9751 5.1C16.0501 5.15 16.0501 5.225 15.9751 5.3Z" fill="black"/>
<path id="Vector_2" d="M10.3001 5.375C10.3001 5.225 10.2001 5.125 10.0501 5.125H2.2251C2.0751 5.125 1.9751 5.225 1.9751 5.375V6.6C1.9751 6.75 2.0751 6.85 2.2251 6.85H10.0501C10.2001 6.85 10.3001 6.75 10.3001 6.6V5.375ZM9.8001 6.325H2.4751V5.6H9.8001V6.325Z" fill="black"/>
<path id="Vector_3" d="M10.05 8.07495H5.25C5.1 8.07495 5 8.17495 5 8.32495C5 8.47495 5.1 8.57495 5.25 8.57495H10.025C10.175 8.57495 10.275 8.47495 10.275 8.32495C10.275 8.17495 10.175 8.07495 10.05 8.07495Z" fill="black"/>
<path id="Vector_4" d="M10.2999 10.325C10.2999 10.175 10.1999 10.075 10.0499 10.075H5.3999C5.2499 10.075 5.1499 10.175 5.1499 10.325C5.1499 10.475 5.2499 10.575 5.3999 10.575H10.0499C10.1749 10.575 10.2999 10.475 10.2999 10.325Z" fill="black"/>
<path id="Vector_5" d="M9.2999 12.375C9.2999 12.225 9.1999 12.125 9.0499 12.125H5.6499C5.4999 12.125 5.3999 12.225 5.3999 12.375C5.3999 12.525 5.4999 12.625 5.6499 12.625H9.0499C9.1749 12.625 9.2999 12.5 9.2999 12.375Z" fill="black"/>
<path id="Vector_6" d="M2.2251 14.375H8.3001C8.4501 14.375 8.5501 14.275 8.5501 14.125C8.5501 13.975 8.4501 13.875 8.3001 13.875H2.2251C2.0751 13.875 1.9751 13.975 1.9751 14.125C1.9751 14.275 2.0751 14.375 2.2251 14.375Z" fill="black"/>
<path id="Vector_7" d="M3.0251 11.6749C2.7251 11.6749 2.4751 11.4249 2.4751 11.1249C2.4751 10.9749 2.3751 10.8749 2.2251 10.8749C2.0751 10.8749 1.9751 10.9749 1.9751 11.1249C1.9751 11.6249 2.3251 12.0249 2.7751 12.1249V12.3749C2.7751 12.5249 2.8751 12.6249 3.0251 12.6249C3.1751 12.6249 3.2751 12.5249 3.2751 12.3749V12.1249C3.7251 11.9999 4.0751 11.5999 4.0751 11.1249C4.0751 10.5499 3.6001 10.0749 3.0251 10.0749C2.7251 10.0749 2.4751 9.8249 2.4751 9.5249C2.4751 9.2249 2.7251 8.9749 3.0251 8.9749C3.3251 8.9749 3.5751 9.2249 3.5751 9.5249C3.5751 9.6749 3.6751 9.7749 3.8251 9.7749C3.9751 9.7749 4.0751 9.6749 4.0751 9.5249C4.0751 9.0249 3.7251 8.6249 3.2751 8.5249V8.2749C3.2751 8.1249 3.1751 8.0249 3.0251 8.0249C2.8751 8.0249 2.7751 8.1249 2.7751 8.2749V8.5249C2.3251 8.6499 1.9751 9.0499 1.9751 9.5249C1.9751 10.0999 2.4501 10.5749 3.0251 10.5749C3.3251 10.5749 3.5751 10.8249 3.5751 11.1249C3.5751 11.4249 3.3251 11.6749 3.0251 11.6749Z" fill="black"/>
</g>
</g>
<defs>
<clipPath id="clip0_1949_18911">
<rect width="17" height="17" fill="white" transform="translate(0 0.5)"/>
</clipPath>
</defs>
</svg>
