<svg width="17" height="18" viewBox="0 0 17 18" fill="none" xmlns="http://www.w3.org/2000/svg">
<g id="settings 1" clip-path="url(#clip0_1949_18971)">
<g id="Group">
<g id="Group_2">
<path id="Vector" d="M10.4833 10.4167H10.1717C10.0544 10.417 9.94957 10.3438 9.9093 10.2337C9.87473 10.143 9.83762 10.0544 9.79767 9.96653C9.74801 9.85971 9.77068 9.73324 9.85433 9.65033L10.0765 9.42792C10.4062 9.09525 10.4056 8.55875 10.0751 8.22686L9.27435 7.42616C8.94204 7.0958 8.40533 7.0958 8.07302 7.42616L7.85088 7.64802C7.7678 7.73135 7.64154 7.75398 7.53468 7.70468C7.44685 7.66473 7.35817 7.62761 7.26722 7.59135C7.15654 7.55136 7.08291 7.4461 7.08333 7.32841V7.01675C7.08333 6.5473 6.70278 6.16675 6.23333 6.16675H5.1C4.63055 6.16675 4.25 6.5473 4.25 7.01675V7.32841C4.25021 7.44564 4.17708 7.55051 4.06697 7.59078C3.9763 7.62535 3.88762 7.66246 3.79978 7.70241C3.69293 7.75182 3.56664 7.72919 3.48358 7.64575L3.26117 7.42362C2.92889 7.09346 2.3924 7.09346 2.06012 7.42362L1.25942 8.22686C0.92905 8.55918 0.92905 9.09588 1.25942 9.4282L1.48127 9.65033C1.56492 9.73324 1.58759 9.85971 1.53793 9.96653C1.49798 10.0544 1.46087 10.143 1.42602 10.234C1.38546 10.3447 1.2796 10.418 1.16167 10.4167H0.85C0.380552 10.4167 0 10.7973 0 11.2667V12.4001C0 12.8695 0.380552 13.2501 0.85 13.2501H1.16167C1.2789 13.2499 1.38376 13.323 1.42403 13.4331C1.4586 13.5238 1.49572 13.6125 1.53567 13.7003C1.58532 13.8071 1.56265 13.9336 1.479 14.0165L1.25687 14.2389C0.926713 14.5712 0.926713 15.1077 1.25687 15.44L2.05757 16.2407C2.38988 16.571 2.92659 16.571 3.2589 16.2407L3.48103 16.0188C3.56412 15.9355 3.69038 15.9128 3.79723 15.9621C3.88507 16.0021 3.97375 16.0392 4.0647 16.0755C4.17594 16.115 4.25021 16.2204 4.25 16.3384V16.6501C4.25 17.1195 4.63055 17.5001 5.1 17.5001H6.23333C6.70278 17.5001 7.08333 17.1195 7.08333 16.6501V16.3384C7.08312 16.2212 7.15626 16.1163 7.26637 16.076C7.35703 16.0415 7.44572 16.0044 7.53355 15.9644C7.6404 15.915 7.7667 15.9376 7.84975 16.0211L8.07217 16.2432C8.40491 16.5728 8.94126 16.5722 9.27322 16.2418L10.0739 15.4411C10.4043 15.1088 10.4043 14.5721 10.0739 14.2398L9.85207 14.0176C9.76841 13.9347 9.74575 13.8082 9.7954 13.7014C9.83535 13.6136 9.87247 13.5249 9.90873 13.434C9.94872 13.3233 10.054 13.2497 10.1717 13.2501H10.4833C10.9528 13.2501 11.3333 12.8695 11.3333 12.4001V11.2667C11.3333 10.7973 10.9528 10.4167 10.4833 10.4167ZM10.7667 12.4001C10.7667 12.5566 10.6398 12.6834 10.4833 12.6834H10.1717C9.81945 12.6847 9.50424 12.9024 9.37833 13.2314C9.3483 13.3107 9.31582 13.3888 9.28087 13.4657C9.1352 13.7873 9.20277 14.1654 9.45087 14.4166L9.67243 14.6384C9.78315 14.749 9.78325 14.9284 9.67265 15.0391C9.67258 15.0392 9.67251 15.0393 9.67243 15.0393L8.87173 15.84C8.76109 15.9506 8.58174 15.9506 8.4711 15.84L8.24897 15.6182C7.9979 15.3699 7.61965 15.3023 7.2981 15.4482C7.22132 15.483 7.14312 15.5156 7.06435 15.5456C6.73565 15.6715 6.51808 15.9864 6.51667 16.3384V16.6501C6.51667 16.8066 6.3898 16.9334 6.23333 16.9334H5.1C4.94353 16.9334 4.81667 16.8066 4.81667 16.6501V16.3384C4.81536 15.9862 4.59765 15.671 4.2687 15.5451C4.18937 15.515 4.11127 15.4826 4.03438 15.4476C3.7128 15.302 3.33473 15.3696 3.08352 15.6176L2.86167 15.8392C2.7511 15.9499 2.57168 15.95 2.46096 15.8394C2.46089 15.8393 2.46082 15.8393 2.46075 15.8392L1.66005 15.0393C1.54944 14.9287 1.54944 14.7493 1.66005 14.6387L1.8819 14.4166C2.12999 14.1654 2.19757 13.7873 2.0519 13.4657C2.01705 13.3889 1.98447 13.3107 1.95443 13.2319C1.82885 12.9029 1.51385 12.685 1.16167 12.6834H0.85C0.693529 12.6834 0.566667 12.5566 0.566667 12.4001V11.2667C0.566667 11.1103 0.693529 10.9834 0.85 10.9834H1.16167C1.51389 10.9821 1.82909 10.7644 1.955 10.4354C1.98503 10.3561 2.01751 10.278 2.05247 10.2011C2.19814 9.87955 2.13053 9.50144 1.88247 9.25026L1.65977 9.02842C1.54905 8.91784 1.54895 8.73842 1.65955 8.62771C1.65963 8.62764 1.6597 8.62757 1.65977 8.6275L2.46047 7.8268C2.57111 7.71619 2.75046 7.71619 2.8611 7.8268L3.08323 8.04865C3.3343 8.29695 3.71255 8.36457 4.0341 8.21865C4.11088 8.1838 4.18908 8.15122 4.26785 8.12118C4.59701 7.9957 4.81507 7.68067 4.81667 7.32841V7.01675C4.81667 6.86028 4.94353 6.73341 5.1 6.73341H6.23333C6.3898 6.73341 6.51667 6.86028 6.51667 7.01675V7.32841C6.51798 7.68063 6.73568 7.99584 7.06463 8.12175C7.14397 8.15178 7.22206 8.18426 7.29895 8.21921C7.6205 8.36513 7.99875 8.29752 8.24982 8.04921L8.47167 7.82765C8.58273 7.71779 8.76152 7.71779 8.87258 7.82765L9.67328 8.62835C9.78389 8.73899 9.78389 8.91834 9.67328 9.02898L9.45143 9.25111C9.20338 9.50229 9.13577 9.8804 9.28143 10.202C9.31628 10.2788 9.34887 10.357 9.3789 10.4357C9.50477 10.7644 9.8197 10.982 10.1717 10.9834H10.4833C10.6398 10.9834 10.7667 11.1103 10.7667 11.2667V12.4001Z" fill="black"/>
</g>
</g>
<g id="Group_3">
<g id="Group_4">
<path id="Vector_2" d="M8.21104 11.7201C8.2082 11.6521 8.20339 11.5844 8.19517 11.517C8.1861 11.4444 8.17534 11.3725 8.16032 11.3019C8.1504 11.2557 8.13737 11.2101 8.1249 11.1642C8.10904 11.1058 8.09119 11.0483 8.07135 10.9917C8.05747 10.9523 8.04302 10.9132 8.02829 10.8744C7.99181 10.7836 7.95009 10.695 7.90334 10.6092C7.89965 10.6026 7.89739 10.5956 7.8937 10.589C7.82 10.4579 7.73465 10.3335 7.6387 10.2176C7.63049 10.2074 7.62114 10.1978 7.61264 10.1878C7.57354 10.1417 7.5333 10.0969 7.49109 10.0541C7.46899 10.0312 7.44575 10.0096 7.42252 9.98753C7.39419 9.96118 7.36585 9.93511 7.33752 9.91018C7.30313 9.88033 7.2681 9.85142 7.2324 9.82348L7.18594 9.78891C6.74751 9.46053 6.21446 9.28316 5.6667 9.28345C5.63837 9.28345 5.61004 9.2877 5.5817 9.28883C5.52135 9.29053 5.46072 9.29393 5.3998 9.30016C5.36779 9.30356 5.33549 9.30725 5.30347 9.31178C5.2111 9.32393 5.11945 9.34107 5.02892 9.36306C3.66464 9.7156 2.84446 11.1074 3.19699 12.4717C3.42933 13.3707 4.13171 14.0725 5.0309 14.3041C5.03544 14.3041 5.04025 14.3055 5.04507 14.3067C5.14293 14.3311 5.24206 14.35 5.342 14.3633C5.40802 14.3715 5.47404 14.3732 5.54034 14.3764C5.58454 14.3786 5.62534 14.3851 5.67152 14.3851C5.75227 14.3851 5.83614 14.3798 5.9217 14.3713C5.93077 14.3713 5.93984 14.3687 5.95004 14.3676C6.01889 14.3599 6.08859 14.3497 6.1597 14.3356C6.18804 14.3302 6.21439 14.3231 6.24159 14.3169C6.29145 14.3052 6.34104 14.2931 6.39204 14.278C6.4317 14.2661 6.47024 14.2523 6.50905 14.2387C6.54787 14.2251 6.5881 14.2103 6.62834 14.195C6.66857 14.1797 6.70229 14.1622 6.73884 14.1452C6.78644 14.1233 6.83375 14.1018 6.8805 14.0763H6.8822C7.14663 13.9348 7.39086 13.7584 7.60839 13.5519C7.66714 13.497 7.71825 13.4345 7.76025 13.366C7.9814 13.0115 8.12668 12.615 8.18695 12.2015C8.19489 12.1468 8.20197 12.0921 8.20622 12.0363C8.21019 11.985 8.21302 11.934 8.21415 11.883C8.21415 11.8669 8.21642 11.8516 8.21642 11.8354C8.2167 11.7955 8.21274 11.7586 8.21104 11.7201ZM7.64635 11.9057C7.64635 11.9292 7.64437 11.9527 7.64295 11.976C7.63785 12.0445 7.62907 12.1131 7.61745 12.1819C7.51156 12.771 7.14581 13.281 6.62182 13.5703C6.58669 13.5887 6.55212 13.606 6.51755 13.6218L6.49404 13.6332C6.32942 13.7079 6.15567 13.7605 5.97724 13.7896C5.96477 13.7916 5.95202 13.7938 5.93927 13.7955C5.90385 13.8006 5.869 13.8049 5.83444 13.808C5.78882 13.812 5.74292 13.8142 5.69617 13.8151C5.67634 13.8151 5.65679 13.8151 5.63695 13.8151C5.56991 13.8143 5.50297 13.8102 5.43635 13.8026L5.40235 13.7986C5.32444 13.7884 5.24716 13.7739 5.17087 13.755C4.10972 13.4834 3.46967 12.403 3.74124 11.3418C3.9207 10.6406 4.46789 10.0929 5.16889 9.91273V9.91245C5.33166 9.8714 5.49883 9.85043 5.6667 9.85011C5.7477 9.85057 5.82863 9.85606 5.90895 9.86655C5.93049 9.8691 5.95174 9.87306 5.97299 9.87618C6.03419 9.88581 6.09482 9.898 6.1546 9.9133C6.17415 9.9184 6.1937 9.92293 6.21297 9.92831C6.36363 9.97181 6.50866 10.0329 6.64505 10.1102C6.66687 10.123 6.68812 10.1363 6.70965 10.1496C6.75442 10.1779 6.79777 10.2063 6.84055 10.2386C6.8635 10.2553 6.88674 10.2717 6.90884 10.2896C6.96444 10.334 7.01767 10.3813 7.06835 10.4312C7.08847 10.4516 7.10689 10.474 7.12644 10.4953C7.15902 10.5307 7.19075 10.5669 7.22107 10.6052C7.24204 10.6315 7.26215 10.6587 7.28199 10.6862C7.31032 10.727 7.33865 10.7695 7.36415 10.8126C7.37832 10.8361 7.39249 10.8591 7.40694 10.8831C7.44349 10.9504 7.47604 11.0198 7.5044 11.0908C7.51574 11.1192 7.52537 11.1475 7.53557 11.1758C7.55399 11.228 7.56985 11.2807 7.58374 11.3339C7.59082 11.3623 7.59875 11.3875 7.6047 11.415C7.62124 11.4915 7.63325 11.569 7.64069 11.647C7.64239 11.6677 7.64239 11.6887 7.6438 11.7093C7.64777 11.7745 7.6489 11.84 7.64635 11.9057Z" fill="black"/>
</g>
</g>
<g id="Group_5">
<g id="Group_6">
<path id="Vector_3" d="M16.1498 6.45H15.2587C15.1399 6.4512 15.0336 6.37637 14.9947 6.26413C14.9068 6.00095 14.8005 5.74425 14.6765 5.49602C14.6239 5.38881 14.6458 5.25993 14.7309 5.17613L15.3627 4.54345C15.6944 4.21156 15.6944 3.67372 15.3627 3.34183L14.158 2.13908C13.8261 1.80744 13.2883 1.80744 12.9564 2.13908L12.3248 2.77035C12.2411 2.85542 12.1124 2.87745 12.0052 2.82503C11.757 2.7004 11.5002 2.59351 11.2368 2.50515C11.1241 2.46658 11.0488 2.36019 11.0498 2.24108V1.35C11.0498 0.880552 10.6693 0.5 10.1998 0.5H8.49983C8.03038 0.5 7.64983 0.880552 7.64983 1.35V2.24108C7.65103 2.35991 7.57623 2.46619 7.46396 2.50515C7.20075 2.59348 6.94405 2.7003 6.69585 2.82475C6.58864 2.87756 6.45969 2.85563 6.37596 2.77035L5.74328 2.13852C5.411 1.80783 4.87394 1.80783 4.54166 2.13852L3.3392 3.34098C3.00738 3.67291 3.00738 4.21096 3.3392 4.54288L4.26825 5.47363C4.38062 5.5825 4.56001 5.57967 4.66888 5.46726C4.77509 5.35761 4.77534 5.1835 4.66945 5.07357L3.73983 4.1431C3.62922 4.03246 3.62922 3.85311 3.73983 3.74247L4.9423 2.54C5.05294 2.42939 5.23229 2.42939 5.34293 2.54L5.9759 3.17183C6.23199 3.42945 6.62441 3.49384 6.94943 3.33163C7.17386 3.21926 7.40591 3.12278 7.64388 3.04292C7.98735 2.92664 8.21798 2.60371 8.2165 2.24108V1.35C8.2165 1.19353 8.34336 1.06667 8.49983 1.06667H10.1998C10.3563 1.06667 10.4832 1.19353 10.4832 1.35V2.24108C10.4817 2.60364 10.7123 2.92647 11.0558 3.04263C11.2939 3.12253 11.526 3.21908 11.7505 3.33163C12.0756 3.49299 12.4675 3.42853 12.7238 3.17155L13.3567 2.54C13.4674 2.42939 13.6467 2.42939 13.7574 2.54L14.9598 3.74275C15.0703 3.85336 15.0703 4.03249 14.9598 4.1431L14.328 4.77607C14.0706 5.03231 14.0063 5.42455 14.1682 5.7496C14.2806 5.97403 14.377 6.20608 14.4569 6.44405C14.5731 6.78759 14.8961 7.01822 15.2587 7.01667H16.1498C16.3063 7.01667 16.4332 7.14353 16.4332 7.3V9C16.4332 9.15647 16.3063 9.28333 16.1498 9.28333H15.2587C14.8962 9.28188 14.5734 9.51251 14.4572 9.85595C14.3773 10.094 14.2807 10.3262 14.1682 10.5507C14.0066 10.8757 14.071 11.2678 14.3283 11.5239L14.9601 12.1569C15.0707 12.2675 15.0707 12.4469 14.9601 12.5575L13.7571 13.76C13.6465 13.8704 13.4673 13.8704 13.3567 13.76L12.4257 12.8309C12.3168 12.7185 12.1374 12.7157 12.0251 12.8246C11.9127 12.9334 11.9098 13.1128 12.0187 13.2252C12.021 13.2275 12.0233 13.2299 12.0256 13.2321L12.9564 14.1612C13.2883 14.4928 13.8261 14.4928 14.158 14.1612L15.3605 12.959C15.6923 12.6271 15.6923 12.089 15.3605 11.7571L14.7295 11.125C14.6445 11.0413 14.6225 10.9126 14.6748 10.8054C14.7994 10.5571 14.9063 10.3004 14.9947 10.037C15.0332 9.9243 15.1396 9.84894 15.2587 9.85H16.1498C16.6193 9.85 16.9998 9.46945 16.9998 9V7.3C16.9998 6.83055 16.6193 6.45 16.1498 6.45Z" fill="black"/>
</g>
</g>
<g id="Group_7">
<g id="Group_8">
<path id="Vector_4" d="M11.9543 5.5457C10.5151 4.10944 8.1848 4.10944 6.74554 5.5457C6.63684 5.65825 6.63996 5.83763 6.75252 5.94633C6.86231 6.05237 7.03638 6.05237 7.14617 5.94633C8.35512 4.72105 10.3284 4.70784 11.5537 5.91679C12.779 7.12574 12.7922 9.09905 11.5832 10.3243C11.5735 10.3342 11.5636 10.3441 11.5537 10.3539C11.4412 10.4626 11.438 10.6419 11.5468 10.7545C11.6555 10.867 11.8348 10.8702 11.9474 10.7614C11.9497 10.7592 11.9521 10.7568 11.9543 10.7545C13.3906 9.31523 13.3906 6.98496 11.9543 5.5457Z" fill="black"/>
</g>
</g>
</g>
<defs>
<clipPath id="clip0_1949_18971">
<rect width="17" height="17" fill="white" transform="translate(0 0.5)"/>
</clipPath>
</defs>
</svg>
