<svg width="17" height="18" viewBox="0 0 17 18" fill="none" xmlns="http://www.w3.org/2000/svg">
<g id="Group">
<g id="Group_2">
<g id="Group_3">
<path id="Vector" d="M8.51576 4.16431C5.62952 4.16431 3.27148 6.13008 3.27148 8.53618C3.27148 9.79428 3.93174 11.0052 5.04473 11.823C5.87476 12.5149 5.7993 13.9932 5.78044 14.0089C5.78044 14.0875 5.7993 14.1504 5.87476 14.2133C5.93135 14.2605 6.02567 14.292 6.10113 14.292H10.9115C11.0059 14.292 11.0813 14.2605 11.1379 14.2133C11.1945 14.1662 11.2322 14.0875 11.2322 14.0089C11.2322 13.9932 11.1379 12.5149 11.9679 11.823C11.9868 11.8072 12.0057 11.7915 12.0245 11.7758C13.1187 10.9423 13.76 9.76283 13.76 8.53618C13.76 6.13008 11.402 4.16431 8.51576 4.16431ZM11.5341 11.4141C11.5152 11.4298 11.4775 11.4613 11.4775 11.477C10.7418 12.1375 10.6097 13.2226 10.5908 13.7416H6.42182C6.40296 13.2226 6.27091 12.0903 5.47861 11.4141C4.4788 10.6907 3.89401 9.63702 3.89401 8.52046C3.89401 6.39742 5.95022 4.68327 8.4969 4.68327C11.0436 4.68327 13.0998 6.39742 13.0998 8.52046C13.0998 9.63702 12.5339 10.6907 11.5341 11.4141Z" fill="#1B1C1E"/>
<path id="Vector_2" d="M8.49647 5.28076C8.3267 5.28076 8.17578 5.40657 8.17578 5.54811C8.17578 5.68964 8.3267 5.81545 8.49647 5.81545C10.4018 5.81545 11.9298 7.105 11.9298 8.67762C11.9298 8.81915 12.0807 8.94496 12.2505 8.94496C12.4203 8.94496 12.5712 8.81915 12.5712 8.67762C12.59 6.8062 10.7602 5.28076 8.49647 5.28076Z" fill="#1B1C1E"/>
<path id="Vector_3" d="M10.5905 14.5906H6.40265C5.96877 14.5906 5.61035 14.8894 5.61035 15.2511C5.61035 15.6128 5.96877 15.9116 6.40265 15.9116H10.5717C11.0244 15.8958 11.3828 15.6128 11.3828 15.2511C11.3828 14.8894 11.0244 14.5906 10.5905 14.5906ZM10.5905 15.3612H6.40265C6.3272 15.3612 6.25174 15.314 6.25174 15.2353C6.25174 15.1567 6.30833 15.1095 6.40265 15.1095H10.5717C10.6471 15.1095 10.7226 15.1567 10.7226 15.2353C10.7226 15.314 10.666 15.3612 10.5905 15.3612Z" fill="#1B1C1E"/>
<path id="Vector_4" d="M9.96804 16.179H7.02521C6.59133 16.179 6.23291 16.4778 6.23291 16.8395C6.23291 17.2012 6.59133 17.5 7.02521 17.5H9.96804C10.4019 17.5 10.7603 17.2012 10.7603 16.8395C10.7603 16.462 10.4019 16.179 9.96804 16.179ZM9.96804 16.9495H7.02521C6.94975 16.9495 6.8743 16.9024 6.8743 16.8237C6.8743 16.7451 6.93089 16.6979 7.02521 16.6979H9.96804C10.0435 16.6979 10.119 16.7451 10.119 16.8237C10.119 16.9024 10.0435 16.9495 9.96804 16.9495Z" fill="#1B1C1E"/>
<path id="Vector_5" d="M8.49647 2.85893C8.68512 2.85893 8.81717 2.73312 8.81717 2.59158V0.767345C8.81717 0.625809 8.66625 0.5 8.49647 0.5C8.3267 0.5 8.17578 0.625809 8.17578 0.767345V2.59158C8.17578 2.73312 8.3267 2.85893 8.49647 2.85893Z" fill="#1B1C1E"/>
<path id="Vector_6" d="M13.8354 1.85259C13.6845 1.75824 13.4959 1.80541 13.4015 1.9155L12.1942 3.42521C12.081 3.55102 12.1188 3.72401 12.2697 3.80264C12.3263 3.83409 12.3829 3.84982 12.4395 3.84982C12.5527 3.84982 12.647 3.80264 12.7036 3.72401L13.9109 2.2143C14.0241 2.10421 13.9863 1.93122 13.8354 1.85259Z" fill="#1B1C1E"/>
<path id="Vector_7" d="M4.66755 3.78688C4.72414 3.78688 4.78074 3.77115 4.83733 3.7397C4.98824 3.66107 5.02597 3.48808 4.93165 3.36227L3.76206 1.83683C3.66774 1.71102 3.46023 1.67957 3.30932 1.7582C3.1584 1.83683 3.12068 2.00982 3.215 2.13563L4.38459 3.66107C4.46004 3.75543 4.55436 3.78688 4.66755 3.78688Z" fill="#1B1C1E"/>
<path id="Vector_8" d="M2.38461 5.45372L0.479317 4.58878C0.328403 4.52587 0.120895 4.57305 0.0454379 4.69886C-0.0488837 4.82467 0.00770924 4.99766 0.177488 5.06056L2.08278 5.9255C2.13938 5.94123 2.17711 5.95695 2.2337 5.95695C2.34688 5.95695 2.46007 5.90978 2.51666 5.81542C2.59212 5.68961 2.53553 5.51662 2.38461 5.45372Z" fill="#1B1C1E"/>
<path id="Vector_9" d="M16.9667 4.69886C16.8913 4.57305 16.6838 4.52587 16.5328 4.58878L14.6087 5.45372C14.4578 5.51662 14.4012 5.68961 14.4766 5.81542C14.5332 5.90978 14.6464 5.95695 14.7596 5.95695C14.8162 5.95695 14.8728 5.94123 14.9105 5.9255L16.8347 5.06056C16.9856 4.99766 17.0422 4.82467 16.9667 4.69886Z" fill="#1B1C1E"/>
</g>
</g>
</g>
</svg>
