<svg width="17" height="18" viewBox="0 0 17 18" fill="none" xmlns="http://www.w3.org/2000/svg">
<g id="login- 1">
<g id="g9983">
<path id="path11103" d="M8.49984 1.91675C4.59202 1.91675 1.4165 5.09226 1.4165 9.00008C1.4165 12.9079 4.59202 16.0834 8.49984 16.0834C12.4077 16.0834 15.5832 12.9079 15.5832 9.00008C15.5832 5.09226 12.4077 1.91675 8.49984 1.91675ZM8.49984 2.62508C12.0248 2.62508 14.8748 5.47507 14.8748 9.00008C14.8748 12.5251 12.0248 15.3751 8.49984 15.3751C4.97483 15.3751 2.12484 12.5251 2.12484 9.00008C2.12484 5.47507 4.97483 2.62508 8.49984 2.62508Z" fill="#1B1C1E"/>
<path id="path11109" d="M8.49868 8.29175C6.65445 8.29635 4.96429 9.32577 4.11311 10.9618C4.08691 11.0123 4.07324 11.0683 4.07324 11.1251C4.07324 11.1819 4.08691 11.2379 4.11311 11.2883C4.96429 12.9244 6.65445 13.9538 8.49868 13.9584C8.49961 13.9584 8.50053 13.9584 8.50145 13.9584C10.3504 13.9537 12.0436 12.9198 12.8926 11.2773C12.919 11.2267 12.9328 11.1704 12.9328 11.1133C12.9328 11.0562 12.919 11 12.8926 10.9494C12.0372 9.31604 10.3438 8.29184 8.50007 8.29175C8.4996 8.29175 8.49916 8.29175 8.49868 8.29175ZM8.50007 9.00008H8.50148C10.005 9.00064 11.348 9.8331 12.1109 11.1154C11.3528 12.4047 10.0086 13.2453 8.50145 13.2501C6.99668 13.2463 5.65321 12.4107 4.89338 11.1251C5.65297 9.83991 6.99583 9.00434 8.50007 9.00008Z" fill="#1B1C1E"/>
<path id="path11105" d="M8.49984 4.04175C7.52603 4.04175 6.729 4.83877 6.729 5.81258C6.729 6.78639 7.52603 7.58341 8.49984 7.58341C9.47365 7.58341 10.2707 6.78639 10.2707 5.81258C10.2707 4.83877 9.47365 4.04175 8.49984 4.04175ZM8.49984 4.75008C9.09083 4.75008 9.56234 5.22158 9.56234 5.81258C9.56234 6.40358 9.09083 6.87508 8.49984 6.87508C7.90884 6.87508 7.43734 6.40358 7.43734 5.81258C7.43734 5.22158 7.90884 4.75008 8.49984 4.75008Z" fill="#1B1C1E"/>
</g>
</g>
</svg>
