<svg width="24" height="24" viewBox="0 0 24 24" fill="none" xmlns="http://www.w3.org/2000/svg">
<g id="box 2" clip-path="url(#clip0_1949_19023)">
<path id="Vector" d="M20.4483 15.6767V7.84832C20.448 7.50511 20.3579 7.16804 20.1872 6.8709C20.0164 6.57377 19.771 6.32702 19.4756 6.15542L12.6664 2.24121C12.3706 2.06943 12.0351 1.979 11.6936 1.979C11.3521 1.979 11.0166 2.06943 10.7209 2.24121L3.91171 6.15542C3.61625 6.32702 3.37084 6.57377 3.20011 6.8709C3.02937 7.16804 2.93931 7.50511 2.93896 7.84832V15.6767C2.93931 16.0199 3.02937 16.357 3.20011 16.6542C3.37084 16.9513 3.61625 17.198 3.91171 17.3696L10.7209 21.2839C11.0166 21.4556 11.3521 21.5461 11.6936 21.5461C12.0351 21.5461 12.3706 21.4556 12.6664 21.2839L19.4756 17.3696C19.771 17.198 20.0164 16.9513 20.1872 16.6542C20.3579 16.357 20.448 16.0199 20.4483 15.6767Z" stroke="#EE9F27" stroke-width="2.46031" stroke-linecap="round" stroke-linejoin="round"/>
<path id="Vector_2" d="M3.20166 6.83081L11.6937 11.7725L20.1857 6.83081" stroke="#EE9F27" stroke-width="2.46031" stroke-linecap="round" stroke-linejoin="round"/>
<path id="Vector_3" d="M11.6938 21.6265V11.7627" stroke="#EE9F27" stroke-width="2.46031" stroke-linecap="round" stroke-linejoin="round"/>
</g>
<defs>
<clipPath id="clip0_1949_19023">
<rect width="23.3458" height="23.4853" fill="white" transform="translate(0.0205078 0.0205078)"/>
</clipPath>
</defs>
</svg>
