<svg width="24" height="24" viewBox="0 0 24 24" fill="none" xmlns="http://www.w3.org/2000/svg">
<g id="box 2" clip-path="url(#clip0_1949_19065)">
<path id="Vector" d="M20.4478 15.6767V7.84832C20.4475 7.50511 20.3574 7.16804 20.1867 6.8709C20.0159 6.57377 19.7705 6.32702 19.4751 6.15542L12.6659 2.24121C12.3701 2.06943 12.0347 1.979 11.6931 1.979C11.3516 1.979 11.0162 2.06943 10.7204 2.24121L3.91122 6.15542C3.61576 6.32702 3.37035 6.57377 3.19962 6.8709C3.02889 7.16804 2.93883 7.50511 2.93848 7.84832V15.6767C2.93883 16.0199 3.02889 16.357 3.19962 16.6542C3.37035 16.9513 3.61576 17.198 3.91122 17.3696L10.7204 21.2839C11.0162 21.4556 11.3516 21.5461 11.6931 21.5461C12.0347 21.5461 12.3701 21.4556 12.6659 21.2839L19.4751 17.3696C19.7705 17.198 20.0159 16.9513 20.1867 16.6542C20.3574 16.357 20.4475 16.0199 20.4478 15.6767Z" stroke="#A715BF" stroke-width="2.46031" stroke-linecap="round" stroke-linejoin="round"/>
<path id="Vector_2" d="M3.20215 6.83081L11.6942 11.7725L20.1862 6.83081" stroke="#A715BF" stroke-width="2.46031" stroke-linecap="round" stroke-linejoin="round"/>
<path id="Vector_3" d="M11.6943 21.6265V11.7627" stroke="#A715BF" stroke-width="2.46031" stroke-linecap="round" stroke-linejoin="round"/>
</g>
<defs>
<clipPath id="clip0_1949_19065">
<rect width="23.3458" height="23.4853" fill="white" transform="translate(0.0205078 0.0205078)"/>
</clipPath>
</defs>
</svg>
