<svg width="18" height="18" viewBox="0 0 18 18" fill="none" xmlns="http://www.w3.org/2000/svg">
<g id="menu 1" clip-path="url(#clip0_1949_18883)">
<g id="Group">
<path id="Vector" d="M7.22917 6.16667H1.5625C0.976708 6.16667 0.5 5.68996 0.5 5.10417V1.5625C0.5 0.976708 0.976708 0.5 1.5625 0.5H7.22917C7.81496 0.5 8.29167 0.976708 8.29167 1.5625V5.10417C8.29167 5.68996 7.81496 6.16667 7.22917 6.16667ZM1.5625 1.20833C1.36771 1.20833 1.20833 1.367 1.20833 1.5625V5.10417C1.20833 5.29967 1.36771 5.45833 1.5625 5.45833H7.22917C7.42396 5.45833 7.58333 5.29967 7.58333 5.10417V1.5625C7.58333 1.367 7.42396 1.20833 7.22917 1.20833H1.5625Z" fill="white"/>
</g>
<g id="Group_2">
<path id="Vector_2" d="M7.22917 17.4999H1.5625C0.976708 17.4999 0.5 17.0232 0.5 16.4374V8.64575C0.5 8.05996 0.976708 7.58325 1.5625 7.58325H7.22917C7.81496 7.58325 8.29167 8.05996 8.29167 8.64575V16.4374C8.29167 17.0232 7.81496 17.4999 7.22917 17.4999ZM1.5625 8.29159C1.36771 8.29159 1.20833 8.45025 1.20833 8.64575V16.4374C1.20833 16.6329 1.36771 16.7916 1.5625 16.7916H7.22917C7.42396 16.7916 7.58333 16.6329 7.58333 16.4374V8.64575C7.58333 8.45025 7.42396 8.29159 7.22917 8.29159H1.5625Z" fill="white"/>
</g>
<g id="Group_3">
<path id="Vector_3" d="M16.4377 17.4999H10.771C10.1852 17.4999 9.7085 17.0232 9.7085 16.4374V12.8958C9.7085 12.31 10.1852 11.8333 10.771 11.8333H16.4377C17.0235 11.8333 17.5002 12.31 17.5002 12.8958V16.4374C17.5002 17.0232 17.0235 17.4999 16.4377 17.4999ZM10.771 12.5416C10.5762 12.5416 10.4168 12.7003 10.4168 12.8958V16.4374C10.4168 16.6329 10.5762 16.7916 10.771 16.7916H16.4377C16.6325 16.7916 16.7918 16.6329 16.7918 16.4374V12.8958C16.7918 12.7003 16.6325 12.5416 16.4377 12.5416H10.771Z" fill="white"/>
</g>
<g id="Group_4">
<path id="Vector_4" d="M16.4377 10.4167H10.771C10.1852 10.4167 9.7085 9.93996 9.7085 9.35417V1.5625C9.7085 0.976708 10.1852 0.5 10.771 0.5H16.4377C17.0235 0.5 17.5002 0.976708 17.5002 1.5625V9.35417C17.5002 9.93996 17.0235 10.4167 16.4377 10.4167ZM10.771 1.20833C10.5762 1.20833 10.4168 1.367 10.4168 1.5625V9.35417C10.4168 9.54967 10.5762 9.70833 10.771 9.70833H16.4377C16.6325 9.70833 16.7918 9.54967 16.7918 9.35417V1.5625C16.7918 1.367 16.6325 1.20833 16.4377 1.20833H10.771Z" fill="white"/>
</g>
</g>
<defs>
<clipPath id="clip0_1949_18883">
<rect width="18" height="18" fill="white"/>
</clipPath>
</defs>
</svg>
