<svg width="17" height="18" viewBox="0 0 17 18" fill="none" xmlns="http://www.w3.org/2000/svg">
<g id="Group">
<g id="Group_2">
<g id="Group_3">
<path id="Vector" d="M8.51576 4.16443C5.62952 4.16443 3.27148 6.1302 3.27148 8.53631C3.27148 9.7944 3.93174 11.0053 5.04473 11.8231C5.87476 12.515 5.7993 13.9933 5.78044 14.009C5.78044 14.0876 5.7993 14.1506 5.87476 14.2135C5.93135 14.2606 6.02567 14.2921 6.10113 14.2921H10.9115C11.0059 14.2921 11.0813 14.2606 11.1379 14.2135C11.1945 14.1663 11.2322 14.0876 11.2322 14.009C11.2322 13.9933 11.1379 12.515 11.9679 11.8231C11.9868 11.8074 12.0057 11.7916 12.0245 11.7759C13.1187 10.9424 13.76 9.76295 13.76 8.53631C13.76 6.1302 11.402 4.16443 8.51576 4.16443ZM11.5341 11.4142C11.5152 11.4299 11.4775 11.4614 11.4775 11.4771C10.7418 12.1376 10.6097 13.2227 10.5908 13.7417H6.42182C6.40296 13.2227 6.27091 12.0904 5.47861 11.4142C4.4788 10.6908 3.89401 9.63714 3.89401 8.52058C3.89401 6.39755 5.95022 4.68339 8.4969 4.68339C11.0436 4.68339 13.0998 6.39755 13.0998 8.52058C13.0998 9.63714 12.5339 10.6908 11.5341 11.4142Z" fill="white"/>
<path id="Vector_2" d="M8.49647 5.28088C8.3267 5.28088 8.17578 5.40669 8.17578 5.54823C8.17578 5.68976 8.3267 5.81557 8.49647 5.81557C10.4018 5.81557 11.9298 7.10512 11.9298 8.67774C11.9298 8.81927 12.0807 8.94508 12.2505 8.94508C12.4203 8.94508 12.5712 8.81927 12.5712 8.67774C12.59 6.80632 10.7602 5.28088 8.49647 5.28088Z" fill="white"/>
<path id="Vector_3" d="M10.5905 14.5906H6.40265C5.96877 14.5906 5.61035 14.8894 5.61035 15.2511C5.61035 15.6128 5.96877 15.9116 6.40265 15.9116H10.5717C11.0244 15.8958 11.3828 15.6128 11.3828 15.2511C11.3828 14.8894 11.0244 14.5906 10.5905 14.5906ZM10.5905 15.3612H6.40265C6.3272 15.3612 6.25174 15.314 6.25174 15.2353C6.25174 15.1567 6.30833 15.1095 6.40265 15.1095H10.5717C10.6471 15.1095 10.7226 15.1567 10.7226 15.2353C10.7226 15.314 10.666 15.3612 10.5905 15.3612Z" fill="white"/>
<path id="Vector_4" d="M9.96804 16.179H7.02521C6.59133 16.179 6.23291 16.4778 6.23291 16.8395C6.23291 17.2012 6.59133 17.5 7.02521 17.5H9.96804C10.4019 17.5 10.7603 17.2012 10.7603 16.8395C10.7603 16.462 10.4019 16.179 9.96804 16.179ZM9.96804 16.9495H7.02521C6.94975 16.9495 6.8743 16.9024 6.8743 16.8237C6.8743 16.7451 6.93089 16.6979 7.02521 16.6979H9.96804C10.0435 16.6979 10.119 16.7451 10.119 16.8237C10.119 16.9024 10.0435 16.9495 9.96804 16.9495Z" fill="white"/>
<path id="Vector_5" d="M8.49647 2.85893C8.68512 2.85893 8.81717 2.73312 8.81717 2.59158V0.767345C8.81717 0.625809 8.66625 0.5 8.49647 0.5C8.3267 0.5 8.17578 0.625809 8.17578 0.767345V2.59158C8.17578 2.73312 8.3267 2.85893 8.49647 2.85893Z" fill="white"/>
<path id="Vector_6" d="M13.8354 1.85259C13.6845 1.75824 13.4959 1.80541 13.4015 1.9155L12.1942 3.42521C12.081 3.55102 12.1188 3.72401 12.2697 3.80264C12.3263 3.83409 12.3829 3.84982 12.4395 3.84982C12.5527 3.84982 12.647 3.80264 12.7036 3.72401L13.9109 2.2143C14.0241 2.10421 13.9863 1.93122 13.8354 1.85259Z" fill="white"/>
<path id="Vector_7" d="M4.66755 3.78676C4.72414 3.78676 4.78074 3.77103 4.83733 3.73958C4.98824 3.66095 5.02597 3.48796 4.93165 3.36215L3.76206 1.83671C3.66774 1.7109 3.46023 1.67945 3.30932 1.75808C3.1584 1.83671 3.12068 2.0097 3.215 2.13551L4.38459 3.66095C4.46004 3.7553 4.55436 3.78676 4.66755 3.78676Z" fill="white"/>
<path id="Vector_8" d="M2.38461 5.45384L0.479317 4.5889C0.328403 4.52599 0.120895 4.57317 0.0454379 4.69898C-0.0488837 4.82479 0.00770924 4.99778 0.177488 5.06068L2.08278 5.92562C2.13938 5.94135 2.17711 5.95708 2.2337 5.95708C2.34688 5.95708 2.46007 5.9099 2.51666 5.81554C2.59212 5.68973 2.53553 5.51674 2.38461 5.45384Z" fill="white"/>
<path id="Vector_9" d="M16.9667 4.69898C16.8913 4.57317 16.6838 4.52599 16.5328 4.5889L14.6087 5.45384C14.4578 5.51674 14.4012 5.68973 14.4766 5.81554C14.5332 5.9099 14.6464 5.95708 14.7596 5.95708C14.8162 5.95708 14.8728 5.94135 14.9105 5.92562L16.8347 5.06068C16.9856 4.99778 17.0422 4.82479 16.9667 4.69898Z" fill="white"/>
</g>
</g>
</g>
</svg>
