<svg width="40" height="40" viewBox="0 0 40 40" fill="none" xmlns="http://www.w3.org/2000/svg">
<g id="Icon">
<rect width="40" height="40" rx="20" fill="#FEE2E2"/>
<path id="Vector" d="M20.5 11C15.532 11 11.5 15.032 11.5 20C11.5 24.968 15.532 29 20.5 29C25.468 29 29.5 24.968 29.5 20C29.5 15.032 25.468 11 20.5 11ZM13.3 20C13.3 16.022 16.522 12.8 20.5 12.8C22.165 12.8 23.695 13.367 24.91 14.321L14.821 24.41C13.867 23.195 13.3 21.665 13.3 20ZM20.5 27.2C18.835 27.2 17.305 26.633 16.09 25.679L26.179 15.59C27.133 16.805 27.7 18.335 27.7 20C27.7 23.978 24.478 27.2 20.5 27.2Z" fill="#C43704"/>
</g>
</svg>
