<svg width="40" height="40" viewBox="0 0 40 40" fill="none" xmlns="http://www.w3.org/2000/svg">
<rect width="40" height="40" rx="20" fill="#FEE2E2"/>
<g clip-path="url(#clip0_4571_598)">
<path d="M30.371 12.0077C30.0473 11.6835 29.5222 11.6829 29.1986 12.0063L19.2516 21.927L15.6628 18.0292C15.3526 17.6926 14.8283 17.6708 14.4912 17.9808C14.1542 18.2909 14.1327 18.8155 14.4428 19.1524L18.6162 23.6848C18.769 23.8509 18.9829 23.9474 19.2084 23.9521C19.2145 23.9523 19.2204 23.9523 19.2262 23.9523C19.4453 23.9523 19.6562 23.8653 19.8115 23.7105L30.3693 13.1804C30.6938 12.857 30.6943 12.3319 30.371 12.0077Z" fill="#EF4444"/>
<path d="M30.1708 19.1708C29.7129 19.1708 29.3417 19.542 29.3417 20C29.3417 25.1512 25.1512 29.3417 20 29.3417C14.8491 29.3417 10.6583 25.1512 10.6583 20C10.6583 14.8491 14.8491 10.6583 20 10.6583C20.458 10.6583 20.8292 10.2871 20.8292 9.82917C20.8292 9.37116 20.458 9 20 9C13.9345 9 9 13.9345 9 20C9 26.0652 13.9345 31 20 31C26.0652 31 31 26.0652 31 20C31 19.542 30.6288 19.1708 30.1708 19.1708Z" fill="#EF4444"/>
</g>
<defs>
<clipPath id="clip0_4571_598">
<rect width="22" height="22" fill="white" transform="translate(9 9)"/>
</clipPath>
</defs>
</svg>
