<svg width="40" height="40" viewBox="0 0 40 40" fill="none" xmlns="http://www.w3.org/2000/svg">
<rect width="40" height="40" rx="20" fill="#FEE2E2"/>
<g clip-path="url(#clip0_4539_9636)">
<path d="M20 9C13.9203 9 9 13.9198 9 20C9 26.0798 13.9198 31 20 31C26.0797 31 31 26.0802 31 20C31 13.9202 26.0802 9 20 9ZM20 29.2812C14.8702 29.2812 10.7188 25.1302 10.7188 20C10.7188 14.8702 14.8698 10.7188 20 10.7188C25.1298 10.7188 29.2812 14.8698 29.2812 20C29.2812 25.1298 25.1302 29.2812 20 29.2812Z" fill="#EF4444"/>
<path d="M23.7635 22.5482L21.2154 20L23.7635 17.4519C24.0991 17.1163 24.0992 16.5722 23.7636 16.2366C23.4279 15.901 22.8838 15.901 22.5482 16.2366L20.0001 18.7847L17.4519 16.2366C17.1163 15.901 16.5721 15.901 16.2366 16.2366C15.901 16.5722 15.901 17.1163 16.2366 17.4519L18.7847 20L16.2366 22.5482C15.901 22.8838 15.9009 23.4279 16.2366 23.7635C16.5723 24.0992 17.1164 24.099 17.4519 23.7635L20.0001 21.2154L22.5482 23.7635C22.8837 24.0991 23.4279 24.0991 23.7636 23.7635C24.0992 23.4279 24.0992 22.8838 23.7635 22.5482Z" fill="#EF4444"/>
</g>
<defs>
<clipPath id="clip0_4539_9636">
<rect width="22" height="22" fill="white" transform="translate(9 9)"/>
</clipPath>
</defs>
</svg>
