<svg width="40" height="40" viewBox="0 0 40 40" fill="none" xmlns="http://www.w3.org/2000/svg">
<rect width="40" height="40" rx="20" fill="#FEE2E2"/>
<path d="M20.75 19C20.75 18.5858 20.4142 18.25 20 18.25C19.5858 18.25 19.25 18.5858 19.25 19V25C19.25 25.4142 19.5858 25.75 20 25.75C20.4142 25.75 20.75 25.4142 20.75 25V19Z" fill="#EF4444"/>
<path fill-rule="evenodd" clip-rule="evenodd" d="M20 9.25C14.0629 9.25 9.25 14.0629 9.25 20C9.25 25.9371 14.0629 30.75 20 30.75C25.9371 30.75 30.75 25.9371 30.75 20C30.75 14.0629 25.9371 9.25 20 9.25ZM10.75 20C10.75 14.8914 14.8914 10.75 20 10.75C25.1086 10.75 29.25 14.8914 29.25 20C29.25 25.1086 25.1086 29.25 20 29.25C14.8914 29.25 10.75 25.1086 10.75 20Z" fill="#EF4444"/>
<path d="M21 16C21 16.5523 20.5523 17 20 17C19.4477 17 19 16.5523 19 16C19 15.4477 19.4477 15 20 15C20.5523 15 21 15.4477 21 16Z" fill="#EF4444"/>
</svg>
