<svg width="40" height="40" viewBox="0 0 40 40" fill="none" xmlns="http://www.w3.org/2000/svg">
<rect width="40" height="40" rx="20" fill="#FFE5BD"/>
<g clip-path="url(#clip0_4571_589)">
<path d="M19.9999 22.4985C19.6548 22.4985 19.375 22.2187 19.375 21.8736V17.4992C19.375 17.1541 19.6548 16.8743 19.9999 16.8743C20.3451 16.8743 20.6248 17.1541 20.6248 17.4992V21.8736C20.6248 22.2187 20.3451 22.4985 19.9999 22.4985Z" fill="#FFA112"/>
<path d="M29.7355 25.636L21.9557 12.6698C21.073 11.1981 18.9289 11.1952 18.0445 12.6698L10.2646 25.636C9.52892 26.8622 10.4141 28.4352 11.8496 28.4352H28.1505C29.5862 28.4352 30.471 26.862 29.7355 25.636ZM27.5 27H12.5C12.0344 27 11.6116 26.396 11.8496 26L19.1162 14C19.5153 13.3347 20.4843 13.334 20.8839 14L28 26C28.2377 26.3956 27.9661 27 27.5 27Z" fill="#FFA112"/>
<path d="M19.9999 24.9982C20.5176 24.9982 20.9372 24.5785 20.9372 24.0608C20.9372 23.5431 20.5176 23.1234 19.9999 23.1234C19.4822 23.1234 19.0625 23.5431 19.0625 24.0608C19.0625 24.5785 19.4822 24.9982 19.9999 24.9982Z" fill="#FFA112"/>
</g>
<defs>
<clipPath id="clip0_4571_589">
<rect width="20" height="20" fill="white" transform="translate(10 10)"/>
</clipPath>
</defs>
</svg>
