<svg width="40" height="40" viewBox="0 0 40 40" fill="none" xmlns="http://www.w3.org/2000/svg">
<circle cx="20" cy="20" r="20" fill="#C43704"/>
<path d="M28.1264 14.2738C27.9391 14.0659 27.6448 14.0659 27.4574 14.2738L17.6906 24.784C17.6103 24.8731 17.5033 24.8731 17.423 24.784L12.5797 19.5586C12.3924 19.3508 12.098 19.3508 11.9107 19.5586C11.7234 19.7664 11.7234 20.093 11.9107 20.3008L16.754 25.5263C16.9681 25.7638 17.2624 25.8826 17.53 25.8826C17.8244 25.8826 18.092 25.7638 18.306 25.5263L28.0729 15.016C28.287 14.8082 28.287 14.4816 28.1264 14.2738Z" fill="white"/>
<path fill-rule="evenodd" clip-rule="evenodd" d="M29.0302 13.5192L29.0574 13.5545C29.5496 14.1916 29.5671 15.1776 28.9194 15.8334L19.173 26.3217C18.7464 26.7909 18.1686 27.0591 17.53 27.0591C16.9338 27.0591 16.3244 26.8027 15.8866 26.3211L11.0367 21.0885C10.446 20.4331 10.4461 19.4264 11.0368 18.771C11.6891 18.0473 12.7912 18.0447 13.4466 18.7632L17.5577 23.1987L26.5912 13.4777C27.2467 12.7598 28.3483 12.7626 29.0003 13.4861L29.0302 13.5192ZM12.5797 19.5586C12.3924 19.3508 12.098 19.3508 11.9107 19.5586C11.747 19.7403 11.7264 20.0127 11.8489 20.2172C11.8513 20.2212 11.8538 20.2252 11.8563 20.2291C11.8722 20.2542 11.8904 20.2782 11.9107 20.3008L16.754 25.5263C16.9681 25.7638 17.2624 25.8826 17.53 25.8826C17.8244 25.8826 18.092 25.7638 18.306 25.5263L28.0729 15.016C28.1037 14.986 28.1302 14.9536 28.1523 14.9194C28.155 14.9153 28.1576 14.9112 28.1601 14.907C28.2828 14.7058 28.261 14.448 28.1264 14.2738C27.9391 14.0659 27.6448 14.0659 27.4574 14.2738L17.6906 24.784C17.6564 24.822 17.6174 24.8438 17.5776 24.8494C17.5706 24.8504 17.5636 24.8509 17.5566 24.8509C17.5477 24.8508 17.5389 24.85 17.53 24.8484C17.5238 24.8473 17.5175 24.8457 17.5113 24.8438C17.5063 24.8422 17.5013 24.8404 17.4964 24.8383C17.4706 24.8273 17.4457 24.8093 17.423 24.784L12.5797 19.5586Z" fill="white"/>
</svg>
