<svg width="15" height="17" viewBox="0 0 15 17" fill="none" xmlns="http://www.w3.org/2000/svg">
<g id="Vector">
<path fill-rule="evenodd" clip-rule="evenodd" d="M2.25 3.65909C1.83579 3.65909 1.5 3.9847 1.5 4.38636V14.5682C1.5 14.9698 1.83579 15.2955 2.25 15.2955H12.75C13.1642 15.2955 13.5 14.9698 13.5 14.5682V4.38636C13.5 3.9847 13.1642 3.65909 12.75 3.65909H2.25ZM0 4.38636C0 3.18138 1.00736 2.20455 2.25 2.20455H12.75C13.9926 2.20455 15 3.18138 15 4.38636V14.5682C15 15.7732 13.9926 16.75 12.75 16.75H2.25C1.00736 16.75 0 15.7732 0 14.5682V4.38636Z" fill="#64748B"/>
<path fill-rule="evenodd" clip-rule="evenodd" d="M10.5 0.75C10.9142 0.75 11.25 1.07561 11.25 1.47727V4.38636C11.25 4.78803 10.9142 5.11364 10.5 5.11364C10.0858 5.11364 9.75 4.78803 9.75 4.38636V1.47727C9.75 1.07561 10.0858 0.75 10.5 0.75Z" fill="#64748B"/>
<path fill-rule="evenodd" clip-rule="evenodd" d="M4.5 0.75C4.91421 0.75 5.25 1.07561 5.25 1.47727V4.38636C5.25 4.78803 4.91421 5.11364 4.5 5.11364C4.08579 5.11364 3.75 4.78803 3.75 4.38636V1.47727C3.75 1.07561 4.08579 0.75 4.5 0.75Z" fill="#64748B"/>
<path fill-rule="evenodd" clip-rule="evenodd" d="M0 7.29545C0 6.89379 0.335786 6.56818 0.75 6.56818H14.25C14.6642 6.56818 15 6.89379 15 7.29545C15 7.69712 14.6642 8.02273 14.25 8.02273H0.75C0.335786 8.02273 0 7.69712 0 7.29545Z" fill="#64748B"/>
</g>
</svg>
