<svg width="19" height="18" viewBox="0 0 19 18" fill="none" xmlns="http://www.w3.org/2000/svg">
<g id="edit 1" clip-path="url(#clip0_1912_30788)">
<path id="Vector" d="M17.1133 11.3074C16.8657 11.3074 16.665 11.5081 16.665 11.7557V15.736C16.6641 16.4785 16.0626 17.0802 15.3201 17.0809H2.74147C1.99898 17.0802 1.39746 16.4785 1.39659 15.736V4.05397C1.39746 3.31166 1.99898 2.70996 2.74147 2.70909H6.72182C6.96943 2.70909 7.17011 2.50841 7.17011 2.26079C7.17011 2.01336 6.96943 1.8125 6.72182 1.8125H2.74147C1.50411 1.8139 0.501401 2.81661 0.5 4.05397V15.7362C0.501401 16.9736 1.50411 17.9763 2.74147 17.9777H15.3201C16.5575 17.9763 17.5602 16.9736 17.5616 15.7362V11.7557C17.5616 11.5081 17.3609 11.3074 17.1133 11.3074Z" fill="#18A26F"/>
<path id="Vector_2" d="M17.384 0.65924C16.5962 -0.128601 15.3189 -0.128601 14.5311 0.65924L6.53324 8.65707C6.47843 8.71188 6.43886 8.77983 6.41819 8.85442L5.36646 12.6514C5.3232 12.8071 5.36716 12.9738 5.48133 13.0882C5.59568 13.2023 5.76239 13.2463 5.91807 13.2032L9.71508 12.1513C9.78967 12.1306 9.85762 12.0911 9.91243 12.0363L17.9101 4.03825C18.6967 3.24988 18.6967 1.97365 17.9101 1.18528L17.384 0.65924ZM7.51003 8.94846L14.0556 2.40268L16.1666 4.51369L9.62086 11.0595L7.51003 8.94846ZM7.08836 9.79461L8.77489 11.4813L6.44201 12.1277L7.08836 9.79461ZM17.2762 3.40434L16.8007 3.87977L14.6896 1.76859L15.1652 1.29315C15.6028 0.855543 16.3123 0.855543 16.75 1.29315L17.2762 1.8192C17.7131 2.25733 17.7131 2.96637 17.2762 3.40434Z" fill="#18A26F"/>
</g>
<defs>
<clipPath id="clip0_1912_30788">
<rect width="18" height="18" fill="white" transform="translate(0.5)"/>
</clipPath>
</defs>
</svg>
