<svg width="22" height="22" viewBox="0 0 22 22" fill="none" xmlns="http://www.w3.org/2000/svg">
<g id="x (1) 1">
<path id="Vector (Stroke)" fill-rule="evenodd" clip-rule="evenodd" d="M4.85149 4.85149C5.20947 4.49351 5.78988 4.49351 6.14786 4.85149L10.9997 9.70331L15.8515 4.85149C16.2095 4.49351 16.7899 4.49351 17.1479 4.85149C17.5058 5.20947 17.5058 5.78988 17.1479 6.14786L12.296 10.9997L17.1479 15.8515C17.5058 16.2095 17.5058 16.7899 17.1479 17.1479C16.7899 17.5058 16.2095 17.5058 15.8515 17.1479L10.9997 12.296L6.14786 17.1479C5.78988 17.5058 5.20947 17.5058 4.85149 17.1479C4.49351 16.7899 4.49351 16.2095 4.85149 15.8515L9.70331 10.9997L4.85149 6.14786C4.49351 5.78988 4.49351 5.20947 4.85149 4.85149Z" fill="#B1B1B1"/>
</g>
</svg>
