<svg width="24" height="24" viewBox="0 0 24 24" fill="none" xmlns="http://www.w3.org/2000/svg">
<path d="M10.4059 3.32843C10.8035 3.32843 11.1259 3.00606 11.1259 2.60843C11.1259 2.21078 10.8035 1.88843 10.4059 1.88843H4.88954C3.16639 1.88843 1.76953 3.2853 1.76953 5.00843V18.9916C1.76953 20.7147 3.16639 22.1116 4.88952 22.1116H10.4059C10.8035 22.1116 11.1259 21.7893 11.1259 21.3916C11.1259 20.994 10.8035 20.6716 10.4059 20.6716H4.88952C3.9617 20.6716 3.20952 19.9195 3.20952 18.9916L3.20954 5.00843C3.20954 4.08059 3.9617 3.32843 4.88954 3.32843H10.4059Z" fill="#C43704"/>
<path d="M17.285 6.44209C17.0038 6.16091 16.5479 6.16091 16.2667 6.44209C15.9855 6.72327 15.9855 7.17913 16.2667 7.46031L19.8308 11.0244H6.71902C6.32139 11.0244 5.99902 11.3468 5.99902 11.7444C5.99902 12.142 6.32139 12.4644 6.71902 12.4644H19.7811L16.2668 15.9787C15.9857 16.2598 15.9857 16.7157 16.2668 16.9969C16.548 17.2781 17.0039 17.2781 17.2851 16.9969L22.0191 12.2629C22.1597 12.1223 22.23 11.9379 22.23 11.7536L22.23 11.7444C22.23 11.7337 22.2298 11.723 22.2293 11.7124C22.2366 11.5192 22.1665 11.3236 22.019 11.1761L17.285 6.44209Z" fill="#C43704"/>
</svg>
