<svg version="1.2" xmlns="http://www.w3.org/2000/svg" viewBox="0 0 491 392" width="491" height="392">
	<title>Group 1000004374-svg</title>
	<style>
		.s0 { fill: #ebebeb } 
		.s1 { fill: #e0e0e0 } 
		.s2 { fill: #f0f0f0 } 
		.s3 { fill: #ffffff } 
		.s4 { fill: #f5f5f5 } 
		.s5 { fill: #000000 } 
		.s6 { fill: #c43704 } 
		.s7 { opacity: .7;fill: #ffffff } 
		.s8 { opacity: .1;fill: #000000 } 
		.s9 { opacity: .8;fill: #ffffff } 
		.s10 { opacity: .4;fill: #ffffff } 
		.s11 { fill: #263238 } 
		.s12 { opacity: .6;fill: #ffffff } 
		.s13 { opacity: .2;fill: #ffffff } 
		.s14 { opacity: .2;fill: #000000 } 
		.s15 { fill: #ce7a63 } 
		.s16 { opacity: .5;fill: #ffffff } 
		.s17 { opacity: .5;fill: #000000 } 
		.s18 { fill: #ba4d3c } 
		.s19 { opacity: .1;fill: #ffffff } 
	</style>
	<path id="Layer" class="s0" d="m491 336.5h-491v0.3h491z"/>
	<path id="Layer" class="s0" d="m441.8 352.3h-32.5v0.3h32.5z"/>
	<path id="Layer" class="s0" d="m325.3 355h-8.6v0.2h8.6z"/>
	<path id="Layer" class="s0" d="m408.3 343.2h-18.8v0.3h18.8z"/>
	<path id="Layer" class="s0" d="m93.9 344.9h-42.4v0.2h42.4z"/>
	<path id="Layer" class="s0" d="m108.9 344.9h-6.2v0.2h6.2z"/>
	<path id="Layer" class="s0" d="m221.1 349h-92v0.2h92z"/>
	<path id="Layer" fill-rule="evenodd" class="s0" d="m232.7 292.7h-189.6c-1.5 0-2.9-0.6-3.9-1.6-1.1-1.1-1.7-2.5-1.7-4v-266.5c0-1.5 0.6-2.9 1.7-4 1-1 2.4-1.6 3.9-1.6h189.6c1.5 0 2.9 0.6 4 1.7 1.1 1 1.6 2.4 1.6 3.9v266.5c0 1.5-0.5 2.9-1.6 4-1.1 1-2.5 1.6-4 1.6zm-189.6-277.5c-1.4 0-2.8 0.6-3.8 1.6-1 1-1.5 2.3-1.5 3.8v266.5c0 1.4 0.5 2.8 1.5 3.8 1 1 2.4 1.6 3.8 1.6h189.6c1.5 0 2.8-0.6 3.8-1.6 1-1 1.6-2.4 1.6-3.8v-266.5c0-1.5-0.6-2.8-1.6-3.8-1-1-2.3-1.6-3.8-1.6z"/>
	<path id="Layer" fill-rule="evenodd" class="s0" d="m445.1 292.7h-189.6c-1.5 0-2.9-0.6-3.9-1.6-1.1-1.1-1.7-2.5-1.7-4v-266.5c0-1.5 0.6-2.9 1.7-4 1-1 2.4-1.6 3.9-1.6h189.6c1.5 0 2.9 0.6 4 1.6 1 1.1 1.6 2.5 1.6 4v266.5c0 1.5-0.6 2.9-1.6 4-1 1-2.5 1.6-4 1.6zm-189.6-277.5c-1.4 0-2.8 0.6-3.8 1.6-1 1-1.5 2.3-1.5 3.8v266.5c0 1.4 0.5 2.8 1.5 3.8 1 1 2.4 1.6 3.8 1.6h189.6c1.5 0 2.8-0.6 3.8-1.6 1-1 1.6-2.4 1.6-3.8v-266.5c0-1.5-0.6-2.8-1.6-3.8-1-1-2.3-1.6-3.8-1.6z"/>
	<path id="Layer" class="s1" d="m293.9 181h97.8v-108.2h-97.8z"/>
	<path id="Layer" class="s2" d="m290.8 181h101.5v-108.2h-101.5z"/>
	<path id="Layer" class="s3" d="m295.1 176h93v-99.7h-93z"/>
	<path id="Layer" class="s1" d="m295.1 176h2.7v-99.7h-2.7z"/>
	<path id="Layer" class="s1" d="m297.5 148v2.7h90.9v-2.7z"/>
	<path id="Layer" class="s2" d="m295.1 148h94.5v-4.5h-94.5z"/>
	<path id="Layer" class="s1" d="m192.9 100c10.2-4.2 15-16 10.8-26.2-4.2-10.2-15.9-15-26.1-10.8-10.3 4.2-15.1 15.9-10.9 26.2 4.2 10.2 16 15 26.2 10.8z"/>
	<path id="Layer" class="s2" d="m187.3 98.4c9.3-1.2 16-9.7 14.8-19-1.1-9.3-9.6-16-19-14.8-9.3 1.1-15.9 9.6-14.8 19 1.2 9.3 9.7 15.9 19 14.8z"/>
	<path id="Layer" class="s2" d="m184.4 93.2v-11.9l-7.9 4.4"/>
	<path id="Layer" class="s1" d="m184.4 94q-0.3 0-0.6-0.2-0.2-0.3-0.2-0.6v-10.4l-6.7 3.7q-0.1 0.1-0.3 0.1-0.1 0-0.3 0-0.2-0.1-0.3-0.2-0.1-0.1-0.2-0.2-0.1-0.2-0.1-0.3 0-0.2 0-0.3 0-0.2 0.2-0.3 0.1-0.2 0.2-0.3l7.9-4.4q0.2-0.1 0.4-0.1 0.2 0 0.4 0.1 0.2 0.1 0.3 0.3 0.1 0.2 0.1 0.4v11.9q0 0.3-0.2 0.6-0.3 0.2-0.6 0.2z"/>
	<path id="Layer" class="s4" d="m92.7 326.9h-21.2v8.4h21.2z"/>
	<path id="Layer" class="s4" d="m69.7 326.9h-9.7v8.4h9.7z"/>
	<path id="Layer" class="s4" d="m115.8 326.9h-21.2v8.4h21.2z"/>
	<path id="Layer" class="s4" d="m138.9 326.9h-21.2v8.4h21.2z"/>
	<path id="Layer" class="s4" d="m161.9 326.9h-21.2v8.4h21.2z"/>
	<path id="Layer" class="s4" d="m185 326.9h-21.2v8.4h21.2z"/>
	<path id="Layer" class="s4" d="m208.1 326.9h-21.2v8.4h21.2z"/>
	<path id="Layer" class="s4" d="m231.1 326.9h-21.2v8.4h21.2z"/>
	<path id="Layer" class="s4" d="m254.2 326.9h-21.2v8.4h21.2z"/>
	<path id="Layer" class="s4" d="m277.3 326.9h-21.3v8.4h21.3z"/>
	<path id="Layer" class="s4" d="m300.3 326.9h-21.2v8.4h21.2z"/>
	<path id="Layer" class="s4" d="m323.4 326.9h-21.2v8.4h21.2z"/>
	<path id="Layer" class="s4" d="m346.4 326.9h-21.2v8.4h21.2z"/>
	<path id="Layer" class="s4" d="m369.5 326.9h-21.2v8.4h21.2z"/>
	<path id="Layer" class="s4" d="m392.6 326.9h-21.2v8.4h21.2z"/>
	<path id="Layer" class="s4" d="m415.6 326.9h-21.2v8.4h21.2z"/>
	<path id="Layer" class="s4" d="m427.2 326.9h-9.7v8.4h9.7z"/>
	<path id="Layer" class="s4" d="m81.2 316.4h-21.2v8.4h21.2z"/>
	<path id="Layer" class="s4" d="m104.3 316.4h-21.2v8.4h21.2z"/>
	<path id="Layer" class="s4" d="m127.3 316.4h-21.2v8.4h21.2z"/>
	<path id="Layer" class="s4" d="m150.4 316.4h-21.2v8.4h21.2z"/>
	<path id="Layer" class="s4" d="m173.5 316.4h-21.2v8.4h21.2z"/>
	<path id="Layer" class="s4" d="m196.5 316.4h-21.2v8.4h21.2z"/>
	<path id="Layer" class="s4" d="m219.6 316.4h-21.2v8.4h21.2z"/>
	<path id="Layer" class="s4" d="m242.7 316.4h-21.2v8.4h21.2z"/>
	<path id="Layer" class="s4" d="m265.7 316.4h-21.2v8.4h21.2z"/>
	<path id="Layer" class="s4" d="m288.8 316.4h-21.2v8.4h21.2z"/>
	<path id="Layer" class="s4" d="m311.9 316.4h-21.3v8.4h21.3z"/>
	<path id="Layer" class="s4" d="m334.9 316.4h-21.2v8.4h21.2z"/>
	<path id="Layer" class="s4" d="m358 316.4h-21.2v8.4h21.2z"/>
	<path id="Layer" class="s4" d="m381 316.4h-21.2v8.4h21.2z"/>
	<path id="Layer" class="s4" d="m404.1 316.4h-21.2v8.4h21.2z"/>
	<path id="Layer" class="s4" d="m427.2 316.4h-21.2v8.4h21.2z"/>
	<path id="Layer" class="s4" d="m92.7 305.9h-21.2v8.4h21.2z"/>
	<path id="Layer" class="s4" d="m69.7 305.9h-9.7v8.4h9.7z"/>
	<path id="Layer" class="s4" d="m115.8 305.9h-21.2v8.4h21.2z"/>
	<path id="Layer" class="s4" d="m138.9 305.9h-21.2v8.4h21.2z"/>
	<path id="Layer" class="s4" d="m161.9 305.9h-21.2v8.4h21.2z"/>
	<path id="Layer" class="s4" d="m185 305.9h-21.2v8.4h21.2z"/>
	<path id="Layer" class="s4" d="m208.1 305.9h-21.2v8.4h21.2z"/>
	<path id="Layer" class="s4" d="m231.1 305.9h-21.2v8.4h21.2z"/>
	<path id="Layer" class="s4" d="m254.2 305.9h-21.2v8.4h21.2z"/>
	<path id="Layer" class="s4" d="m277.3 305.9h-21.3v8.4h21.3z"/>
	<path id="Layer" class="s4" d="m300.3 305.9h-21.2v8.4h21.2z"/>
	<path id="Layer" class="s4" d="m323.4 305.9h-21.2v8.4h21.2z"/>
	<path id="Layer" class="s4" d="m346.4 305.9h-21.2v8.4h21.2z"/>
	<path id="Layer" class="s4" d="m369.5 305.9h-21.2v8.4h21.2z"/>
	<path id="Layer" class="s4" d="m392.6 305.9h-21.2v8.4h21.2z"/>
	<path id="Layer" class="s4" d="m415.6 305.9h-21.2v8.4h21.2z"/>
	<path id="Layer" class="s4" d="m427.2 305.9h-9.7v8.4h9.7z"/>
	<path id="Layer" class="s4" d="m81.2 295.4h-21.2v8.4h21.2z"/>
	<path id="Layer" class="s4" d="m104.3 295.4h-21.2v8.4h21.2z"/>
	<path id="Layer" class="s4" d="m127.3 295.4h-21.2v8.4h21.2z"/>
	<path id="Layer" class="s4" d="m150.4 295.4h-21.2v8.4h21.2z"/>
	<path id="Layer" class="s4" d="m173.5 295.4h-21.2v8.4h21.2z"/>
	<path id="Layer" class="s4" d="m196.5 295.4h-21.2v8.4h21.2z"/>
	<path id="Layer" class="s4" d="m219.6 295.4h-21.2v8.4h21.2z"/>
	<path id="Layer" class="s4" d="m242.7 295.4h-21.2v8.4h21.2z"/>
	<path id="Layer" class="s4" d="m265.7 295.4h-21.2v8.4h21.2z"/>
	<path id="Layer" class="s4" d="m288.8 295.4h-21.2v8.4h21.2z"/>
	<path id="Layer" class="s4" d="m311.9 295.4h-21.3v8.4h21.3z"/>
	<path id="Layer" class="s4" d="m334.9 295.4h-21.2v8.4h21.2z"/>
	<path id="Layer" class="s4" d="m358 295.4h-21.2v8.4h21.2z"/>
	<path id="Layer" class="s4" d="m381 295.4h-21.2v8.4h21.2z"/>
	<path id="Layer" class="s4" d="m404.1 295.4h-21.2v8.4h21.2z"/>
	<path id="Layer" class="s4" d="m427.2 295.4h-21.2v8.4h21.2z"/>
	<path id="Layer" class="s4" d="m92.7 284.9h-21.2v8.4h21.2z"/>
	<path id="Layer" class="s4" d="m69.7 284.9h-9.7v8.4h9.7z"/>
	<path id="Layer" class="s4" d="m115.8 284.9h-21.2v8.4h21.2z"/>
	<path id="Layer" class="s4" d="m138.9 284.9h-21.2v8.4h21.2z"/>
	<path id="Layer" class="s4" d="m161.9 284.9h-21.2v8.4h21.2z"/>
	<path id="Layer" class="s4" d="m185 284.9h-21.2v8.4h21.2z"/>
	<path id="Layer" class="s4" d="m208.1 284.9h-21.2v8.4h21.2z"/>
	<path id="Layer" class="s4" d="m231.1 284.9h-21.2v8.4h21.2z"/>
	<path id="Layer" class="s4" d="m254.2 284.9h-21.2v8.4h21.2z"/>
	<path id="Layer" class="s4" d="m277.3 284.9h-21.3v8.4h21.3z"/>
	<path id="Layer" class="s4" d="m300.3 284.9h-21.2v8.4h21.2z"/>
	<path id="Layer" class="s4" d="m323.4 284.9h-21.2v8.4h21.2z"/>
	<path id="Layer" class="s4" d="m346.4 284.9h-21.2v8.4h21.2z"/>
	<path id="Layer" class="s4" d="m369.5 284.9h-21.2v8.4h21.2z"/>
	<path id="Layer" class="s4" d="m392.6 284.9h-21.2v8.4h21.2z"/>
	<path id="Layer" class="s4" d="m415.6 284.9h-21.2v8.4h21.2z"/>
	<path id="Layer" class="s4" d="m427.2 284.9h-9.7v8.4h9.7z"/>
	<path id="Layer" class="s4" d="m81.2 274.4h-21.2v8.4h21.2z"/>
	<path id="Layer" class="s4" d="m104.3 274.4h-21.2v8.4h21.2z"/>
	<path id="Layer" class="s4" d="m127.3 274.4h-21.2v8.4h21.2z"/>
	<path id="Layer" class="s4" d="m150.4 274.4h-21.2v8.4h21.2z"/>
	<path id="Layer" class="s4" d="m173.5 274.4h-21.2v8.4h21.2z"/>
	<path id="Layer" class="s4" d="m196.5 274.4h-21.2v8.4h21.2z"/>
	<path id="Layer" class="s4" d="m219.6 274.4h-21.2v8.4h21.2z"/>
	<path id="Layer" class="s4" d="m242.7 274.4h-21.2v8.4h21.2z"/>
	<path id="Layer" class="s4" d="m265.7 274.4h-21.2v8.4h21.2z"/>
	<path id="Layer" class="s4" d="m288.8 274.4h-21.2v8.4h21.2z"/>
	<path id="Layer" class="s4" d="m311.9 274.4h-21.3v8.4h21.3z"/>
	<path id="Layer" class="s4" d="m334.9 274.4h-21.2v8.4h21.2z"/>
	<path id="Layer" class="s4" d="m358 274.4h-21.2v8.4h21.2z"/>
	<path id="Layer" class="s4" d="m381 274.4h-21.2v8.4h21.2z"/>
	<path id="Layer" class="s4" d="m404.1 274.4h-21.2v8.4h21.2z"/>
	<path id="Layer" class="s4" d="m427.2 274.4h-21.2v8.4h21.2z"/>
	<path id="Layer" class="s4" d="m92.7 263.9h-21.2v8.4h21.2z"/>
	<path id="Layer" class="s4" d="m69.7 263.9h-9.7v8.4h9.7z"/>
	<path id="Layer" class="s4" d="m115.8 263.9h-21.2v8.4h21.2z"/>
	<path id="Layer" class="s4" d="m138.9 263.9h-21.2v8.4h21.2z"/>
	<path id="Layer" class="s4" d="m161.9 263.9h-21.2v8.4h21.2z"/>
	<path id="Layer" class="s4" d="m185 263.9h-21.2v8.4h21.2z"/>
	<path id="Layer" class="s4" d="m208.1 263.9h-21.2v8.4h21.2z"/>
	<path id="Layer" class="s4" d="m231.1 263.9h-21.2v8.4h21.2z"/>
	<path id="Layer" class="s4" d="m254.2 263.9h-21.2v8.4h21.2z"/>
	<path id="Layer" class="s4" d="m277.3 263.9h-21.3v8.4h21.3z"/>
	<path id="Layer" class="s4" d="m300.3 263.9h-21.2v8.4h21.2z"/>
	<path id="Layer" class="s4" d="m323.4 263.9h-21.2v8.4h21.2z"/>
	<path id="Layer" class="s4" d="m346.4 263.9h-21.2v8.4h21.2z"/>
	<path id="Layer" class="s4" d="m369.5 263.9h-21.2v8.4h21.2z"/>
	<path id="Layer" class="s4" d="m392.6 263.9h-21.2v8.4h21.2z"/>
	<path id="Layer" class="s4" d="m415.6 263.9h-21.2v8.4h21.2z"/>
	<path id="Layer" class="s4" d="m427.2 263.9h-9.7v8.4h9.7z"/>
	<path id="Layer" class="s4" d="m81.2 253.4h-21.2v8.4h21.2z"/>
	<path id="Layer" class="s4" d="m104.3 253.4h-21.2v8.4h21.2z"/>
	<path id="Layer" class="s4" d="m127.3 253.4h-21.2v8.4h21.2z"/>
	<path id="Layer" class="s4" d="m150.4 253.4h-21.2v8.4h21.2z"/>
	<path id="Layer" class="s4" d="m173.5 253.4h-21.2v8.4h21.2z"/>
	<path id="Layer" class="s4" d="m196.5 253.4h-21.2v8.4h21.2z"/>
	<path id="Layer" class="s4" d="m219.6 253.4h-21.2v8.4h21.2z"/>
	<path id="Layer" class="s4" d="m242.7 253.4h-21.2v8.4h21.2z"/>
	<path id="Layer" class="s4" d="m265.7 253.4h-21.2v8.4h21.2z"/>
	<path id="Layer" class="s4" d="m288.8 253.4h-21.2v8.4h21.2z"/>
	<path id="Layer" class="s4" d="m311.9 253.4h-21.3v8.4h21.3z"/>
	<path id="Layer" class="s4" d="m334.9 253.4h-21.2v8.4h21.2z"/>
	<path id="Layer" class="s4" d="m358 253.4h-21.2v8.4h21.2z"/>
	<path id="Layer" class="s4" d="m381 253.4h-21.2v8.4h21.2z"/>
	<path id="Layer" class="s4" d="m404.1 253.4h-21.2v8.4h21.2z"/>
	<path id="Layer" class="s4" d="m427.2 253.4h-21.2v8.4h21.2z"/>
	<path id="Layer" class="s4" d="m92.7 242.9h-21.2v8.4h21.2z"/>
	<path id="Layer" class="s4" d="m69.7 242.9h-9.7v8.4h9.7z"/>
	<path id="Layer" class="s4" d="m115.8 242.9h-21.2v8.4h21.2z"/>
	<path id="Layer" class="s4" d="m138.9 242.9h-21.2v8.4h21.2z"/>
	<path id="Layer" class="s4" d="m161.9 242.9h-21.2v8.4h21.2z"/>
	<path id="Layer" class="s4" d="m185 242.9h-21.2v8.4h21.2z"/>
	<path id="Layer" class="s4" d="m208.1 242.9h-21.2v8.4h21.2z"/>
	<path id="Layer" class="s4" d="m231.1 242.9h-21.2v8.4h21.2z"/>
	<path id="Layer" class="s4" d="m254.2 242.9h-21.2v8.4h21.2z"/>
	<path id="Layer" class="s4" d="m277.3 242.9h-21.3v8.4h21.3z"/>
	<path id="Layer" class="s4" d="m300.3 242.9h-21.2v8.4h21.2z"/>
	<path id="Layer" class="s4" d="m323.4 242.9h-21.2v8.4h21.2z"/>
	<path id="Layer" class="s4" d="m346.4 242.9h-21.2v8.4h21.2z"/>
	<path id="Layer" class="s4" d="m369.5 242.9h-21.2v8.4h21.2z"/>
	<path id="Layer" class="s4" d="m392.6 242.9h-21.2v8.4h21.2z"/>
	<path id="Layer" class="s4" d="m415.6 242.9h-21.2v8.4h21.2z"/>
	<path id="Layer" class="s4" d="m427.2 242.9h-9.7v8.4h9.7z"/>
	<path id="Layer" class="s4" d="m81.2 232.4h-21.2v8.4h21.2z"/>
	<path id="Layer" class="s4" d="m104.3 232.4h-21.2v8.4h21.2z"/>
	<path id="Layer" class="s4" d="m127.3 232.4h-21.2v8.4h21.2z"/>
	<path id="Layer" class="s4" d="m150.4 232.4h-21.2v8.4h21.2z"/>
	<path id="Layer" class="s4" d="m173.5 232.4h-21.2v8.4h21.2z"/>
	<path id="Layer" class="s4" d="m196.5 232.4h-21.2v8.4h21.2z"/>
	<path id="Layer" class="s4" d="m219.6 232.4h-21.2v8.4h21.2z"/>
	<path id="Layer" class="s4" d="m242.7 232.4h-21.2v8.4h21.2z"/>
	<path id="Layer" class="s4" d="m265.7 232.4h-21.2v8.4h21.2z"/>
	<path id="Layer" class="s4" d="m288.8 232.4h-21.2v8.4h21.2z"/>
	<path id="Layer" class="s4" d="m311.9 232.4h-21.3v8.4h21.3z"/>
	<path id="Layer" class="s4" d="m334.9 232.4h-21.2v8.4h21.2z"/>
	<path id="Layer" class="s4" d="m358 232.4h-21.2v8.4h21.2z"/>
	<path id="Layer" class="s4" d="m381 232.4h-21.2v8.4h21.2z"/>
	<path id="Layer" class="s4" d="m404.1 232.4h-21.2v8.4h21.2z"/>
	<path id="Layer" class="s4" d="m427.2 232.4h-21.2v8.4h21.2z"/>
	<path id="Layer" class="s4" d="m92.7 221.9h-21.2v8.4h21.2z"/>
	<path id="Layer" class="s4" d="m69.7 221.9h-9.7v8.4h9.7z"/>
	<path id="Layer" class="s4" d="m115.8 221.9h-21.2v8.4h21.2z"/>
	<path id="Layer" class="s4" d="m138.9 221.9h-21.2v8.4h21.2z"/>
	<path id="Layer" class="s4" d="m161.9 221.9h-21.2v8.4h21.2z"/>
	<path id="Layer" class="s4" d="m185 221.9h-21.2v8.4h21.2z"/>
	<path id="Layer" class="s4" d="m208.1 221.9h-21.2v8.4h21.2z"/>
	<path id="Layer" class="s4" d="m231.1 221.9h-21.2v8.4h21.2z"/>
	<path id="Layer" class="s4" d="m254.2 221.9h-21.2v8.4h21.2z"/>
	<path id="Layer" class="s4" d="m277.3 221.9h-21.3v8.4h21.3z"/>
	<path id="Layer" class="s4" d="m300.3 221.9h-21.2v8.4h21.2z"/>
	<path id="Layer" class="s4" d="m323.4 221.9h-21.2v8.4h21.2z"/>
	<path id="Layer" class="s4" d="m346.4 221.9h-21.2v8.4h21.2z"/>
	<path id="Layer" class="s4" d="m369.5 221.9h-21.2v8.4h21.2z"/>
	<path id="Layer" class="s4" d="m392.6 221.9h-21.2v8.4h21.2z"/>
	<path id="Layer" class="s4" d="m415.6 221.9h-21.2v8.4h21.2z"/>
	<path id="Layer" class="s4" d="m427.2 221.9h-9.7v8.4h9.7z"/>
	<path id="Layer" class="s4" d="m81.2 211.4h-21.2v8.3h21.2z"/>
	<path id="Layer" class="s4" d="m104.3 211.4h-21.2v8.3h21.2z"/>
	<path id="Layer" class="s4" d="m127.3 211.4h-21.2v8.3h21.2z"/>
	<path id="Layer" class="s4" d="m150.4 211.4h-21.2v8.3h21.2z"/>
	<path id="Layer" class="s4" d="m173.5 211.4h-21.2v8.3h21.2z"/>
	<path id="Layer" class="s4" d="m196.5 211.4h-21.2v8.3h21.2z"/>
	<path id="Layer" class="s4" d="m219.6 211.4h-21.2v8.3h21.2z"/>
	<path id="Layer" class="s4" d="m242.7 211.4h-21.2v8.3h21.2z"/>
	<path id="Layer" class="s4" d="m265.7 211.4h-21.2v8.3h21.2z"/>
	<path id="Layer" class="s4" d="m288.8 211.4h-21.2v8.3h21.2z"/>
	<path id="Layer" class="s4" d="m311.9 211.4h-21.3v8.3h21.3z"/>
	<path id="Layer" class="s4" d="m334.9 211.4h-21.2v8.3h21.2z"/>
	<path id="Layer" class="s4" d="m358 211.4h-21.2v8.3h21.2z"/>
	<path id="Layer" class="s4" d="m381 211.4h-21.2v8.3h21.2z"/>
	<path id="Layer" class="s4" d="m404.1 211.4h-21.2v8.3h21.2z"/>
	<path id="Layer" class="s4" d="m427.2 211.4h-21.2v8.3h21.2z"/>
	<path id="Layer" class="s4" d="m245.5 380.9c105.2 0 190.4-5 190.4-11.2 0-6.1-85.2-11.1-190.4-11.1-105.2 0-190.4 5-190.4 11.1 0 6.2 85.2 11.2 190.4 11.2z"/>
	<path id="Layer" class="s5" d="m108.2 152.3c-4.1 0-7.3-4.5-7.3-10.2 0-5.8 3.2-10.2 7.3-10.2q0.4-0.1 0.7 0.1 0.3 0.1 0.5 0.3 0.3 0.2 0.4 0.5 0.2 0.3 0.2 0.7 0 0.3-0.2 0.6-0.1 0.3-0.4 0.5-0.2 0.2-0.5 0.4-0.3 0.1-0.7 0c-2.2 0-4.1 3.3-4.1 7.1 0 3.8 1.9 7 4.1 7q0.4 0 0.7 0.1 0.3 0.1 0.5 0.3 0.3 0.3 0.4 0.6 0.2 0.3 0.2 0.6 0 0.4-0.2 0.7-0.1 0.3-0.4 0.5-0.2 0.2-0.5 0.3-0.3 0.1-0.7 0.1z"/>
	<path id="Layer" class="s5" d="m131.1 152.3c-4.2 0-7.4-4.5-7.4-10.2 0-5.8 3.2-10.2 7.4-10.2 0.4 0 0.7 0.2 1 0.5 0.3 0.3 0.4 0.7 0.4 1.1 0 0.4-0.1 0.7-0.4 1-0.3 0.3-0.6 0.5-1 0.5-2.3 0-4.2 3.3-4.2 7.1 0 3.8 1.9 7 4.2 7 0.4 0.1 0.7 0.2 1 0.5 0.3 0.3 0.4 0.7 0.4 1.1 0 0.4-0.1 0.8-0.4 1.1-0.3 0.3-0.6 0.5-1 0.5z"/>
	<path id="Layer" class="s5" d="m153.9 152.3c-4.1 0-7.4-4.5-7.4-10.2 0-5.8 3.3-10.2 7.4-10.2 0.4 0 0.7 0.2 1 0.5 0.3 0.3 0.4 0.7 0.4 1.1 0 0.4-0.1 0.7-0.4 1-0.3 0.3-0.6 0.5-1 0.5-2.3 0-4.2 3.3-4.2 7.1 0 3.8 1.9 7 4.2 7 0.4 0.1 0.7 0.2 1 0.5 0.3 0.3 0.4 0.7 0.4 1.1 0 0.4-0.1 0.8-0.4 1.1-0.3 0.3-0.6 0.5-1 0.5z"/>
	<path id="Layer" class="s5" d="m176.7 152.3c-4.1 0-7.4-4.5-7.4-10.2 0-5.8 3.3-10.2 7.4-10.2q0.3-0.1 0.6 0.1 0.3 0.1 0.6 0.3 0.2 0.2 0.4 0.5 0.1 0.3 0.1 0.7 0 0.3-0.1 0.6-0.2 0.3-0.4 0.5-0.3 0.2-0.6 0.4-0.3 0.1-0.6 0c-2.3 0-4.2 3.3-4.2 7.1 0 3.8 1.9 7 4.2 7q0.3 0 0.6 0.1 0.3 0.1 0.6 0.3 0.2 0.3 0.4 0.6 0.1 0.3 0.1 0.6 0 0.4-0.1 0.7-0.2 0.3-0.4 0.5-0.3 0.2-0.6 0.3-0.3 0.1-0.6 0.1z"/>
	<path id="Layer" class="s5" d="m199.5 152.3c-4.1 0-7.3-4.5-7.3-10.2 0-5.8 3.2-10.2 7.3-10.2q0.3-0.1 0.6 0.1 0.4 0.1 0.6 0.3 0.2 0.2 0.4 0.5 0.1 0.3 0.1 0.7 0 0.3-0.1 0.6-0.2 0.3-0.4 0.5-0.2 0.2-0.6 0.4-0.3 0.1-0.6 0c-2.3 0-4.2 3.3-4.2 7.1 0 3.8 1.9 7 4.2 7q0.3 0 0.6 0.1 0.4 0.1 0.6 0.3 0.2 0.3 0.4 0.6 0.1 0.3 0.1 0.6 0 0.4-0.1 0.7-0.2 0.3-0.4 0.5-0.2 0.2-0.6 0.3-0.3 0.1-0.6 0.1z"/>
	<path id="Layer" class="s5" d="m222.3 152.3c-4.1 0-7.3-4.5-7.3-10.2 0-5.8 3.2-10.2 7.3-10.2 0.4 0 0.8 0.2 1.1 0.5 0.2 0.3 0.4 0.7 0.4 1.1 0 0.4-0.2 0.7-0.4 1-0.3 0.3-0.7 0.5-1.1 0.5-2.2 0-4.1 3.3-4.1 7.1 0 3.8 1.9 7 4.1 7 0.4 0.1 0.8 0.2 1.1 0.5 0.2 0.3 0.4 0.7 0.4 1.1 0 0.4-0.2 0.8-0.4 1.1-0.3 0.3-0.7 0.5-1.1 0.5z"/>
	<g id="Layer" style="opacity: .7">
		<path id="Layer" class="s3" d="m108.2 152.3c-4.1 0-7.3-4.5-7.3-10.2 0-5.8 3.2-10.2 7.3-10.2q0.4-0.1 0.7 0.1 0.3 0.1 0.5 0.3 0.3 0.2 0.4 0.5 0.2 0.3 0.2 0.7 0 0.3-0.2 0.6-0.1 0.3-0.4 0.5-0.2 0.2-0.5 0.4-0.3 0.1-0.7 0c-2.2 0-4.1 3.3-4.1 7.1 0 3.8 1.9 7 4.1 7q0.4 0 0.7 0.1 0.3 0.1 0.5 0.3 0.3 0.3 0.4 0.6 0.2 0.3 0.2 0.6 0 0.4-0.2 0.7-0.1 0.3-0.4 0.5-0.2 0.2-0.5 0.3-0.3 0.1-0.7 0.1z"/>
		<path id="Layer" class="s3" d="m131.1 152.3c-4.2 0-7.4-4.5-7.4-10.2 0-5.8 3.2-10.2 7.4-10.2 0.4 0 0.7 0.2 1 0.5 0.3 0.3 0.4 0.7 0.4 1.1 0 0.4-0.1 0.7-0.4 1-0.3 0.3-0.6 0.5-1 0.5-2.3 0-4.2 3.3-4.2 7.1 0 3.8 1.9 7 4.2 7 0.4 0.1 0.7 0.2 1 0.5 0.3 0.3 0.4 0.7 0.4 1.1 0 0.4-0.1 0.8-0.4 1.1-0.3 0.3-0.6 0.5-1 0.5z"/>
		<path id="Layer" class="s3" d="m153.9 152.3c-4.1 0-7.4-4.5-7.4-10.2 0-5.8 3.3-10.2 7.4-10.2 0.4 0 0.7 0.2 1 0.5 0.3 0.3 0.4 0.7 0.4 1.1 0 0.4-0.1 0.7-0.4 1-0.3 0.3-0.6 0.5-1 0.5-2.3 0-4.2 3.3-4.2 7.1 0 3.8 1.9 7 4.2 7 0.4 0.1 0.7 0.2 1 0.5 0.3 0.3 0.4 0.7 0.4 1.1 0 0.4-0.1 0.8-0.4 1.1-0.3 0.3-0.6 0.5-1 0.5z"/>
		<path id="Layer" class="s3" d="m176.7 152.3c-4.1 0-7.4-4.5-7.4-10.2 0-5.8 3.3-10.2 7.4-10.2q0.3-0.1 0.6 0.1 0.3 0.1 0.6 0.3 0.2 0.2 0.4 0.5 0.1 0.3 0.1 0.7 0 0.3-0.1 0.6-0.2 0.3-0.4 0.5-0.3 0.2-0.6 0.4-0.3 0.1-0.6 0c-2.3 0-4.2 3.3-4.2 7.1 0 3.8 1.9 7 4.2 7q0.3 0 0.6 0.1 0.3 0.1 0.6 0.3 0.2 0.3 0.4 0.6 0.1 0.3 0.1 0.6 0 0.4-0.1 0.7-0.2 0.3-0.4 0.5-0.3 0.2-0.6 0.3-0.3 0.1-0.6 0.1z"/>
		<path id="Layer" class="s3" d="m199.5 152.3c-4.1 0-7.3-4.5-7.3-10.2 0-5.8 3.2-10.2 7.3-10.2q0.3-0.1 0.6 0.1 0.4 0.1 0.6 0.3 0.2 0.2 0.4 0.5 0.1 0.3 0.1 0.7 0 0.3-0.1 0.6-0.2 0.3-0.4 0.5-0.2 0.2-0.6 0.4-0.3 0.1-0.6 0c-2.3 0-4.2 3.3-4.2 7.1 0 3.8 1.9 7 4.2 7q0.3 0 0.6 0.1 0.4 0.1 0.6 0.3 0.2 0.3 0.4 0.6 0.1 0.3 0.1 0.6 0 0.4-0.1 0.7-0.2 0.3-0.4 0.5-0.2 0.2-0.6 0.3-0.3 0.1-0.6 0.1z"/>
		<path id="Layer" class="s3" d="m222.3 152.3c-4.1 0-7.3-4.5-7.3-10.2 0-5.8 3.2-10.2 7.3-10.2 0.4 0 0.8 0.2 1.1 0.5 0.2 0.3 0.4 0.7 0.4 1.1 0 0.4-0.2 0.7-0.4 1-0.3 0.3-0.7 0.5-1.1 0.5-2.2 0-4.1 3.3-4.1 7.1 0 3.8 1.9 7 4.1 7 0.4 0.1 0.8 0.2 1.1 0.5 0.2 0.3 0.4 0.7 0.4 1.1 0 0.4-0.2 0.8-0.4 1.1-0.3 0.3-0.7 0.5-1.1 0.5z"/>
	</g>
	<path id="Layer" class="s6" d="m235.4 140.1h-142.2v230h142.2z"/>
	<path id="Layer" class="s7" d="m235.4 140.1h-142.2v230h142.2z"/>
	<path id="Layer" class="s8" d="m101.5 140.1h-8.3v230h8.3z"/>
	<path id="Layer" class="s8" d="m94.9 140.1h-0.9v230h0.9z"/>
	<path id="Layer" class="s8" d="m96.7 140.1h-0.8v230h0.8z"/>
	<path id="Layer" class="s8" d="m98.6 140.1h-0.9v230h0.9z"/>
	<path id="Layer" class="s8" d="m100.4 140.1h-0.8v230h0.8z"/>
	<path id="Layer" class="s8" d="m210.8 370.1h-97.2c-11.1-84.8-11.1-165.3-11.1-165.3l69.3 13.5z"/>
	<path id="Layer" class="s6" d="m254.6 369.8h-134c-13.5-75.8-19.9-152.7-19.1-229.7h133.9c-0.8 77 5.6 153.9 19.2 229.7z"/>
	<path id="Layer" class="s9" d="m254.6 369.8h-134c-13.5-75.8-19.9-152.7-19.1-229.7h133.9c-0.8 77 5.6 153.9 19.2 229.7z"/>
	<path id="Layer" class="s10" d="m114.8 181.8q0.7 32.6 3.2 65.3h107.5q-2.5-32.7-3.3-65.3z"/>
	<path id="Layer" fill-rule="evenodd" class="s7" d="m222.2 181.8q0.8 32.6 3.3 65.3h-107.5q-2.5-32.7-3.2-65.3zm-1.9 1.9h-103.6q0.8 30.7 3.1 61.4h103.5q-2.3-30.7-3-61.4z"/>
	<path id="Layer" class="s11" d="m215.7 235c0 0-0.9-0.8-2.4-2 0.3-1 0.9-3.7-0.4-4.3-1.3-0.5-0.5 2.6-0.2 3.9q-1.1-0.9-2.6-2c0.2-0.9 0.7-3.5-0.6-4.1-1.4-0.5-0.4 2.5 0 3.7q-1.4-0.9-3-1.9c0.2-0.8 0.7-3.5-0.7-4-1.4-0.6-0.2 2.6 0.2 3.7q-1.4-0.8-2.9-1.6c0.2-1 0.4-4-0.9-4.4-1.4-0.4-0.1 2.9 0.4 4.1q-1.5-0.8-3-1.5c0-0.8 0-4.1-1.5-4.5-1.5-0.3 0.5 3.4 1 4.3q-1.9-0.8-3.9-1.5c0-1-0.2-4-1.6-4.3-1.5-0.3 0.4 3.1 1.1 4.1q-1.8-0.6-3.7-1c-0.2-0.8-0.8-4-2.3-4-1.5 0.1 1 3 1.7 3.9q-0.9-0.2-1.8-0.3c-1.3-0.9-4.8-3.1-5.1-0.7-0.3 2.3 3.7 1.4 5 1.1q0.9 0.1 1.7 0.3c-1 0.5-3.6 1.9-2.7 2.8 1.2 1.1 3.2-0.1 3.5-2.6q1.7 0.4 3.4 0.9c-1.3 0.3-4.3 1-3.5 2.1 0.9 1.3 3.4 0.5 4.3-1.8q1.7 0.6 3.4 1.3c-1.3 0.2-4.2 0.8-3.5 1.9 0.8 1.3 3.3 0.7 4.4-1.5 0.9 0.4 2 1 2.9 1.4-1 0.1-4.2 0.6-3.5 1.8 0.8 1.3 3.1 0.9 4.1-1.5q1.4 0.8 2.7 1.6c-1.1 0.1-4.2 0.7-3.6 1.9 0.7 1.4 3 0.7 4.3-1.5q1.6 0.9 2.9 1.9c-1 0.1-4.4 0.5-3.9 1.7 0.7 1.5 3.1 0.9 4.5-1.3 1 0.7 1.9 1.4 2.7 2-1 0-4.3 0.2-3.7 1.5 0.6 1.4 2.9 1 4.2-1.1 1.4 1.1 2.2 1.8 2.3 1.8z"/>
	<path id="Layer" class="s12" d="m215.7 235c0 0-0.9-0.8-2.4-2 0.3-1 0.9-3.7-0.4-4.3-1.3-0.5-0.5 2.6-0.2 3.9q-1.1-0.9-2.6-2c0.2-0.9 0.7-3.5-0.6-4.1-1.4-0.5-0.4 2.5 0 3.7q-1.4-0.9-3-1.9c0.2-0.8 0.7-3.5-0.7-4-1.4-0.6-0.2 2.6 0.2 3.7q-1.4-0.8-2.9-1.6c0.2-1 0.4-4-0.9-4.4-1.4-0.4-0.1 2.9 0.4 4.1q-1.5-0.8-3-1.5c0-0.8 0-4.1-1.5-4.5-1.5-0.3 0.5 3.4 1 4.3q-1.9-0.8-3.9-1.5c0-1-0.2-4-1.6-4.3-1.5-0.3 0.4 3.1 1.1 4.1q-1.8-0.6-3.7-1c-0.2-0.8-0.8-4-2.3-4-1.5 0.1 1 3 1.7 3.9q-0.9-0.2-1.8-0.3c-1.3-0.9-4.8-3.1-5.1-0.7-0.3 2.3 3.7 1.4 5 1.1q0.9 0.1 1.7 0.3c-1 0.5-3.6 1.9-2.7 2.8 1.2 1.1 3.2-0.1 3.5-2.6q1.7 0.4 3.4 0.9c-1.3 0.3-4.3 1-3.5 2.1 0.9 1.3 3.4 0.5 4.3-1.8q1.7 0.6 3.4 1.3c-1.3 0.2-4.2 0.8-3.5 1.9 0.8 1.3 3.3 0.7 4.4-1.5 0.9 0.4 2 1 2.9 1.4-1 0.1-4.2 0.6-3.5 1.8 0.8 1.3 3.1 0.9 4.1-1.5q1.4 0.8 2.7 1.6c-1.1 0.1-4.2 0.7-3.6 1.9 0.7 1.4 3 0.7 4.3-1.5q1.6 0.9 2.9 1.9c-1 0.1-4.4 0.5-3.9 1.7 0.7 1.5 3.1 0.9 4.5-1.3 1 0.7 1.9 1.4 2.7 2-1 0-4.3 0.2-3.7 1.5 0.6 1.4 2.9 1 4.2-1.1 1.4 1.1 2.2 1.8 2.3 1.8z"/>
	<path id="Layer" class="s11" d="m217 228.1c-0.9-0.7-1.7 1.9-1.9 2.6q-0.5-1.1-1.1-2.5c2-0.6 3-2.4 2-3.2-0.9-0.7-1.9 1.9-2.2 2.7q-0.5-1.3-0.9-2.8c2-0.5 3.1-2.1 2.1-2.9-0.8-0.7-2 1.5-2.3 2.4q-0.4-1.2-0.7-2.4c2.1-0.4 3-2 2.1-3-0.9-0.9-1.9 1.6-2.2 2.4q-0.3-1.3-0.5-2.6c2-0.4 3-2.2 2.1-3.1-0.7-0.7-1.8 1.3-2.3 2.3q-0.2-1.5-0.3-2.9c2.1-0.2 3.3-2.1 2.4-3-0.7-0.8-2 1.4-2.4 2.3q-0.1-1.4 0-2.9c2.1 0.3 3.5-1 2.9-2.1-0.5-0.9-2.2 0.8-2.9 1.5 0-0.5 0.1-0.9 0.1-1.4 0.6-1 2.2-3.9 0.2-4.2-1.9-0.3-1 3-0.5 4.2-0.1 0.5-0.1 0.9-0.1 1.5-0.6-0.8-2.4-3.3-2.8-2.2-0.3 1.1 2.1 2.4 2.7 2.7q0 1.5 0 3c-0.7-0.7-3-2.9-3.1-1.7 0 1.2 2.4 2 3.2 2.2q0.1 1.7 0.3 3.4c-0.6-0.6-3.2-3-3.2-1.7 0 1.2 2.6 1.9 3.3 2.1q0.2 1.3 0.5 2.6c-0.8-0.6-3.2-2.3-3.2-1.1 0 1.1 2.5 1.6 3.4 1.7q0.3 1.3 0.7 2.5c-0.8-0.5-3.1-2.1-3-0.9 0.2 1.2 2.4 1.4 3.1 1.4q0.5 1.5 1 2.7c-0.9-0.6-3.2-1.9-3-0.8 0.2 1.1 2.4 1.3 3.2 1.3 0.3 1 0.7 1.8 1 2.5-1-0.5-3.3-1.8-3.2-0.7 0.2 1.2 2.6 1.3 3.4 1.3 0.7 1.4 1.1 2.2 1.1 2.2l0.4-0.2c0 0-0.4-0.8-1.1-2.1 2-0.6 2.8-2.3 1.7-3.1z"/>
	<path id="Layer" class="s7" d="m217 228.1c-0.9-0.7-1.7 1.9-1.9 2.6q-0.5-1.1-1.1-2.5c2-0.6 3-2.4 2-3.2-0.9-0.7-1.9 1.9-2.2 2.7q-0.5-1.3-0.9-2.8c2-0.5 3.1-2.1 2.1-2.9-0.8-0.7-2 1.5-2.3 2.4q-0.4-1.2-0.7-2.4c2.1-0.4 3-2 2.1-3-0.9-0.9-1.9 1.6-2.2 2.4q-0.3-1.3-0.5-2.6c2-0.4 3-2.2 2.1-3.1-0.7-0.7-1.8 1.3-2.3 2.3q-0.2-1.5-0.3-2.9c2.1-0.2 3.3-2.1 2.4-3-0.7-0.8-2 1.4-2.4 2.3q-0.1-1.4 0-2.9c2.1 0.3 3.5-1 2.9-2.1-0.5-0.9-2.2 0.8-2.9 1.5 0-0.5 0.1-0.9 0.1-1.4 0.6-1 2.2-3.9 0.2-4.2-1.9-0.3-1 3-0.5 4.2-0.1 0.5-0.1 0.9-0.1 1.5-0.6-0.8-2.4-3.3-2.8-2.2-0.3 1.1 2.1 2.4 2.7 2.7q0 1.5 0 3c-0.7-0.7-3-2.9-3.1-1.7 0 1.2 2.4 2 3.2 2.2q0.1 1.7 0.3 3.4c-0.6-0.6-3.2-3-3.2-1.7 0 1.2 2.6 1.9 3.3 2.1q0.2 1.3 0.5 2.6c-0.8-0.6-3.2-2.3-3.2-1.1 0 1.1 2.5 1.6 3.4 1.7q0.3 1.3 0.7 2.5c-0.8-0.5-3.1-2.1-3-0.9 0.2 1.2 2.4 1.4 3.1 1.4q0.5 1.5 1 2.7c-0.9-0.6-3.2-1.9-3-0.8 0.2 1.1 2.4 1.3 3.2 1.3 0.3 1 0.7 1.8 1 2.5-1-0.5-3.3-1.8-3.2-0.7 0.2 1.2 2.6 1.3 3.4 1.3 0.7 1.4 1.1 2.2 1.1 2.2l0.4-0.2c0 0-0.4-0.8-1.1-2.1 2-0.6 2.8-2.3 1.7-3.1z"/>
	<path id="Layer" class="s6" d="m221.8 220.6q0.7 12.3 1.6 24.5h-6.4l-1.9-0.1-8.2-0.3h-1.2l-5.1-0.2-1-0.1-6.1-0.2h-0.9q-0.4-0.5-0.7-0.9l-0.2-0.3-0.8-1q0 0 0 0 0.1-0.2 0.3-0.4 0.2-0.4 0.4-0.7 1.3-1.9 2.9-3.6 1.6-1.7 3.5-2.9 0.9-0.6 1.8-1h0.3q2.6-0.9 5.3-1.2h0.6q1.8-0.2 3.5-0.7 0.4-0.1 0.8-0.2 0.3-0.1 0.5-0.3 0.5-0.3 0.8-0.7 0.3-0.4 0.4-0.8 0.2-0.7 0.3-1.4 0-0.6 0-1.1-0.1-0.8 0.3-1.4 0.2-0.3 0.3-0.5 0.2-0.1 0.4-0.3 0.8-0.8 1.8-1.3 0.7-0.4 1.6-0.9 2.4-1.3 5.1-2z"/>
	<path id="Layer" class="s12" d="m221.8 220.6q0.7 12.3 1.6 24.5h-6.4l-1.9-0.1-8.2-0.3h-1.2l-5.1-0.2-1-0.1-6.1-0.2h-0.9q-0.4-0.5-0.7-0.9l-0.2-0.3-0.8-1q0 0 0 0 0.1-0.2 0.3-0.4 0.2-0.4 0.4-0.7 1.3-1.9 2.9-3.6 1.6-1.7 3.5-2.9 0.9-0.6 1.8-1h0.3q2.6-0.9 5.3-1.2h0.6q1.8-0.2 3.5-0.7 0.4-0.1 0.8-0.2 0.3-0.1 0.5-0.3 0.5-0.3 0.8-0.7 0.3-0.4 0.4-0.8 0.2-0.7 0.3-1.4 0-0.6 0-1.1-0.1-0.8 0.3-1.4 0.2-0.3 0.3-0.5 0.2-0.1 0.4-0.3 0.8-0.8 1.8-1.3 0.7-0.4 1.6-0.9 2.4-1.3 5.1-2z"/>
	<path id="Layer" class="s6" d="m222.7 234.7q0.3 5.2 0.7 10.4h-46.6q0.9-0.3 1.6-0.9c0.8-0.6 1.7-0.9 2.6-0.9 0.9-0.1 1.8 0.2 2.6 0.7q2.1-0.2 4-1 0.4-0.1 0.8-0.3 0.5-0.4 0.8-0.7c0.3-0.3 0.7-0.7 1-1.1l0.4-0.5c0.7-0.8 1.3-1.7 1.2-2-0.1-0.4 1.2-0.7 2.8-1.1 1.2-0.3 2.6-0.5 3.8-0.7l1.3-0.2c0.4 0 0.7 0 0.9 0q2.2-0.2 4.4-0.8c0 0 1.2-0.5 2.7-1.2q0.8-0.4 1.6-0.7l0.3-0.2q1.2-0.5 2.2-1.1l0.5-0.2 0.3-0.2 1.1-0.5 0.4-0.2c0.7-0.4 1.4-0.5 2.1-0.5 1.7 0.2 3.1 1.6 5.7 3.4q0.4 0.2 0.8 0.5z"/>
	<path id="Layer" class="s11" d="m208.2 240.1c-0.3 1.5-1 2.9-2 4q-0.2 0.3-0.5 0.6-0.3 0.2-0.6 0.4h-4.9-0.1q-0.3-0.3-0.6-0.7c-0.7-1-1.2-2.1-1.5-3.3-0.2-1.3-0.2-2.5 0.1-3.7q0.1-0.4 0.2-0.8 0.2-0.6 0.5-1.2 0.4-1.1 1.2-2c0.5-0.7 1.2-1.3 2-1.6 0.8-0.3 1.7-0.4 2.6-0.2q0.4 0.1 0.8 0.3 0.2 0.1 0.5 0.3 0.5 0.4 0.9 0.9 0.5 0.6 0.8 1.3 0.5 1.1 0.7 2.3 0.2 1.7-0.1 3.4z"/>
	<path id="Layer" class="s12" d="m208.2 240.1c-0.3 1.5-1 2.9-2 4q-0.2 0.3-0.5 0.6-0.3 0.2-0.6 0.4h-4.9-0.1q-0.3-0.3-0.6-0.7c-0.7-1-1.2-2.1-1.5-3.3-0.2-1.3-0.2-2.5 0.1-3.7q0.1-0.4 0.2-0.8 0.2-0.6 0.5-1.2 0.4-1.1 1.2-2c0.5-0.7 1.2-1.3 2-1.6 0.8-0.3 1.7-0.4 2.6-0.2q0.4 0.1 0.8 0.3 0.2 0.1 0.5 0.3 0.5 0.4 0.9 0.9 0.5 0.6 0.8 1.3 0.5 1.1 0.7 2.3 0.2 1.7-0.1 3.4z"/>
	<path id="Layer" class="s6" d="m168.6 202.2c1.6 0.4 3.2 0.9 4.8 1.4 0.8 0.2 1.6 0.5 2.4 0.7 1 0.2 2-0.1 3.1 0.1 0.7 0.2 1.3 0.6 1.7 1.1q0.4 0.6 0.6 1.3 0.3 1.2 0.6 2.4 0.1 0.6 0 1.1-0.1 0.6-0.4 1.1-0.2 0.3-0.3 0.7-0.1 0.6 0 1.1 0 0.9-0.1 1.8-0.2 1 0 1.9c0.3 1 1.3 1.6 1.4 2.8 0.2 1.7 0.1 3.4-0.3 5.1q-0.2 0.4-0.5 0.8c-0.3 0.6-0.4 1.3-0.3 2q0.1 0.7 0.2 1.5c-0.2 0-0.3-0.1-0.3-0.3-0.3-1.7-0.4-3.4-0.6-5.1-0.2-2.7 0.6-12.4-1.2-13.7-1.8-1.2-13.8-0.8-14.6-3.2-0.8-2.4 3.8-4.6 3.8-4.6z"/>
	<path id="Layer" class="s6" d="m183.5 240.5q0 0 0 0 0 0.2 0 0.3c0 0 0 0.1 0 0.1q0 0.4-0.2 0.7 0 0.1-0.1 0.2-0.1 0.1-0.2 0.2-0.2 0.2-0.4 0.3-0.2 0-0.3 0c-0.5 0-1.1-0.4-1.7-0.4q-0.2 0-0.4 0.1l-0.2 0.1q-0.3 0.1-0.5 0.2c-2.2 1-4.8 0.5-7.2 1.1-0.5 0.1-1 0.3-1.5 0.4l-0.5 0.2-0.5 0.1q-1.3 0.1-2.6 0l-7.8-0.2h-0.8q-1.1 0-2.1-0.2c-1.3-0.1-2.5-0.4-3.8-0.6q-1.2-0.2-2.4-0.3l-1.2-0.1h-1.2l-4.2-0.2-8.8-0.5c-2.4 0-4.8-0.3-7.1-1.1l-0.4-0.1-0.8-0.3-0.8-0.4q-0.6-0.2-1.3-0.3-0.1 0-0.1-0.2 0-0.1 0-0.1 0.1-0.4 0.2-0.7c0.2-0.5 0.5-1.1 0.7-1.5q0-0.1 0.1-0.1l0.1-0.3q0.2-0.3 0.4-0.5 0-0.1 0.1-0.2 0-0.1 0.1-0.2 0.1 0 0.1-0.1 0.1 0 0.2-0.1l0.2-0.1h0.1q0.8 0 1.5 0.4 0.3 0.1 0.7 0.2l0.4 0.2q0.7 0.2 1.4 0.1l0.4-0.1h0.2 0.5 0.1 0.3l2.6-0.5 1.1-0.1 1.6-0.3h0.2l4.2-0.6 2-0.3q0.9-0.2 1.9-0.3 2.7-0.2 5.4-0.1c1.5 0 3 0.1 4.5 0.2q3.7 0.3 7.4 0.8c2.5 0.3 4.9 0.6 7.4 1.1h0.4l0.3 0.1 1.7 0.2q2.5 0.3 4.9 1.1l0.5 0.2q0.3 0.1 0.5 0.2 0.1 0 0.2 0l0.4 0.1h0.1q0.2 0 0.5 0h1.2c0.7 0 1.6 0 1.9 0h0.1q0 0.1 0 0.2 0.1 1 0.3 2z"/>
	<path id="Layer" class="s12" d="m183.5 240.5q0 0 0 0 0 0.2 0 0.3c0 0 0 0.1 0 0.1q0 0.4-0.2 0.7 0 0.1-0.1 0.2-0.1 0.1-0.2 0.2-0.1 0.1-0.2 0.2-0.1 0.1-0.2 0.1-0.1 0-0.3 0c-0.5 0-1.1-0.4-1.7-0.4q-0.2 0-0.4 0.1l-0.2 0.1q-0.3 0.1-0.5 0.2c-2.2 1-4.8 0.5-7.2 1.1-0.5 0.1-1 0.3-1.5 0.4l-0.5 0.2-0.5 0.1q-1.3 0.1-2.6 0l-7.8-0.2h-0.8q-1.1 0-2.1-0.1c-1.3-0.2-2.5-0.5-3.8-0.7q-1.2-0.2-2.4-0.3l-1.2-0.1h-1.2l-4.2-0.2-8.8-0.5c-2.4 0.1-4.8-0.3-7.1-1l-0.4-0.2-0.8-0.3-0.8-0.4q-0.6-0.2-1.3-0.3-0.1 0-0.1-0.2 0-0.1 0-0.1 0.1-0.3 0.2-0.6c0.2-0.6 0.5-1.2 0.7-1.6q0 0 0.1-0.1l0.1-0.3q0.2-0.3 0.3-0.5 0.1-0.1 0.2-0.2 0-0.1 0.1-0.2 0.1 0 0.1-0.1 0.1 0 0.2-0.1h0.1l0.2-0.1q0.2 0 0.4 0 0.6 0.1 1.1 0.4 0.3 0.1 0.7 0.3l0.4 0.1q0.9 0.2 1.8 0.1h0.2l0.5-0.1h0.1 0.2l2.7-0.4 1-0.2 1.7-0.3h0.2l4.2-0.6 1.9-0.3q1-0.1 2-0.2 2.7-0.3 5.4-0.2c1.5 0 3 0.1 4.4 0.3q3.8 0.3 7.5 0.7c2.5 0.3 4.9 0.7 7.4 1.1h0.3l0.4 0.1 1.6 0.2q2.5 0.3 4.9 1.1l0.6 0.2q0.2 0.1 0.4 0.2h0.1q0.1 0 0.2 0l0.3 0.1h0.1q0.3 0 0.6 0h0.6 0.5c0.8 0 1.6 0 1.9 0h0.1q0 0.1 0 0.2 0.2 1 0.4 2z"/>
	<path id="Layer" class="s8" d="m124.6 239.8q1.6 0.5 3.2 1.2c2.3 0.7 4.7 1.1 7.1 1q6.5 0.3 13.1 0.7 2.4 0 4.8 0.4c1.2 0.2 2.4 0.5 3.7 0.7q1.4 0.1 2.9 0.1l7.8 0.2q1.6 0.2 3.1-0.1c0.7-0.2 1.3-0.4 2-0.6 2.4-0.5 5 0 7.2-1q0.5-0.4 1.1-0.5c0.7 0 1.3 0.5 2 0.4q0.4-0.2 0.7-0.6 0.3-0.3 0.2-0.8-0.2 0.2-0.5 0.3-0.3 0.1-0.7 0.1c-1.8-0.2 0 0.3-4.4 0.4-4.5 0.1-13.5 1.8-17.4 0.8q-4.2-1.2-8.5-1.3c-4.2-0.4-9.6-0.2-12.7-0.3-3-0.1-3.8 1.4-6.4 0.1-1.8-0.8-3.7-1.3-5.7-1.4-1.1-0.1-2.1 0.2-2.5-0.8-0.2 0.5-0.3 0.9-0.1 1z"/>
	<path id="Layer" class="s13" d="m170.9 236.3l-0.3-0.1q-7.4-1.2-14.9-1.8-4.9-0.5-9.8-0.1c-1.3 0.1-2.6 0.3-3.9 0.5l-4.2 0.7-1.9 0.3c1.5 1.1 2.8-0.5 4.1 0.7 1.2 1.1 2.3 0.2 3.9-0.2 1.6-0.4 1.5-0.4 2.3 0.1 0.8 0.5 5.6 0 7-0.1 1.5-0.1 3.6 0.4 6.5 0.5 2-0.1 4.1 0.2 6 0.8 2.6 0.7 4.2-0.6 5.2-1.3z"/>
	<path id="Layer" class="s13" d="m183.1 238.2c-1.8 0.3-3.7 1.1-4.7 1.1-1.3-0.1-4.9-1.1-5.7-0.4-0.8 0.8-3 1.5-5.6 1.5-2.6 0.1-4.7 0.3-7.7-0.4-2.9-0.7-7-1.6-9.2-1.3-2.6 0.3-5.2 0.2-7.8-0.3-2.1-0.5-3.8 0-6 0.1-2.1 0.2-3.3 0-4.3-0.7-0.9-0.7-4.7-1.7-5.9-1.8q0-0.1 0.1-0.1 0.1-0.1 0.2-0.1l0.1-0.1h0.2q0.2-0.1 0.3 0 0.6 0.1 1.2 0.3 0.3 0.2 0.7 0.3l0.3 0.1q0.7 0.2 1.4 0.2l0.5-0.1q0.7 0.2 1.3 0.3c1.9 0.3 2.3 1.1 4.4 0.8 2.1-0.4 6.9 0.4 8.3 0.5 1.3 0 5.5-0.6 8.3-0.5 2.8 0.2 11 2.6 12.8 1.6 1.9-0.9 3.9-1.4 5.9-1.4 1.4 0 4.4 1.9 5.9 0.9q0.4-0.3 0.7-0.6h0.1q0.1 0 0.2 0l0.3 0.1h0.1q0.3 0 0.5 0h0.6 0.6c0.8 0 1.7 0 1.9 0z"/>
	<path id="Layer" class="s6" d="m182.7 236.5l-0.5 0.1q-0.4 0.1-0.7 0.2h-0.2l-0.5 0.2q-0.7 0.3-1.3 0.5-0.7 0.2-1.4 0.3-1.4 0.3-2.8 0.3-1.5 0-2.9 0h-4.3l-8.7-0.1c-1.3 0-2.6 0-3.9 0l-0.8 0.1c-1.3 0.1-2.5 0.4-3.7 0.5q-1.1 0-2.3 0h-0.6l-7.8-0.3q-1.6 0-3.1-0.3l-0.5-0.2-1-0.3-0.5-0.2c-2.4-0.7-5.1-0.4-7.3-1.5l-0.3-0.2q-0.3-0.1-0.6-0.2-0.1-0.1-0.3-0.1c-0.6-0.1-1.2 0.4-1.9 0.2l-0.3-0.1q-0.3-0.2-0.5-0.5-0.1-0.1-0.1-0.2 0-0.1-0.1-0.2 0-0.2-0.1-0.4 0-0.2 0-0.4c0-0.7 0.2-1.3 0.2-2v-0.3h0.7l0.9 0.1 1 0.1h0.3 0.2q0.5 0 1.1-0.1c0.3-0.1 0.6-0.2 0.9-0.3l0.3-0.1q3.2-0.7 6.5-0.9h0.3q0.2 0 0.3 0l1.9-0.2q2.7-0.3 5.5-0.4 3.7-0.3 7.4-0.3 4.9-0.2 9.8 0.5 1.5 0.2 3 0.5l1 0.2q2.1 0.5 4.2 0.9l1.9 0.4 1.2 0.3 2.8 0.6 0.7 0.1q0.3 0.1 0.6 0.1 0.2 0 0.5 0 0.2 0 0.4 0l0.4-0.1 0.4-0.1q1-0.4 2-0.5 0.1 0 0.2 0h0.1 0.1q0 0.1 0.1 0.1 0.1 0.1 0.3 0.2l0.1 0.2 0.1 0.1q0.2 0.2 0.4 0.6 0.1 0.1 0.3 0.5l0.3 0.5 0.2 0.4q0.2 0.3 0.3 0.7c0.1 0.2 0.2 0.4 0.2 0.6 0.1 0.1 0 0.4-0.1 0.4z"/>
	<path id="Layer" class="s12" d="m182.7 236.5l-0.5 0.1q-0.4 0.1-0.7 0.2h-0.2l-0.5 0.2q-0.7 0.3-1.3 0.5-0.7 0.2-1.4 0.3-1.4 0.3-2.8 0.3-1.4 0-2.9 0h-4.3l-8.7-0.1c-1.3 0-2.6 0-3.9 0l-0.8 0.1c-1.3 0.1-2.5 0.4-3.7 0.5q-1.1 0-2.3 0h-0.6l-7.8-0.3q-1.6 0-3.1-0.3l-0.6-0.2-0.9-0.3-0.6-0.2c-2.4-0.7-5-0.4-7.2-1.5l-0.3-0.2q-0.3-0.1-0.6-0.2-0.1-0.1-0.3-0.1c-0.6-0.1-1.2 0.4-1.9 0.2l-0.3-0.1q-0.3-0.2-0.5-0.5-0.1-0.1-0.1-0.2 0-0.1-0.1-0.2-0.1-0.2-0.1-0.4 0-0.2 0-0.4c0-0.7 0.2-1.3 0.1-2q0-0.1 0-0.3h0.1 0.7l0.9 0.1 1 0.1h0.3 0.2q0.7 0 1.3-0.1l0.7-0.3 0.3-0.1q3.2-0.7 6.4-0.9h0.4q0.2 0 0.3 0l1.8-0.2q2.8-0.3 5.6-0.4 3.6-0.3 7.4-0.3 4.9-0.2 9.8 0.5 1.5 0.2 2.9 0.5l1 0.2q2.2 0.5 4.3 0.9l1.8 0.4 1.2 0.3 2.9 0.6 0.6 0.1h0.1q0.3 0.1 0.6 0.1 0.2 0 0.5 0 0.2 0 0.4 0l0.4-0.1 0.3-0.1q1-0.4 2.1-0.5 0.1 0 0.1 0h0.1 0.1q0.1 0 0.2 0.1 0.1 0.1 0.2 0.2l0.2 0.2 0.1 0.1q0.2 0.2 0.4 0.6 0 0.1 0.3 0.5c0.1 0.2 0.2 0.3 0.3 0.5l0.2 0.4q0.1 0.3 0.3 0.6c0.1 0.3 0.2 0.5 0.2 0.7 0 0.1 0 0.4-0.1 0.4z"/>
	<path id="Layer" class="s8" d="m182.7 236.5q-1.7 0.4-3.2 1c-2.3 0.6-4.7 0.8-7.1 0.6l-13-0.1q-2.4-0.1-4.7 0.1c-1.3 0.1-2.5 0.4-3.7 0.5q-1.5 0.1-2.9 0l-7.9-0.3q-1.5 0-3.1-0.3c-0.7-0.2-1.3-0.5-2-0.7-2.4-0.7-5-0.3-7.3-1.5q-0.5-0.3-1.1-0.5c-0.7 0-1.3 0.4-2 0.2q-0.5-0.1-0.8-0.5-0.2-0.4-0.3-0.9c0.4 0.3 0.8 0.5 1.2 0.4 1.9 0 0 0.4 4.6 0.8 4.5 0.3 13.6 2.5 17.4 1.8 2.8-0.6 5.6-0.9 8.5-0.8 4.2-0.1 9.6 0.3 12.6 0.4 3 0.1 3.9 1.7 6.4 0.5 1.8-0.7 3.8-1.1 5.7-1 1-0.1 2.1 0.3 2.5-0.6 0.2 0.5 0.4 0.9 0.2 0.9z"/>
	<path id="Layer" class="s13" d="m135.9 230.3h0.4q7.3-0.9 14.7-1 4.9-0.2 9.8 0.5c1.3 0.2 2.7 0.4 3.9 0.7 1.3 0.3 2.9 0.6 4.3 0.9l1.9 0.4c-1.4 1.1-2.8-0.6-4 0.5-1.2 1-2.3 0.1-4-0.4-1.6-0.5-1.4-0.5-2.2 0-0.9 0.4-5.6-0.4-7.1-0.5-1.5-0.2-3.5 0.1-6.4 0-2-0.2-4 0-6 0.5-2.5 0.5-4.1-0.8-5.3-1.6z"/>
	<path id="Layer" class="s13" d="m180.8 232.6c-1.2 0.1-5 0.9-5.9 1.5-0.8 0.7-2 0.7-4.2 0.5-2.3-0.3-3.9-0.9-6-0.5-2.6 0.4-5.2 0.3-7.8-0.2-2.2-0.4-6.3 0.2-9.2 0.7-2.8 0.6-5.1 0.2-7.6 0-2.6-0.1-4.9-0.9-5.7-1.8-0.9-0.8-4.4 0-5.7 0-1 0-3-0.9-4.9-1.4h0.7l0.9 0.1 1 0.1h0.3 0.2q0.6 0 1.2-0.1 0.4 0.3 0.7 0.6c1.6 1.2 4.5-0.6 5.9-0.5 2.1 0.2 4.1 0.8 6 1.8 1.9 1.1 9.9-0.9 12.8-0.9 2.8 0 7 1 8.4 1 1.3 0 6-0.5 8.2 0 2.1 0.4 2.4-0.3 4.4-0.5l1.2-0.2q0.3 0 0.6 0.1 0.2 0 0.5 0 0.2 0 0.4 0l0.4-0.1 0.4-0.1q0.9-0.5 2-0.6 0.1 0 0.2 0h0.1 0.1q0 0.1 0.1 0.1 0.2 0.2 0.3 0.4z"/>
	<path id="Layer" class="s6" d="m180.9 229.5q0 0.1 0 0.3 0 0 0 0.1 0 0.1 0 0.2 0 0.1 0 0.2-0.1 0.4-0.4 0.7 0 0-0.1 0.1-0.1 0.1-0.2 0.1-0.1 0.1-0.2 0.1h-0.1c-0.7 0-1.3-0.4-1.9-0.3q-0.6 0-1.1 0.4c-2.2 0.9-4.8 0.5-7.2 1-0.5 0.2-1 0.3-1.5 0.5q-0.2 0.1-0.5 0.1-0.5 0.1-1 0.2c-0.7 0-1.4 0-2 0l-7.9-0.2q-0.7 0-1.4-0.1c-0.5 0-1 0-1.5-0.1-1.2-0.1-2.4-0.5-3.7-0.7q-1.8-0.2-3.6-0.3l-1.2-0.1-13-0.6h-1.8q-1.4-0.1-2.7-0.3-0.9-0.2-1.8-0.4-0.4-0.2-0.8-0.3l-0.4-0.2c-0.7-0.2-1.4-0.5-2-0.8q-0.4-0.1-0.8-0.2-0.1 0-0.1-0.2 0 0 0-0.1 0-0.3 0.1-0.5 0-0.1 0-0.1 0.1-0.3 0.2-0.6 0.1-0.2 0.2-0.4l0.3-0.6q0.1-0.2 0.2-0.3 0-0.1 0.1-0.2 0.2-0.4 0.6-0.8 0 0 0.1-0.1l0.1-0.1q0.2-0.1 0.4-0.1 0.7 0 1.4 0.4 0.5 0.2 1 0.4 1 0.2 1.9 0l0.8-0.1h0.2l2.7-0.4 1-0.2 1.9-0.3 0.4-0.1 3.8-0.6q1-0.1 1.9-0.3c0.7 0 1.3-0.1 2-0.2q3.5-0.3 7-0.1 1.5 0.1 2.9 0.2l1.8 0.1q1.9 0.2 3.7 0.4c2.5 0.3 5 0.6 7.4 1l1.9 0.3h0.3l0.4 0.1c1.6 0.2 3.3 0.4 4.9 0.8q0.8 0.2 1.6 0.5l0.5 0.2 0.3 0.1q0.2 0 0.3 0.1 0.6 0.2 1.2 0.2h0.6 0.6c0.7 0 1.5-0.1 1.8 0h0.2q0 1.1 0.2 2.2z"/>
	<path id="Layer" class="s12" d="m180.9 229.5q0 0.1 0 0.3 0 0 0 0.1v0.2q0 0.1 0 0.2-0.1 0.4-0.4 0.7 0 0-0.1 0.1-0.1 0.1-0.2 0.1-0.1 0.1-0.2 0.1-0.1 0-0.1 0c-0.7 0.1-1.3-0.4-1.9-0.3q-0.6 0.1-1.1 0.4c-2.2 1-4.8 0.5-7.2 1.1-0.5 0.1-1 0.3-1.5 0.4l-0.5 0.1q-0.5 0.1-1 0.2-1 0-2 0l-7.9-0.2q-0.7 0-1.4-0.1-0.8 0-1.5-0.1c-1.2-0.1-2.4-0.5-3.7-0.7q-1.8-0.2-3.6-0.3l-1.2-0.1q-6.5-0.3-13-0.5l-1.8-0.1q-1.4-0.1-2.7-0.3-0.9-0.2-1.8-0.4-0.4-0.2-0.8-0.3l-0.4-0.2c-0.7-0.2-1.4-0.5-2-0.8q-0.4-0.1-0.8-0.2-0.1 0-0.1-0.2 0 0 0-0.1 0-0.2 0.1-0.5 0-0.1 0-0.1 0.1-0.3 0.2-0.6 0.1-0.2 0.3-0.4l0.2-0.6q0.1-0.2 0.2-0.3 0-0.1 0.1-0.1 0.2-0.5 0.6-0.9 0 0 0.1-0.1l0.1-0.1q0.2-0.1 0.4-0.1 0.1 0 0.3 0 0.6 0.1 1.1 0.4 0.5 0.2 1 0.4 1 0.2 1.9 0l0.8-0.1h0.2l2.7-0.4 1-0.2 1.9-0.3 0.4-0.1 3.8-0.6 1.9-0.3q1-0.1 2-0.2 3.5-0.3 7-0.1c1 0 1.9 0.1 2.9 0.2l1.8 0.1q1.9 0.2 3.7 0.4 3.8 0.4 7.4 1l1.9 0.3h0.3l0.4 0.1c1.6 0.2 3.3 0.4 4.9 0.8q0.8 0.2 1.6 0.5l0.5 0.2 0.3 0.1 0.2 0.1h0.1q0.6 0.1 1.2 0.1h0.6 0.6c0.8 0 1.6 0 1.9 0h0.1q0 1.2 0.2 2.3z"/>
	<path id="Layer" class="s8" d="m121.9 228.9q1.7 0.5 3.3 1.2c2.3 0.7 4.7 1.1 7.1 1.1q6.5 0.3 13 0.6 2.4 0 4.8 0.4c1.3 0.2 2.5 0.5 3.7 0.6q1.5 0.2 2.9 0.2l7.9 0.2q1.5 0.1 3-0.2c0.7-0.1 1.4-0.4 2.1-0.5 2.3-0.6 5-0.1 7.1-1.1q0.6-0.3 1.2-0.4c0.6 0 1.3 0.4 1.9 0.3q0.5-0.2 0.7-0.5 0.3-0.4 0.3-0.9-0.2 0.2-0.6 0.3-0.3 0.1-0.6 0.1c-1.8-0.1 0 0.3-4.5 0.4-4.5 0.1-13.5 1.8-17.3 0.9q-4.2-1.2-8.6-1.3c-4.2-0.4-9.6-0.2-12.6-0.3-3-0.1-3.8 1.5-6.4 0.2-1.8-0.9-3.8-1.4-5.8-1.4-0.9-0.2-2 0.1-2.4-0.8-0.3 0.5-0.3 0.9-0.2 0.9z"/>
	<path id="Layer" class="s13" d="m168.3 225.3h-0.3q-7.4-1.3-14.9-1.8-4.9-0.5-9.8-0.1c-1.3 0.1-2.6 0.3-3.9 0.5l-4.2 0.7-1.9 0.3c1.5 1.2 2.8-0.4 4.1 0.7 1.2 1.1 2.3 0.2 3.9-0.2 1.6-0.4 1.5-0.3 2.3 0.1 0.8 0.5 5.6 0 7-0.1 1.5-0.1 3.6 0.4 6.4 0.5 2.1-0.1 4.1 0.1 6.1 0.8 2.6 0.6 4.1-0.6 5.2-1.4z"/>
	<path id="Layer" class="s13" d="m180.5 227.2c-1.8 0.3-3.7 1.1-4.7 1.1-1.3-0.1-4.9-1.1-5.7-0.3-0.8 0.8-3 1.4-5.6 1.5-2.6 0-4.7 0.3-7.7-0.5-2.9-0.7-7-1.5-9.2-1.2-2.6 0.3-5.2 0.2-7.8-0.2-2.1-0.6-3.7-0.1-5.9 0.1-2.2 0.1-3.4 0-4.3-0.7-1-0.7-4.8-1.7-6-1.9q0.1 0 0.1 0l0.2-0.2q0.1-0.1 0.3-0.1 0.2 0 0.4 0 0.6 0.1 1.1 0.4 0.5 0.2 1 0.4 1 0.2 1.9 0 0.7 0.2 1.3 0.3c2 0.3 2.4 1.1 4.5 0.7 2.1-0.3 6.9 0.4 8.2 0.5 1.4 0.1 5.5-0.6 8.3-0.4 2.9 0.1 11 2.5 12.8 1.5 1.8-0.9 3.9-1.4 5.9-1.5 1.4 0 4.4 2 5.9 0.9q0.4-0.3 0.7-0.6h0.1q0.6 0.2 1.2 0.2h0.5 0.7c0.7 0 1.5 0 1.8 0z"/>
	<path id="Layer" class="s6" d="m169.7 219.5l-0.6-0.1q-7.4-1.2-14.9-1.8-4.9-0.5-9.8-0.1c-1.3 0.1-2.6 0.3-3.9 0.5l-4.2 0.7c-2 0.3-3.9 0.6-5.9 0.9-0.8 0.2-1.7 0.2-2.6 0-2-0.6-2.7-1.6-3.8 0.4-0.1 0.2-1.5 2.8-1 2.9q1.6 0.5 3.2 1.2c2.3 0.7 4.7 1.1 7.1 1.1l13 0.6q2.4 0.1 4.8 0.4c1.3 0.2 2.5 0.5 3.7 0.7q1.5 0.2 2.9 0.2l7.9 0.2q1.5 0.1 3-0.2c0.7-0.1 1.4-0.4 2.1-0.5 2.3-0.6 5-0.1 7.1-1.1q0.6-0.3 1.2-0.4c0.6 0 1.3 0.5 1.9 0.3 0.7-0.1 1.1-1 1-1.8q-0.2-1.1-0.2-2.2c0-0.1-2.9 0-3.2 0q-1.2-0.1-2.3-0.6-3.1-0.9-6.5-1.3z"/>
	<path id="Layer" class="s12" d="m123 223q1.6 0.4 3.2 1.1c2.3 0.8 4.7 1.1 7.1 1.1l13 0.7q2.4 0 4.8 0.4c1.3 0.2 2.5 0.5 3.7 0.6q1.5 0.2 2.9 0.2l7.9 0.2q1.5 0.1 3.1-0.1c0.6-0.2 1.3-0.4 2-0.6 2.3-0.5 5 0 7.1-1q0.6-0.4 1.2-0.5c0.6 0 1.3 0.5 1.9 0.4q0.5-0.2 0.8-0.6 0.2-0.4 0.2-0.8 0-0.2 0-0.4-0.2-1.2-0.2-2.3h-0.1c-0.5 0-2.8 0.1-3.1 0.1q-0.6 0-1.2-0.3c-0.3 0-0.7-0.2-1.1-0.3q-3.1-1-6.5-1.3l-0.3-0.1h-0.3q-7.4-1.3-14.9-1.9-4.9-0.5-9.8-0.1c-1.3 0.1-2.6 0.3-3.9 0.5l-4.2 0.7-1.9 0.3q-2 0.3-3.9 0.6l-0.8 0.1q-0.9 0.2-1.8-0.1c-1.6-0.4-2.4-1.2-3.2-0.4q-0.4 0.4-0.6 0.8-0.5 1-1 2.1c-0.2 0.4-0.3 0.8-0.1 0.9z"/>
	<path id="Layer" class="s8" d="m123 223q1.6 0.4 3.2 1.1c2.3 0.8 4.7 1.1 7.1 1.1l13 0.7q2.4 0 4.8 0.4c1.3 0.2 2.5 0.5 3.7 0.6q1.5 0.2 2.9 0.2l7.9 0.2q1.5 0.1 3.1-0.1c0.6-0.2 1.3-0.4 2-0.6 2.3-0.5 5 0 7.1-1q0.6-0.4 1.2-0.5c0.6 0 1.3 0.5 1.9 0.4q0.5-0.2 0.8-0.6 0.2-0.4 0.2-0.8-0.2 0.2-0.5 0.3-0.4 0.1-0.7 0.1c-1.8-0.2 0 0.3-4.5 0.4-4.4 0.1-13.5 1.8-17.3 0.8q-4.2-1.2-8.6-1.3c-4.2-0.4-9.6-0.2-12.6-0.3-3-0.1-3.8 1.4-6.4 0.1-1.8-0.8-3.7-1.3-5.7-1.4-1-0.1-2.1 0.2-2.5-0.8-0.2 0.5-0.3 0.9-0.1 1z"/>
	<path id="Layer" class="s13" d="m169.4 219.5l-0.3-0.1q-7.4-1.2-14.9-1.8-4.9-0.5-9.8-0.1c-1.3 0.1-2.6 0.3-3.9 0.5l-4.2 0.7-1.9 0.3c1.4 1.1 2.8-0.5 4 0.7 1.3 1.1 2.3 0.2 4-0.2 1.6-0.4 1.4-0.4 2.3 0.1 0.8 0.5 5.5 0 7-0.1 1.4-0.1 3.6 0.4 6.4 0.5 2-0.1 4.1 0.2 6 0.8 2.6 0.7 4.2-0.6 5.3-1.3z"/>
	<path id="Layer" class="s13" d="m124.5 219.2h0.1c1.2 0.1 5.1 1.1 5.9 1.8 0.9 0.7 2.1 0.8 4.3 0.7 2.2-0.1 3.9-0.6 6-0.1 2.5 0.5 5.2 0.6 7.8 0.3 2.1-0.3 6.3 0.5 9.2 1.3 2.9 0.7 5.1 0.4 7.7 0.4 2.5 0 4.7-0.7 5.6-1.5 0.8-0.8 4.4 0.3 5.6 0.4 1 0 3-0.8 4.8-1.1-0.5 0-2.8 0-3 0q-0.7 0-1.3-0.2-0.3 0.3-0.6 0.6c-1.5 1.1-4.5-0.9-5.9-0.9-2.1 0.1-4.1 0.6-6 1.5-1.8 1-9.9-1.4-12.8-1.6-2.8-0.2-6.9 0.5-8.3 0.4-1.4 0-6.1-0.8-8.2-0.5-2.1 0.4-2.5-0.4-4.5-0.7q-0.5-0.1-1.2-0.3c-2.1-0.5-4.9-1.4-5.2-1.3-0.2 0-1.1 0.7 0 0.8z"/>
	<path id="Layer" class="s6" d="m182.2 221.6q-1.8 0.1-3.4 0.4-2 0.2-4 0l-1.3-0.1-1.9-0.3q-1.7-0.2-3.3-0.4c-3.3-0.4-6.6-0.6-9.8-0.8q-2.4-0.2-4.8 0h-0.2q-0.8 0.1-1.7 0.3c-0.6 0-1.2 0.1-1.9 0.2-0.9 0.1-1.9 0-2.8 0.1h-2c-1.3 0-2.6 0-3.9 0.1q-1 0-2 0.1-1.6 0.1-3.1 0c-0.7-0.2-1.4-0.4-2.2-0.5-2.4-0.4-5 0.3-7.4-0.5q-0.6-0.2-1.2-0.2-0.2-0.1-0.3 0-0.2 0-0.4 0.1l-0.3 0.1-0.4 0.2q-0.3 0.1-0.6 0.1-0.1-0.1-0.3-0.1-0.1 0-0.2-0.1-0.1-0.1-0.2-0.2-0.3-0.2-0.4-0.4-0.1-0.2-0.1-0.3-0.1-0.1-0.1-0.2 0 0 0-0.1-0.1-0.1-0.1-0.3 0-0.1 0-0.2 0-1-0.3-2h0.1 0.2l0.7-0.1h0.3 0.5 0.3c0.3 0 0.5 0 0.7 0h0.4l0.4-0.1q0.5-0.1 1-0.3 0.2-0.1 0.4-0.2l0.6-0.3q0.3-0.1 0.7-0.3 0.8-0.3 1.6-0.5c1.4-0.4 2.9-0.7 4.3-1l0.3-0.1h0.2 0.2q6.7-1.4 13.6-1.8l1.9-0.1q4.8-0.2 9.4 0.6l1.1 0.1 1 0.3q1.1 0.2 2.1 0.5l1 0.3 2.1 0.6q1.2 0.3 2.2 0.6c0.8 0.3 1.3 0.4 1.9 0.7l1.1 0.3 1.5 0.5 1.5 0.5 0.6 0.3h0.2q0.7 0.3 1.4 0.3h0.5c0.5 0 0.9-0.1 1.2-0.1 0.6-0.2 1.1-0.2 1.6 0l0.2 0.1h0.1l0.1 0.2 0.2 0.1c0 0.1 0 0.1 0.1 0.2q0 0.1 0.1 0.2 0.2 0.3 0.3 0.6v0.1 0.2c0 0 0 0.1 0.1 0.2q0 0 0 0.1c0.2 0.4 0.4 1 0.5 1.4q0 0.1 0 0.2 0 0 0 0.1 0 0.1 0 0.2c0.2 0.1 0.2 0.4 0.1 0.4z"/>
	<path id="Layer" class="s12" d="m182.2 221.6q-1.8 0.1-3.4 0.4-2 0.2-4 0l-1.3-0.1-1.9-0.3q-1.7-0.2-3.3-0.4c-3.3-0.4-6.6-0.6-9.8-0.8q-2.4-0.2-4.8 0h-0.2q-0.8 0.1-1.7 0.2c-0.6 0.1-1.2 0.2-1.9 0.3-0.9 0.1-1.9 0-2.8 0.1h-2c-1.3 0-2.6 0-3.9 0.1q-1 0-2 0.1-1.6 0.1-3.1 0c-0.7-0.2-1.4-0.4-2.2-0.5-2.4-0.4-5 0.3-7.4-0.5q-0.6-0.2-1.2-0.2-0.2-0.1-0.3 0-0.2 0-0.4 0.1l-0.3 0.1-0.4 0.2q-0.3 0.1-0.6 0.1-0.1-0.1-0.3-0.1-0.1 0-0.2-0.1-0.1-0.1-0.2-0.2-0.3-0.2-0.4-0.4-0.1-0.2-0.1-0.3-0.1-0.1-0.1-0.2v-0.1q-0.1-0.1-0.1-0.3 0-0.1 0-0.2 0-1-0.2-2h0.1 0.1c0.2 0 0.4-0.1 0.7-0.1h0.3 0.5 0.3c0.3 0 0.6 0 0.8 0h0.4q0.1-0.1 0.3-0.1 0.5-0.1 1-0.3 0.2-0.1 0.5-0.2l0.5-0.3q0.4-0.1 0.7-0.3 0.8-0.3 1.7-0.5c1.3-0.4 2.8-0.7 4.2-1l0.4-0.1h0.1 0.2q6.7-1.4 13.6-1.8l2-0.1q4.7-0.2 9.4 0.5l1 0.2 1 0.2q1.1 0.3 2.1 0.6l1 0.2 2.2 0.7q1.1 0.3 2.2 0.6c0.7 0.3 1.2 0.4 1.9 0.6l1.1 0.4 1.4 0.5 1.5 0.5 0.7 0.2 0.1 0.1q0.7 0.3 1.5 0.3 0.2 0 0.4 0c0.5 0 0.9-0.1 1.2-0.2 0.6-0.1 1.1-0.1 1.6 0l0.2 0.1 0.1 0.1 0.1 0.1 0.2 0.2c0 0.1 0.1 0.1 0.1 0.2q0.1 0.1 0.1 0.2c0.1 0.1 0.2 0.3 0.3 0.5v0.1 0.1 0.1c0 0.1 0 0.2 0.1 0.2q0 0.1 0 0.2c0.2 0.4 0.4 1 0.5 1.4 0 0 0 0.1 0 0.1q0 0.1 0 0.1 0 0.1 0 0.2c0.2 0.2 0.2 0.5 0.1 0.5z"/>
	<path id="Layer" class="s8" d="m182.2 221.6q-1.8 0.1-3.4 0.4-3.7 0.3-7.3-0.4-6.5-0.8-13.1-1.2-2.4-0.1-4.8 0c-1.3 0.1-2.5 0.4-3.7 0.5-1 0.1-1.9 0.1-2.9 0.1q-3.9 0-7.9 0.2-1.5 0.1-3.1-0.1c-0.7-0.1-1.4-0.3-2.1-0.4-2.5-0.4-5.1 0.3-7.5-0.5q-0.6-0.2-1.2-0.3c-0.7 0.1-1.3 0.6-2 0.6q-0.5-0.1-0.8-0.4-0.4-0.4-0.5-0.8c0.4 0.2 0.8 0.3 1.3 0.2 1.8-0.4 0.1 0.3 4.7-0.1 4.5-0.4 14 0.9 17.8 0.1 2.8-0.7 5.7-1 8.6-0.9q6.4 0.1 12.8 1.1c3.1 0.4 3.8 2.1 6.5 1.3 1.9-0.5 4-0.6 5.9-0.2 1.1 0.1 2 0.6 2.6-0.1 0.2 0.5 0.2 0.9 0.1 0.9z"/>
	<path id="Layer" class="s13" d="m134 213.5q0.2 0 0.4 0c5.1-1.1 10.3-1.8 15.6-1.9 3.5-0.2 7 0.1 10.4 0.7 1.4 0.2 2.8 0.6 4.1 1 1.4 0.3 3 0.8 4.4 1.3q1 0.3 2 0.6c-1.6 0.9-2.9-0.9-4.3 0-1.3 0.9-2.4-0.1-4.1-0.7-1.7-0.6-1.5-0.6-2.4-0.2-0.8 0.4-5.8-0.5-7.4-0.7-1.5-0.2-3.7 0.2-6.7 0.2-3 0-2.9-0.1-6.2 0.8-2.7 0.8-4.5-0.4-5.8-1.1z"/>
	<path id="Layer" class="s13" d="m180.9 217.5c-1.2-0.2-5.3-0.1-6.3 0.5-0.9 0.5-2.2 0.4-4.4-0.1-2.3-0.6-4-1.3-6.1-1-2.7 0.1-5.4-0.1-8.1-0.6-2.3-0.5-6.5 0.1-9.5 0.8-2.9 0.6-5.2 0.4-7.8 0.4-2.7 0.1-5-0.5-6-1.2-1-0.7-4.5 0.6-5.8 0.8-1.1 0.2-3.2-0.4-5.2-0.5h0.1c0.2 0 0.4-0.1 0.7-0.1h0.4 0.4 0.3c0.3 0 0.6 0 0.8-0.1h0.4q0.2 0 0.3 0 0.5-0.1 1-0.3 0.4 0.3 0.8 0.5c1.8 0.9 4.5-1.3 5.9-1.3 2.2-0.1 4.4 0.3 6.4 1.1 2 0.9 10.2-1.3 13.2-1.3 3.1 0.1 7.3 1.1 8.7 1.2 1.4 0.1 6.4 0 8.5 0.7 2.2 0.7 2.6 0 4.7 0.1 0.4 0 0.9 0 1.3 0q0.7 0.2 1.5 0.3h0.5c0.4 0 0.8-0.1 1.2-0.2 0.5-0.1 1.1-0.1 1.6 0l0.1 0.1 0.1 0.1 0.2 0.1z"/>
	<path id="Layer" class="s6" d="m179.6 211.8q-0.2 0.8-0.2 1.7 0 0.1 0 0.3v0.3q0.1 0.1 0 0.2 0 0.1 0 0.2 0 0.2-0.1 0.4-0.1 0.2-0.3 0.3 0 0.1-0.1 0.1-0.1 0.1-0.2 0.2l-0.1 0.1c0 0-0.1 0-0.1 0q-0.2 0-0.3 0-0.2 0-0.5-0.1-0.2-0.1-0.4-0.2l-0.3-0.1q-0.3-0.2-0.7-0.3-0.2 0-0.5 0l-0.2 0.1-0.5 0.2c-2.4 0.6-4.9-0.2-7.4 0.2-0.7 0.1-1.4 0.3-2.1 0.3q-1.6 0.2-3.2 0-3.9-0.4-7.8-0.5-1.5 0-2.9-0.2c-1.3-0.1-2.5-0.4-3.8-0.6q-1.1-0.1-2.2-0.2h-0.5-2.1q-1.6 0.1-3.3 0.1-3.3 0.1-6.5 0.4-1.7 0.1-3.3 0.3-2.9 0.4-5.9 0.3h-0.4q-0.6-0.1-1.2-0.2-0.3 0-0.7-0.1h-0.2l-0.7-0.2-0.4-0.1h-0.5q-0.2 0-0.4-0.1h-0.5q0 0 0 0 0 0-0.1 0 0 0 0 0 0-0.2 0-0.4 0-0.2 0.1-0.5l0.1-0.2c0.1-0.5 0.2-1.1 0.3-1.5l0.1-0.2q0 0 0 0v-0.1q0-0.1 0-0.1 0 0 0-0.1c0-0.1 0.1-0.2 0.1-0.3l0.1-0.2q0.1-0.1 0.1-0.2l0.1-0.2q0.1-0.1 0.1-0.2l0.2-0.1h0.1l0.1-0.1c0.7-0.3 1.5 0.1 2.8 0.2q0.5 0.1 1 0 0.5 0 1-0.2l0.2-0.1 0.5-0.1q0.8-0.3 1.5-0.5l1.3-0.4q0.6-0.2 1.2-0.4l1-0.3 1-0.2 0.9-0.3q1.5-0.4 3-0.8l0.4-0.1 1.2-0.3q0.9-0.2 1.8-0.4l1.1-0.1 0.8-0.2q0.6 0 1.2-0.1l1-0.1h0.2c0.4 0 0.9-0.1 1.4-0.1 0.4 0 1.1 0 1.7 0 0.5 0 1.3 0 2 0q0.6 0 1.1 0.1h1q2.9 0.2 5.9 0.6 1.9 0.3 3.9 0.6 2.9 0.6 5.8 1.3h0.3l0.4 0.1q3.5 0.7 6.7 2.1l0.5 0.3 0.3 0.1q0.3 0.1 0.6 0.3 0.1 0 0.3 0.1l0.4 0.1h0.2 0.2 0.3 0.1 0.5 0.3l1.4 0.2 0.3 0.1z"/>
	<path id="Layer" class="s12" d="m179.6 211.8q-0.2 0.8-0.2 1.7 0 0.1 0 0.3 0 0.1 0 0.3 0 0.1 0 0.2 0 0.1 0 0.2-0.1 0.2-0.2 0.4-0.1 0.2-0.2 0.3-0.1 0.1-0.1 0.1-0.1 0.1-0.2 0.2l-0.2 0.1c0 0-0.1 0-0.1 0q-0.1 0-0.2 0-0.3 0-0.5-0.1-0.2-0.1-0.4-0.2l-0.4-0.1q-0.3-0.2-0.7-0.3-0.2 0-0.4 0l-0.3 0.1-0.5 0.1c-2.3 0.7-4.9-0.1-7.4 0.2-0.7 0.1-1.4 0.3-2.1 0.4q-1.6 0.2-3.1 0-3.9-0.4-7.9-0.5-1.4 0-2.9-0.2c-1.2-0.2-2.4-0.4-3.7-0.6q-1.1-0.2-2.2-0.2h-0.6-0.9-1.1c-1.1 0-2.2 0-3.3 0.1q-3.3 0.1-6.6 0.4-1.6 0.1-3.3 0.3-2.9 0.3-5.9 0.2h-0.3c-0.4 0-0.8 0-1.2-0.1-0.4-0.1-0.5-0.1-0.7-0.2h-0.2l-0.7-0.1-0.4-0.1h-0.5q-0.2-0.1-0.4-0.1h-0.5-0.1q0 0 0 0 0-0.2 0-0.4 0-0.2 0-0.5 0.1-0.1 0.1-0.3c0.1-0.5 0.3-1 0.4-1.4q0-0.1 0-0.2 0 0 0-0.1v-0.1q0 0 0-0.1 0 0.1 0 0c0-0.1 0.1-0.2 0.1-0.3l0.2-0.3q0-0.1 0.1-0.2c0 0 0.1-0.1 0.1-0.2q0 0 0.1-0.1l0.2-0.2h0.2c0.6-0.4 1.5 0 2.8 0.2q0.5 0.1 1 0 0.5-0.1 1-0.2l0.2-0.1 0.5-0.2q0.8-0.2 1.5-0.4l1.3-0.4q0.6-0.2 1.2-0.4l1-0.3 1-0.3 0.9-0.2 3-0.8 0.4-0.1 1.2-0.3q0.9-0.2 1.8-0.4l1.1-0.2 0.8-0.1q0.6-0.1 1.2-0.1l1-0.1h0.2c0.4 0 0.9-0.1 1.4-0.1 0.4 0 1.1 0 1.7 0 0.5 0 1.3 0 2 0q0.6 0 1.1 0.1h1q2.9 0.2 5.9 0.6 1.9 0.3 3.9 0.6c2 0.4 3.9 0.8 5.8 1.2l0.3 0.1 0.4 0.1q3.5 0.7 6.7 2.1l0.5 0.2 0.3 0.2 0.2 0.1 0.4 0.1q0.1 0.1 0.3 0.1 0.3 0.1 0.6 0.2h0.2 0.3 0.1 0.5 0.3c0.5 0.1 1 0.2 1.4 0.2l0.3 0.1h0.1z"/>
	<path id="Layer" class="s8" d="m119.1 214.7q1.8 0.1 3.5 0.5 3.6 0.4 7.2-0.1 6.6-0.7 13.1-0.8 2.5-0.1 4.9 0.2c1.2 0.2 2.5 0.5 3.7 0.6 1 0.1 2 0.1 2.9 0.2q4 0.1 7.9 0.5 1.5 0.2 3.1 0c0.7 0 1.4-0.2 2.1-0.3 2.4-0.4 5.1 0.4 7.4-0.2q0.6-0.3 1.2-0.3c0.7 0.1 1.3 0.7 2 0.7q0.5-0.1 0.8-0.4 0.3-0.4 0.4-0.8c-0.4 0.2-0.8 0.2-1.3 0.1-1.8-0.4 0 0.3-4.6-0.2-4.6-0.5-14 0.4-17.8-0.5-2.8-0.9-5.7-1.3-8.7-1.3q-6.4-0.1-12.8 0.7c-3.1 0.3-3.7 1.9-6.4 1-2-0.6-4-0.7-6-0.4-1.1 0.1-2 0.6-2.7-0.2 0 0.5-0.1 1 0.1 1z"/>
	<path id="Layer" class="s13" d="m166.9 208.3l-0.3-0.1q-7.8-1.9-15.7-2.4c-3.5-0.3-7-0.2-10.5 0.3-1.3 0.2-2.7 0.5-4 0.9-1.4 0.3-3 0.7-4.4 1.1q-0.9 0.2-1.9 0.5c1.7 1 2.9-0.8 4.3 0.2 1.4 1 2.4 0 4.1-0.6 1.7-0.5 1.5-0.4 2.4 0 0.9 0.4 5.8-0.4 7.4-0.5 1.5-0.1 3.7 0.4 6.7 0.5 2.1-0.1 4.3 0.2 6.3 1 2.6 0.8 4.4-0.3 5.6-0.9z"/>
	<path id="Layer" class="s13" d="m179.4 211.8c-1.9 0-4.1 0.5-5.1 0.3-1.3-0.3-4.9-1.7-5.9-1-1 0.7-3.3 1.2-5.9 1-2.6-0.2-4.9 0-7.9-0.8-2.9-0.7-7.2-1.5-9.5-1q-4 0.6-8 0.2c-2.3-0.3-3.9 0.4-6.1 0.8-2.2 0.5-3.5 0.5-4.5 0-1.1-0.5-5.1-0.9-6.4-0.7q0.1-0.1 0.1-0.1l0.2-0.2h0.1l0.1-0.1c0.6-0.3 1.5 0.1 2.8 0.2q0.5 0.1 1 0 0.5 0 0.9-0.2c0.5 0 1 0.1 1.4 0.1 2.1 0 2.6 0.7 4.7 0.1 2.1-0.7 7.1-0.4 8.5-0.4 1.4 0 5.7-1 8.6-0.9 3 0.2 11.4 2.6 13.3 1.8 2-0.8 4.2-1.1 6.4-1 1.4 0.2 4.3 2.5 6 1.6q0.4-0.2 0.8-0.5l0.3 0.2q0.1 0 0.3 0.1 0.3 0.1 0.6 0.1h0.2 0.3 0.1l0.6 0.1h0.3c0.5 0.1 1 0.1 1.3 0.2z"/>
	<path id="Layer" class="s6" d="m181.5 209.8q-1.7 0.1-3.3 0.4-2.7 0.3-5.3-0.1l-1.9-0.3q-1.7-0.2-3.3-0.4-4.9-0.5-9.8-0.8-2.4-0.1-4.8 0h-0.1q-0.9 0.1-1.8 0.3c-0.6 0.1-1.2 0.2-1.8 0.2-1 0.1-2 0.1-2.9 0.1q-4 0-7.9 0.2-1.5 0.2-3.1 0c-0.7-0.1-1.4-0.3-2.1-0.5-2.5-0.4-5.1 0.3-7.5-0.4q-0.4-0.2-0.8-0.3-0.2 0-0.4 0-0.3 0-0.5 0.1-0.7 0.4-1.4 0.5-0.2 0-0.3-0.1-0.2 0-0.3-0.1-0.1-0.1-0.2-0.2-0.2-0.2-0.4-0.4 0-0.2-0.1-0.3 0-0.1 0-0.2 0 0 0-0.1-0.1-0.1-0.1-0.3 0-0.1 0-0.2 0-1-0.2-2h0.1q0.2 0 0.4 0h0.2l1.1-0.1h0.3l0.8-0.1h0.3 0.4q0.4-0.1 0.8-0.3h0.1l0.5-0.2 0.5-0.3q0.4-0.1 0.8-0.3 0.8-0.3 1.6-0.5 0.8-0.3 1.7-0.5 1.3-0.2 2.5-0.5l0.4-0.1h0.2 0.1q6.8-1.4 13.6-1.7l2-0.1q4.7-0.2 9.4 0.5l1.1 0.2 0.9 0.2q1.1 0.2 2.1 0.5l1 0.3 2.2 0.6q1.1 0.3 2.1 0.7c0.7 0.2 1.3 0.4 2 0.6l1.1 0.3 1.5 0.5 1.5 0.6 0.6 0.2h0.1q0.7 0.3 1.5 0.4h0.5c0.6-0.1 1.2-0.2 1.7-0.3q0.4-0.1 0.9 0l0.2 0.1 0.1 0.1 0.1 0.1 0.2 0.1q0 0.1 0.1 0.1l0.1 0.2 0.1 0.2q0.1 0.2 0.2 0.4c0 0.1 0.1 0.1 0.1 0.2 0 0 0.1 0.3 0.2 0.5q0 0.1 0 0.1 0.1 0.3 0.2 0.6 0.1 0.1 0.1 0.3 0.1 0.3 0.2 0.6 0 0 0 0.1 0 0 0 0.1 0 0.1 0 0.2c0 0.1 0 0.3-0.2 0.3z"/>
	<path id="Layer" class="s12" d="m181.5 209.8q-1.7 0.1-3.3 0.4-2.7 0.3-5.3-0.1l-1.9-0.2q-1.7-0.3-3.3-0.5-4.9-0.5-9.8-0.8-2.4-0.1-4.8 0h-0.1q-0.9 0.1-1.8 0.3c-0.6 0.1-1.2 0.2-1.8 0.2-1 0.1-2 0.1-2.9 0.1q-4 0-7.9 0.2-1.5 0.2-3.1 0c-0.7-0.1-1.4-0.3-2.1-0.5-2.5-0.4-5.1 0.3-7.5-0.4q-0.4-0.2-0.8-0.3-0.2 0-0.4 0-0.3 0-0.5 0.1-0.7 0.4-1.4 0.5-0.2 0-0.3-0.1-0.2 0-0.3-0.1-0.1 0-0.2-0.1-0.2-0.2-0.4-0.5 0-0.1-0.1-0.3l-0.1-0.1c0 0 0-0.1 0-0.2q0-0.1 0-0.3-0.1-0.1 0-0.2 0-1-0.3-2h0.1q0.2 0 0.4 0h0.2l1.1-0.1h0.3l0.8-0.1h0.4q0.2 0 0.3-0.1 0.5-0.1 0.9-0.2l0.5-0.3 0.5-0.2q0.4-0.2 0.8-0.3 0.8-0.3 1.6-0.6 0.9-0.2 1.7-0.4 1.3-0.3 2.5-0.5l0.4-0.1h0.2 0.2q6.7-1.4 13.6-1.8l1.9-0.1q4.8-0.2 9.5 0.5l1 0.2 1 0.2q1 0.3 2 0.6l1 0.2 2.2 0.7q1.1 0.3 2.2 0.6c0.7 0.2 1.3 0.4 1.9 0.6l1.1 0.4 1.5 0.5 1.5 0.5 0.6 0.2 0.2 0.1q0.6 0.3 1.4 0.3 0.2 0 0.5 0c0.7-0.1 1.2-0.2 1.7-0.2q0.5-0.1 0.9 0h0.2l0.1 0.1 0.1 0.1 0.2 0.1q0 0.1 0.1 0.2l0.1 0.2 0.1 0.2q0.2 0.2 0.3 0.5c0 0 0.1 0.3 0.2 0.5q0 0.1 0 0.2 0.1 0.2 0.2 0.5 0.1 0.2 0.1 0.3 0.1 0.3 0.2 0.6 0 0.1 0 0.1c0 0 0 0.1 0 0.1q0 0.1 0 0.2c0.1 0.2 0.1 0.4-0.1 0.4z"/>
	<path id="Layer" class="s8" d="m181.6 209.8q-1.8 0.1-3.4 0.4-3.7 0.3-7.3-0.4-6.5-0.8-13.1-1.1-2.4-0.2-4.8 0c-1.3 0.1-2.5 0.3-3.7 0.4-1 0.1-2 0.1-2.9 0.1q-3.9 0-7.9 0.2-1.5 0.2-3.1 0c-0.7-0.1-1.4-0.3-2.1-0.5-2.5-0.4-5.1 0.3-7.5-0.4q-0.6-0.3-1.2-0.3c-0.7 0-1.3 0.6-2 0.6q-0.5-0.1-0.8-0.5-0.4-0.3-0.5-0.8c0.4 0.3 0.9 0.3 1.3 0.2 1.9-0.3 0.1 0.4 4.7 0 4.6-0.4 14 0.9 17.8 0.1 2.8-0.8 5.7-1.1 8.6-1q6.5 0.1 12.8 1.1c3.1 0.4 3.8 2.1 6.5 1.3 1.9-0.5 4-0.6 5.9-0.2 1.1 0.1 2.1 0.7 2.6-0.1 0.2 0.5 0.2 0.9 0.1 0.9z"/>
	<path id="Layer" class="s13" d="m133.6 201.7h0.3c5.1-1.1 10.3-1.8 15.6-1.9 3.5-0.2 7 0.1 10.4 0.7 1.4 0.3 2.8 0.6 4.1 1 1.4 0.3 3 0.8 4.4 1.3l1.9 0.6c-1.6 0.9-2.9-0.9-4.2 0-1.4 0.9-2.4-0.1-4.1-0.7-1.8-0.6-1.6-0.6-2.4-0.2-0.9 0.4-5.9-0.5-7.4-0.7-1.6-0.1-3.7 0.2-6.7 0.2-3 0-3-0.1-6.3 0.8-2.6 0.8-4.4-0.4-5.6-1.1z"/>
	<path id="Layer" class="s13" d="m180.4 205.7c-1.3-0.2-5.3 0-6.3 0.5-1 0.5-2.3 0.4-4.5-0.1-2.2-0.5-3.9-1.3-6.1-1q-4.1 0.2-8-0.6c-2.3-0.5-6.6 0.1-9.5 0.8-3 0.6-5.2 0.4-7.9 0.4-2.6 0.1-5-0.5-6-1.2-1-0.7-4.5 0.6-5.8 0.8-1 0.2-3.2-0.4-5.2-0.5q0.2 0 0.4 0h0.2l1.1-0.1h0.3l0.8-0.1h0.4q0.2 0 0.3-0.1 0.5-0.1 0.9-0.2 0.4 0.2 0.9 0.5c1.7 1 4.4-1.3 5.9-1.4 2.2 0 4.4 0.4 6.4 1.2 2 0.9 10.2-1.4 13.2-1.3 3 0.1 7.3 1.1 8.7 1.2 1.4 0 6.4 0 8.5 0.7 2.1 0.7 2.6 0 4.7 0 0.4 0 0.8 0 1.3 0q0.7 0.3 1.4 0.3h0.5c0.7 0 1.3-0.1 1.7-0.2q0.5-0.1 1 0l0.1 0.1h0.2l0.1 0.1 0.1 0.2q0.1 0 0.2 0z"/>
	<path id="Layer" class="s6" d="m176.4 206.1q0 1.7-0.3 3.4c-0.2 0.7-0.7 0.8 0.1 1.8q0 0 0.1 0l0.1 0.2c0.6 1-0.4 2.3-0.4 2.9 0 0.7-0.3 0.6-1.2 1.5-0.9 0.9 0.1 0.7 1 1.4l0.2 0.2c0.5 0.4 0.7 0.5 0.9 1.2q0.1 0.2 0.2 0.5c0.2 1-0.4 1.9-0.5 2.5q0 0 0 0.1 0.1 0.4 0.2 0.7c0.1 0.7 0.1 1.6 0.2 2.3 0 1-0.5 0.8-1.8 1.9-0.5 0.4-0.5 0.7-0.5 0.8 0.1 0.2 0.7 0.4 0.3 0.7q-0.1 0.2-0.2 0.5c-0.1 0.7 0.3 2-0.2 1.9-0.5-0.1-0.6-1.2-0.6-2q0-0.4 0-0.6c0-0.1 0-0.3-0.1-0.5q-0.1-0.5 0.1-1 0.1-0.4 0.5-0.7c0.8-0.5 0.1-2.4-0.5-3.2q-0.1-0.2-0.3-0.3-0.5-0.2-0.7-0.7c-0.6-0.9-1-1.9-1.1-3q0-0.2 0-0.3 0-0.4 0-0.9c0-0.5 0.1-0.8 0.2-1.8 0.1-1.6 0.7 0 0.5-1.2q-0.2-1.5-0.2-3.1 0-0.3 0-0.5 0.1-0.7-0.2-1.3c-0.4-0.6 0.3-1.5-0.1-2.7-0.2-0.5-0.5-0.9-1-1.2q-0.9-0.5-1.9-0.6l-0.5-0.1c-2.1-0.6-6.8-3-8.1-2.6-1.3 0.4 0.3 1.4 1.3 3.3q0.1 0.2 0.1 0.4 0.4 0.6 0.4 1.3 0 0.7-0.4 1.3c0 0-1.1 0.4-0.9 0.9 0 0.2-0.2 0.5-0.5 0.9q-0.3 0.4-0.6 0.8-0.3 0.4-0.5 0.9c-0.3 1.2 0.3 2.9-1.1 2.8-1.3 0 0.1-0.7-0.1-2.3-0.3-1.7-1.7-0.2-1.6-1.8q0-0.3 0-0.5c0.1-1.1 0.1-1.3-0.4-1.7-0.5-0.4 1.1-1.6 1.1-1.6q-0.3-0.7-0.6-1.3-0.3-0.4-0.7-0.8-0.2-0.3-0.5-0.4-0.8 0-1.5-0.3-0.7-0.4-1.2-1c-0.8-1.2-1.9 0-3 0-1.1 0-0.4 0.2-1.2 2.1l-0.2 0.4c-1 2.2-1.7 1.8-2.1 2.9q0 0.1 0 0.2 0 0.1 0 0.2c0.3 0.5 1.9 0.2 2.2 0.1-0.1 0-0.4 0.1-1.1 0.4q-0.7 0.3-1.2 0.8-0.6 0.7-0.9 1.6c-0.4 1 1 2 1 2q0.1 1 0.1 1.9v0.1c0 1-1 1-1.2 1.9q-0.1 0.2-0.1 0.5c0 1.3 1.5 1.4 1.5 1.4 0 0 0.2 0.5 0.4 1.3q0 0.1 0 0.2 0 0.1 0 0.1c-0.3 0.6-1.9 0.7-2.7 0.6-0.6 0-0.3 0.3 0.1 0.9q0.5 0.7 0.8 1.5c0.1 0.5 0.4 0.8 0.8 1.1 0.4 0.3 0.9 0.4 1.3 0.4-0.3 0-0.8 0.2-1.1 1.4q0 0 0 0.1c-0.3 1.5-0.6 0.7-1.9 1-0.6 0.1-0.7 0.3-0.6 0.6 0.1 0.2 0.6 0.9 0.6 1.3 0 0.8 1.2 1.3 1.2 1.3q-0.4 0-0.6 0.1-0.3 0.2-0.5 0.4-0.2 0.3-0.2 0.6-0.1 0.3 0 0.6c0 0.1 0 0.3 0.1 0.4q0 0.6 0 1.3c-0.1 0.8-0.5 1.2-0.8 0.5q-0.1-0.3-0.2-0.6c0-0.4-0.1-0.8-0.1-1.3-0.2-0.8-0.3-1.6-0.8-1.8-0.9-0.2-0.1-0.8-0.1-2.4q-0.1-0.4 0.1-0.7 0.6-0.9 1.4-1.6 0.1-0.1 0.2-0.3 0-0.2 0-0.4 0-0.2-0.1-0.4-0.1-0.2-0.2-0.3c-1-1.1-1.6-2.4-1.8-3.8 0-0.2 0-0.4-0.1-0.6-0.1-1.3-0.5-1.1-0.8-1.5q-0.2-0.4-0.3-0.9 0-0.5 0.1-0.9 0.2-0.6 0.6-1 0.4-0.5 0.7-1.1c0.3-0.8 0.3-1.5 0.1-1.5-0.9-0.8-1.4-1.9-1.6-3.1q0-0.1 0-0.2c0.1-1 1.1-1.3 1.1-1.7q0-0.1 0-0.1 0-0.1-0.1-0.2-1.1-1-1.9-2.2-0.2-0.4-0.4-0.8c0-0.2 0.2-0.7 0.6-1.2 0.9-1.2 2.4-2.8 1.1-3.2-1.9-0.5-4.7 1.5-5.7 0.8-0.6-0.4-0.2-0.9 0.2-1.2q0.3-0.2 0.7-0.4c2.7-1.1 10.1-1.8 18.2-1.8 3.9 0 7.8 0.7 11.5 2.1 1.2 0.5 2.1 0.9 2.7 1.1q2.8 0.6 5.5 1.7 0.9 0.4 1.7 1h0.1c1.8 1.5 0.4 1.2 0.4 1.2z"/>
	<path id="Layer" class="s13" d="m165.8 201.1h-0.3q-1.4 0.1-2.8-0.3-0.8-0.3-1.6-0.5c-0.6-0.1-1.2 0-1.8-0.2q-1-0.3-2-0.4c-0.9 0-1.7 0.5-2.6 0.5q-1.1 0-2.3-0.3c-1.2-0.1-2.4 0.5-3.6 0.6-1.8 0.2-3.5-0.6-5.3-0.6q-1.2 0-2.4 0.3c-1 0.2-2 0.4-3 0.7q-1.3 0.4-2.7 0.3 0.3-0.3 0.7-0.4c2.7-1.2 10.2-1.9 18.2-1.9 4 0 7.9 0.7 11.5 2.2z"/>
	<path id="Layer" class="s13" d="m144.7 205.5q2 0 3.9-0.2l-0.1 0.3c-0.3 0-0.6 0.2-0.9 0.2-0.8 0.2-1.6 0.5-2.4 0.7q-1.2 0.2-2.4 0.2-1.6 0.1-3.1 0.1-0.2-0.4-0.4-0.8c0-0.2 0.2-0.7 0.6-1.2l0.2 0.1q2.3 0.6 4.6 0.6z"/>
	<path id="Layer" class="s13" d="m161.8 205.6q0.1 0.2 0.1 0.4c-1.5 0-3-0.1-4.5-0.2l-0.7-0.1q-0.3-0.5-0.7-0.9 2.3 0 4.5 0.5c0.4 0.1 0.8 0.2 1.2 0.2z"/>
	<path id="Layer" class="s13" d="m175.8 204.9q-2.4 0.4-4.8 0.7-0.9-0.5-1.9-0.6l-0.5-0.1q1-0.2 2.1-0.4 1.4-0.4 2.8-0.6 0.3 0 0.6 0 0.8 0.4 1.6 1z"/>
	<path id="Layer" class="s13" d="m148.5 209c-0.1 0-0.4 0.2-1.1 0.5q-0.7 0.2-1.2 0.8-2.8 0.5-5.7 0.6c0.1-0.9 1.2-1.2 1.2-1.6q2.3-0.3 4.6-0.3c0.3 0.4 1.9 0.1 2.2 0z"/>
	<path id="Layer" class="s13" d="m160.4 210.4q-0.3 0.4-0.6 0.8-1.2-0.1-2.3-0.3l-0.9-0.2q0-0.2 0-0.5z"/>
	<path id="Layer" class="s13" d="m176.4 211.5c-0.7 0-1.4 0-2.1-0.1l-2-0.1q0-0.3 0-0.5l1.5 0.1 1.1 0.2 1.3 0.2q0.1 0 0.1 0z"/>
	<path id="Layer" class="s13" d="m146.4 215.8v0.1c0 1-0.9 1-1.2 1.8l-1.8 0.1q-1.3 0.1-2.6 0 0.2-0.5 0.5-1 0.5-0.5 0.7-1.1c1.5 0 3 0 4.4 0.1z"/>
	<path id="Layer" class="s13" d="m176.9 218.7q-2.6 0-5.1-0.4 0-0.4 0-0.9c1 0 2.1 0.1 3.1 0h1.1c0.5 0.6 0.7 0.6 0.9 1.3z"/>
	<path id="Layer" class="s13" d="m147 221.3c-0.3 0.5-1.9 0.7-2.7 0.6-0.6-0.1-0.3 0.2 0.1 0.8q-1.2 0-2.4-0.1-0.1-0.4-0.1-0.8l1.8-0.2c1.1-0.1 2.2-0.2 3.3-0.3z"/>
	<path id="Layer" class="s13" d="m176.8 222.5q-0.6 0.1-1.2 0.1h-1.7q-0.1-0.2-0.3-0.3-0.4-0.2-0.7-0.7 1.3 0.1 2.6 0.1 0.5-0.1 1.1 0 0 0 0 0.1 0.1 0.4 0.2 0.7z"/>
	<path id="Layer" class="s13" d="m146.2 227.2c-0.3 1.5-0.6 0.8-2 1-0.5 0.1-0.6 0.3-0.5 0.6q-0.7-0.1-1.3-0.3 0.6-0.8 1.4-1.5z"/>
	<path id="Layer" class="s13" d="m175 228.2q-0.2 0.2-0.2 0.5-0.4-0.1-0.9-0.2 0-0.3 0-0.5c0-0.1 0-0.3 0-0.5q0.4 0 0.8 0c0.1 0.3 0.6 0.4 0.3 0.7z"/>
	<path id="Layer" class="s13" d="m144.2 233.6q0.1 0.6 0 1.2-0.5 0.1-0.9 0c-0.1-0.4-0.1-0.8-0.2-1.3z"/>
	<path id="Layer" class="s11" d="m200.6 244.5q-0.1 0.3-0.4 0.6 0 0-0.1 0h-5.3q-0.7-0.4-1.3-0.9-0.6-0.5-1.2-1.1 0-0.1 0-0.1-0.5-0.5-0.8-1.1-0.2-0.1-0.3-0.3-0.2-0.3-0.4-0.7-0.1-0.2-0.2-0.5c-1.6-3.2-1.3-6.5 0.8-7.7 1.8-1.1 4.5-0.3 6.6 1.7q0.5 0.5 0.8 0.9 0.5 0.6 0.9 1.1 0 0.1 0 0.2c1.9 2.9 2.2 6.1 0.9 7.9z"/>
	<path id="Layer" class="s7" d="m200.6 244.5q-0.1 0.3-0.4 0.6 0 0-0.1 0h-5.3q-0.7-0.4-1.3-0.9-0.6-0.5-1.2-1.1 0-0.1 0-0.1-0.5-0.5-0.8-1.1-0.2-0.1-0.3-0.3-0.2-0.3-0.4-0.7-0.1-0.2-0.2-0.5c-1.6-3.2-1.3-6.5 0.8-7.7 1.8-1.1 4.5-0.3 6.6 1.7q0.5 0.5 0.8 0.9 0.5 0.6 0.9 1.1 0 0.1 0 0.2c1.9 2.9 2.2 6.1 0.9 7.9z"/>
	<path id="Layer" class="s11" d="m215.1 245.1h-0.2-7.4q-0.3-0.1-0.6-0.4-0.3-0.2-0.6-0.6-0.4-0.4-0.6-0.8c-1-2.2 0.1-4.8 2.6-6.5q0.9-0.6 1.9-1c1.6-0.7 3.3-0.9 5.1-0.6h0.1q1.2 0.2 2.1 0.9 1 0.6 1.5 1.7c1.2 2.5-0.6 5.7-3.9 7.3z"/>
	<path id="Layer" class="s7" d="m215.1 245.1h-0.2-7.4q-0.3-0.1-0.6-0.4-0.3-0.2-0.6-0.6-0.4-0.4-0.6-0.8c-1-2.2 0.1-4.8 2.6-6.5q0.9-0.6 1.9-1c1.6-0.7 3.3-0.9 5.1-0.6h0.1q1.2 0.2 2.1 0.9 1 0.6 1.5 1.7c1.2 2.5-0.6 5.7-3.9 7.3z"/>
	<path id="Layer" class="s6" d="m195.1 242l-2.6 1-0.2 0.1-0.4 0.2-4.7 1.8h-66.4l-1-0.3-0.2-2.8z"/>
	<path id="Layer" class="s9" d="m195.1 242l-2.6 1-0.2 0.1-0.4 0.2-4.7 1.8h-66.4l-1-0.3-0.2-2.8z"/>
	<path id="Layer" class="s3" d="m197.6 242q0 0.2 0 0.4-0.1 0.2-0.2 0.3-0.2 0.2-0.4 0.2-0.1 0.1-0.3 0.1h-77l-0.2-2.1h77q0.5 0.1 0.8 0.4 0.3 0.3 0.3 0.7z"/>
	<g id="Layer" style="opacity: .4">
		<path id="Layer" fill-rule="evenodd" class="s5" d="m152 172.6l-1.7-2.4h-2.2q0 1.2 0 2.4h-1.5c0-2.8-0.1-5.5-0.1-8.3h3.4c2.1 0 3.5 1.1 3.5 3 0 0.5-0.1 1.1-0.4 1.6-0.3 0.4-0.8 0.8-1.3 1l2 2.7zm-2.2-7h-1.8q0 1.7 0 3.3h1.8c1.3 0 2-0.6 2-1.6 0-1-0.6-1.7-2-1.7z"/>
		<path id="Layer" class="s5" d="m161.4 171.3q0 0.7 0 1.3h-6.2c0-2.7-0.1-5.5-0.1-8.2h6q0 0.6 0 1.3h-4.5q0 1 0 2.1h4q0 0.6 0 1.3h-3.9v2.2z"/>
		<path id="Layer" class="s5" d="m162.5 168.5q-0.1-0.9 0.3-1.7 0.3-0.8 0.9-1.4 0.6-0.6 1.4-0.9 0.9-0.3 1.7-0.2 1-0.1 1.8 0.3 0.9 0.4 1.5 1l-1 1q-0.4-0.5-1-0.8-0.6-0.2-1.2-0.2-0.6-0.1-1.2 0.2-0.5 0.2-0.9 0.6-0.5 0.4-0.7 1-0.2 0.5-0.2 1.1 0 0.6 0.3 1.1 0.2 0.6 0.6 1 0.4 0.4 1 0.6 0.5 0.2 1.1 0.2 0.6 0 1.2-0.2 0.6-0.3 1-0.8 0.5 0.5 1 1-0.7 0.7-1.5 1-0.9 0.4-1.8 0.3-0.9 0.1-1.7-0.3-0.8-0.3-1.4-0.9-0.6-0.6-0.9-1.4-0.3-0.7-0.3-1.6z"/>
		<path id="Layer" class="s5" d="m171.6 164.4h1.5q0 4.1 0.1 8.2h-1.5q-0.1-4.1-0.1-8.2z"/>
		<path id="Layer" fill-rule="evenodd" class="s5" d="m182.3 167.3c-0.1 1.8-1.4 3-3.5 3h-1.9q0 1.1 0 2.3h-1.5c0-2.7-0.1-5.5-0.1-8.2h3.4c2.2 0 3.5 1.1 3.5 2.9zm-1.5 0c0-1-0.7-1.6-2-1.6h-1.8v3.2h1.8c1.3 0 2-0.6 2-1.6z"/>
		<path id="Layer" class="s5" d="m190 171.3q0 0.7 0 1.3h-6.2c0-2.7 0-5.5-0.1-8.2h6.1q0 0.6 0 1.3h-4.5q0 1 0 2.1h4q0 0.6 0 1.3h-3.9v2.2z"/>
	</g>
	<g id="Layer" style="opacity: .4">
		<path id="Layer" class="s5" d="m157.3 259.5h-37.3q-0.4 0-0.7-0.3-0.3-0.2-0.4-0.7 0-0.1 0.1-0.3 0-0.2 0.2-0.3 0.1-0.2 0.3-0.3 0.2 0 0.3 0h37.4q0.4 0 0.7 0.3 0.3 0.2 0.3 0.6 0 0.2 0 0.4-0.1 0.2-0.2 0.3-0.1 0.2-0.3 0.3-0.2 0-0.4 0z"/>
		<path id="Layer" class="s5" d="m225.6 259.5h-13.1q-0.4 0-0.7-0.3-0.3-0.2-0.4-0.7 0-0.1 0.1-0.3 0-0.2 0.2-0.3 0.1-0.2 0.3-0.3 0.1 0 0.3 0h13.1q0.5 0 0.8 0.3 0.3 0.2 0.3 0.6 0 0.2 0 0.4-0.1 0.2-0.2 0.3-0.1 0.2-0.3 0.3-0.2 0-0.4 0z"/>
		<path id="Layer" class="s5" d="m149.4 266h-28.8q-0.5 0-0.8-0.3-0.3-0.3-0.3-0.7 0-0.2 0-0.4 0.1-0.2 0.2-0.3 0.1-0.1 0.3-0.2 0.2-0.1 0.4-0.1h28.8q0.4 0 0.7 0.3 0.3 0.3 0.4 0.7 0 0.2-0.1 0.4 0 0.1-0.2 0.3-0.1 0.1-0.3 0.2-0.1 0.1-0.3 0.1z"/>
		<path id="Layer" class="s5" d="m226.2 266h-10.5q-0.4 0-0.8-0.3-0.3-0.3-0.3-0.7 0-0.2 0-0.4 0.1-0.2 0.2-0.3 0.1-0.1 0.3-0.2 0.2-0.1 0.4-0.1h10.5q0.4 0 0.7 0.3 0.3 0.3 0.4 0.7 0 0.2-0.1 0.4 0 0.1-0.1 0.3-0.2 0.1-0.3 0.2-0.2 0.1-0.4 0.1z"/>
		<path id="Layer" class="s5" d="m145.8 272.4h-24.6q-0.4 0-0.8-0.3-0.3-0.3-0.3-0.7 0-0.2 0-0.4 0.1-0.2 0.2-0.3 0.1-0.1 0.3-0.2 0.2-0.1 0.4-0.1h24.6q0.5 0 0.8 0.3 0.3 0.3 0.3 0.7 0 0.2 0 0.4-0.1 0.1-0.2 0.3-0.1 0.1-0.3 0.2-0.2 0.1-0.4 0.1z"/>
		<path id="Layer" class="s5" d="m226.8 272.4h-19.6q-0.4 0-0.7-0.3-0.3-0.3-0.4-0.7 0-0.2 0.1-0.4 0-0.2 0.1-0.3 0.2-0.1 0.4-0.2 0.1-0.1 0.3-0.1h19.6q0.4 0 0.7 0.3 0.3 0.3 0.4 0.7 0 0.2 0 0.4-0.1 0.1-0.2 0.3-0.1 0.1-0.3 0.2-0.2 0.1-0.4 0.1z"/>
		<path id="Layer" class="s5" d="m153.5 278.8h-31.7q-0.4 0-0.8-0.3-0.3-0.3-0.3-0.7 0-0.2 0-0.4 0.1-0.2 0.2-0.3 0.1-0.1 0.3-0.2 0.2-0.1 0.4-0.1h31.6q0.4 0 0.7 0.3 0.3 0.3 0.4 0.7 0 0.2 0 0.4-0.1 0.1-0.2 0.3-0.1 0.1-0.3 0.2-0.2 0.1-0.3 0.1z"/>
		<path id="Layer" class="s5" d="m227.4 278.8h-15.7q-0.4 0-0.7-0.3-0.3-0.3-0.4-0.7 0-0.2 0.1-0.4 0-0.2 0.2-0.3 0.1-0.1 0.3-0.2 0.1-0.1 0.3-0.1h15.7q0.5 0 0.8 0.3 0.3 0.3 0.3 0.7 0.1 0.2 0 0.4-0.1 0.1-0.2 0.3-0.1 0.1-0.3 0.2-0.2 0.1-0.4 0.1z"/>
		<path id="Layer" class="s5" d="m152.8 285.2h-30.3q-0.4 0-0.7-0.3-0.4-0.3-0.4-0.7 0-0.2 0-0.4 0.1-0.2 0.2-0.3 0.1-0.1 0.3-0.2 0.2-0.1 0.4-0.1h30.3q0.4 0 0.8 0.3 0.3 0.3 0.3 0.7 0 0.2 0 0.4-0.1 0.1-0.2 0.3-0.1 0.1-0.3 0.2-0.2 0.1-0.4 0.1z"/>
		<path id="Layer" class="s5" d="m228.1 285.2h-13.1q-0.4 0-0.7-0.3-0.3-0.3-0.4-0.7 0-0.2 0-0.4 0.1-0.2 0.2-0.3 0.2-0.1 0.3-0.2 0.2-0.1 0.4-0.1h13.1q0.4 0 0.7 0.3 0.3 0.3 0.4 0.7 0 0.2 0 0.4-0.1 0.2-0.2 0.3-0.1 0.1-0.3 0.2-0.2 0.1-0.4 0.1z"/>
		<path id="Layer" class="s5" d="m151.2 291.6h-28q-0.4 0-0.7-0.3-0.3-0.3-0.4-0.7 0-0.2 0-0.4 0.1-0.2 0.2-0.3 0.1-0.1 0.3-0.2 0.2-0.1 0.4-0.1h28q0.4 0 0.7 0.3 0.3 0.3 0.4 0.7 0 0.2 0 0.4-0.1 0.1-0.2 0.3-0.1 0.1-0.3 0.2-0.2 0.1-0.4 0.1z"/>
		<path id="Layer" class="s5" d="m228.8 291.6h-12.8q-0.4 0-0.8-0.3-0.3-0.3-0.3-0.7-0.1-0.2 0-0.4 0.1-0.2 0.2-0.3 0.1-0.1 0.3-0.2 0.2-0.1 0.3-0.1h12.9q0.4 0 0.7 0.3 0.3 0.3 0.4 0.7 0 0.2 0 0.4-0.1 0.2-0.2 0.3-0.1 0.1-0.3 0.2-0.2 0.1-0.4 0.1z"/>
		<path id="Layer" class="s5" d="m157.9 298h-34q-0.4 0-0.7-0.3-0.3-0.3-0.4-0.7 0-0.2 0.1-0.4 0-0.1 0.1-0.3 0.2-0.1 0.3-0.2 0.2-0.1 0.4-0.1h34q0.4 0 0.7 0.3 0.3 0.3 0.4 0.7 0 0.2 0 0.4-0.1 0.2-0.2 0.3-0.1 0.1-0.3 0.2-0.2 0.1-0.4 0.1z"/>
		<path id="Layer" class="s5" d="m229.6 298h-18.6q-0.4 0-0.7-0.3-0.3-0.3-0.4-0.7 0-0.2 0-0.4 0.1-0.1 0.2-0.3 0.1-0.1 0.3-0.2 0.2-0.1 0.4-0.1h18.5q0.5 0 0.8 0.3 0.3 0.3 0.3 0.7 0.1 0.2 0 0.4 0 0.2-0.2 0.3-0.1 0.1-0.3 0.2-0.1 0.1-0.3 0.1z"/>
		<path id="Layer" class="s5" d="m155.6 304.4h-30.9q-0.4 0-0.7-0.3-0.3-0.3-0.4-0.7 0-0.2 0-0.4 0.1-0.1 0.2-0.3 0.1-0.1 0.3-0.2 0.2-0.1 0.4-0.1h30.8q0.5 0 0.8 0.3 0.3 0.3 0.4 0.7 0 0.2-0.1 0.4 0 0.2-0.2 0.3-0.1 0.1-0.2 0.2-0.2 0.1-0.4 0.1z"/>
		<path id="Layer" class="s5" d="m230.3 304.4h-17.5q-0.4 0-0.7-0.3-0.3-0.3-0.4-0.7 0-0.2 0-0.4 0.1-0.1 0.2-0.3 0.1-0.1 0.3-0.2 0.2-0.1 0.4-0.1h17.5q0.4 0 0.7 0.3 0.3 0.3 0.4 0.7 0 0.2 0 0.4-0.1 0.2-0.2 0.3-0.1 0.1-0.3 0.2-0.2 0.1-0.4 0.1z"/>
		<path id="Layer" class="s5" d="m232 317.2h-95.8q-0.4 0-0.7-0.3-0.3-0.3-0.4-0.7 0-0.2 0-0.4 0.1-0.2 0.2-0.3 0.1-0.1 0.3-0.2 0.1-0.1 0.3-0.1h95.9q0.4 0 0.7 0.3 0.3 0.3 0.4 0.7 0 0.2-0.1 0.4 0 0.2-0.1 0.3-0.2 0.1-0.3 0.2-0.2 0.1-0.4 0.1z"/>
		<path id="Layer" class="s5" d="m232.9 323.6h-105.7q-0.4 0-0.7-0.3-0.3-0.3-0.4-0.7 0-0.2 0-0.4 0.1-0.1 0.2-0.3 0.1-0.1 0.3-0.2 0.2-0.1 0.4-0.1h105.6q0.4 0 0.7 0.3 0.3 0.3 0.4 0.7 0 0.2 0 0.4-0.1 0.2-0.2 0.3-0.1 0.1-0.3 0.2-0.1 0.1-0.3 0.1z"/>
		<path id="Layer" class="s5" d="m233.8 330h-105.6q-0.5 0-0.8-0.3-0.3-0.3-0.4-0.7 0-0.2 0-0.4 0.1-0.2 0.2-0.3 0.1-0.1 0.3-0.2 0.2-0.1 0.4-0.1h105.6q0.4 0 0.7 0.3 0.3 0.3 0.4 0.7 0.1 0.2 0 0.4 0 0.1-0.2 0.3-0.1 0.1-0.3 0.2-0.1 0.1-0.3 0.1z"/>
		<path id="Layer" class="s5" d="m224.9 336.4h-95.8q-0.4 0-0.7-0.3-0.4-0.3-0.4-0.7-0.1-0.2 0-0.4 0-0.2 0.2-0.3 0.1-0.1 0.2-0.2 0.2-0.1 0.4-0.1h95.8q0.4 0 0.7 0.3 0.4 0.3 0.4 0.7 0.1 0.2 0 0.4 0 0.1-0.2 0.3-0.1 0.1-0.3 0.2-0.1 0.1-0.3 0.1z"/>
		<path id="Layer" class="s5" d="m236.7 349.2h-95.8q-0.4-0.1-0.7-0.3-0.3-0.3-0.4-0.7-0.1-0.2 0-0.4 0-0.2 0.2-0.3 0.1-0.2 0.2-0.2 0.2-0.1 0.4-0.1h95.8q0.4 0 0.7 0.3 0.4 0.3 0.4 0.7 0.1 0.2 0 0.3 0 0.2-0.1 0.4-0.2 0.1-0.3 0.2-0.2 0.1-0.4 0.1z"/>
		<path id="Layer" class="s5" d="m208.3 355.5h-76.2q-0.4 0-0.7-0.2-0.3-0.3-0.4-0.7-0.1-0.2 0-0.4 0-0.2 0.1-0.3 0.2-0.2 0.3-0.3 0.2 0 0.4 0h76.2q0.4 0 0.7 0.3 0.3 0.2 0.4 0.7 0 0.1 0 0.3 0 0.2-0.2 0.3-0.1 0.2-0.3 0.3-0.1 0-0.3 0z"/>
	</g>
	<path id="Layer" class="s14" d="m112.1 151.9c1.4 0 2.6-1.3 2.6-3 0-1.6-1.2-3-2.6-3-1.4 0-2.6 1.4-2.6 3 0 1.7 1.2 3 2.6 3z"/>
	<path id="Layer" class="s14" d="m135 151.9c1.4 0 2.5-1.3 2.5-3 0-1.6-1.1-3-2.5-3-1.4 0-2.6 1.4-2.6 3 0 1.7 1.2 3 2.6 3z"/>
	<path id="Layer" class="s14" d="m157.8 151.9c1.5 0 2.6-1.3 2.6-3 0-1.6-1.1-3-2.6-3-1.4 0-2.5 1.4-2.5 3 0 1.7 1.1 3 2.5 3z"/>
	<path id="Layer" class="s14" d="m180.7 151.9c1.4 0 2.6-1.3 2.6-3 0-1.6-1.2-3-2.6-3-1.4 0-2.6 1.4-2.6 3 0 1.7 1.2 3 2.6 3z"/>
	<path id="Layer" class="s14" d="m206.1 148.9q-0.1 0.8-0.6 1.3-0.5 0.6-1.2 0.8-0.7 0.2-1.5 0-0.7-0.2-1.2-0.8-0.5-0.5-0.6-1.3-0.1-0.7 0.2-1.4 0.3-0.7 1-1.1 0.6-0.4 1.4-0.4c0.7 0 1.4 0.4 1.9 0.9 0.4 0.6 0.7 1.3 0.6 2z"/>
	<path id="Layer" class="s14" d="m226.4 151.9c1.5 0 2.6-1.3 2.6-3 0-1.6-1.1-3-2.6-3-1.4 0-2.5 1.4-2.5 3 0 1.7 1.1 3 2.5 3z"/>
	<path id="Layer" class="s5" d="m112.2 149.9q-0.5 0-0.9-0.3-0.3-0.2-0.4-0.4-0.2-0.3-0.3-0.6 0-0.3 0.1-0.6 0-0.3 0.2-0.6c1-1.6 1.5-3.4 1.5-5.3 0-3.9-1.9-7.1-4.2-7.1-0.4 0-0.7-0.2-1-0.5-0.3-0.3-0.4-0.7-0.4-1.1 0-0.4 0.1-0.8 0.4-1.1 0.3-0.2 0.6-0.4 1-0.5 4.2 0 7.4 4.5 7.4 10.3 0 2.5-0.7 5-2.1 7.1q-0.2 0.3-0.6 0.5-0.3 0.2-0.7 0.2z"/>
	<path id="Layer" class="s5" d="m135 149.9q-0.5 0-0.9-0.3c-0.3-0.2-0.6-0.6-0.6-1-0.1-0.4 0-0.9 0.2-1.2 1-1.6 1.6-3.5 1.5-5.3 0-3.9-1.9-7.1-4.1-7.1q-0.4 0-0.7-0.1-0.3-0.1-0.5-0.3-0.3-0.2-0.4-0.5-0.2-0.3-0.2-0.7 0-0.3 0.2-0.6 0.1-0.3 0.4-0.5 0.2-0.3 0.5-0.4 0.3-0.1 0.7-0.1c4.1 0 7.3 4.5 7.3 10.3 0 2.5-0.7 5-2.1 7.1q-0.2 0.3-0.5 0.5-0.4 0.2-0.8 0.2z"/>
	<path id="Layer" class="s5" d="m157.8 149.9q-0.5 0-0.9-0.3c-0.3-0.2-0.6-0.6-0.6-1-0.1-0.4 0-0.9 0.2-1.2 1.1-1.6 1.6-3.4 1.5-5.3 0-3.9-1.9-7.1-4.1-7.1q-0.4 0-0.7-0.1-0.3-0.1-0.5-0.3-0.3-0.2-0.4-0.5-0.1-0.3-0.1-0.7 0-0.3 0.1-0.6 0.1-0.3 0.4-0.5 0.2-0.3 0.5-0.4 0.3-0.1 0.7-0.1c4.1 0 7.3 4.5 7.3 10.3 0.1 2.5-0.7 5-2.1 7.1q-0.2 0.3-0.5 0.5-0.4 0.2-0.8 0.2z"/>
	<path id="Layer" class="s5" d="m180.7 149.9q-0.5 0-0.9-0.3c-0.4-0.2-0.6-0.6-0.7-1-0.1-0.4 0-0.9 0.3-1.2 1-1.6 1.5-3.4 1.5-5.3 0-3.9-1.9-7.1-4.2-7.1q-0.3 0-0.6-0.1-0.3-0.1-0.6-0.3-0.2-0.2-0.4-0.5-0.1-0.3-0.1-0.7 0-0.3 0.1-0.6 0.2-0.3 0.4-0.5 0.3-0.3 0.6-0.4 0.3-0.1 0.6-0.1c4.1 0 7.4 4.5 7.4 10.3 0 2.5-0.7 5-2.1 7.1q-0.2 0.3-0.6 0.5-0.3 0.2-0.7 0.2z"/>
	<path id="Layer" class="s5" d="m203.5 149.9q-0.5 0-0.9-0.3-0.3-0.2-0.5-0.4-0.1-0.3-0.2-0.6-0.1-0.3 0-0.6 0.1-0.3 0.3-0.6c1-1.6 1.5-3.4 1.5-5.3 0-3.9-1.9-7.1-4.2-7.1-0.4 0-0.8-0.2-1.1-0.5-0.2-0.3-0.4-0.7-0.4-1.1 0-0.4 0.2-0.8 0.4-1.1 0.3-0.2 0.7-0.4 1.1-0.5 4.1 0 7.3 4.5 7.3 10.3 0.1 2.5-0.6 5-2 7.1q-0.3 0.3-0.6 0.5-0.3 0.2-0.7 0.2z"/>
	<path id="Layer" class="s5" d="m226.3 149.9q-0.5 0-0.9-0.3c-0.4-0.2-0.6-0.6-0.7-1-0.1-0.4 0-0.9 0.3-1.2 1-1.6 1.5-3.4 1.5-5.3 0-3.9-1.9-7.1-4.2-7.1q-0.3 0-0.6-0.1-0.3-0.1-0.6-0.3-0.2-0.2-0.4-0.5-0.1-0.3-0.1-0.7 0-0.3 0.1-0.6 0.2-0.3 0.4-0.5 0.3-0.3 0.6-0.4 0.3-0.1 0.6-0.1c4.1 0 7.3 4.5 7.3 10.3 0.1 2.5-0.6 5-2 7.1q-0.2 0.3-0.6 0.5-0.3 0.2-0.7 0.2z"/>
	<g id="Layer" style="opacity: .7">
		<path id="Layer" class="s3" d="m112.2 149.9q-0.5 0-0.9-0.3-0.3-0.2-0.4-0.4-0.2-0.3-0.3-0.6 0-0.3 0.1-0.6 0-0.3 0.2-0.6c1-1.6 1.5-3.4 1.5-5.3 0-3.9-1.9-7.1-4.2-7.1-0.4 0-0.7-0.2-1-0.5-0.3-0.3-0.4-0.7-0.4-1.1 0-0.4 0.1-0.8 0.4-1.1 0.3-0.2 0.6-0.4 1-0.5 4.2 0 7.4 4.5 7.4 10.3 0 2.5-0.7 5-2.1 7.1q-0.2 0.3-0.6 0.5-0.3 0.2-0.7 0.2z"/>
		<path id="Layer" class="s3" d="m134.7 150.1q-0.5 0-0.9-0.3c-0.4-0.3-0.6-0.6-0.7-1-0.1-0.5 0-0.9 0.3-1.2 1-1.6 1.5-3.5 1.5-5.4 0-3.8-1.9-7-4.2-7q-0.3 0-0.6-0.1-0.3-0.1-0.6-0.3-0.2-0.3-0.4-0.6-0.1-0.3-0.1-0.6 0-0.3 0.1-0.6 0.2-0.4 0.4-0.6 0.3-0.2 0.6-0.3 0.3-0.1 0.6-0.1c4.1 0 7.4 4.5 7.4 10.2 0 2.6-0.7 5.1-2.1 7.2q-0.2 0.3-0.6 0.5-0.3 0.2-0.7 0.2z"/>
		<path id="Layer" class="s3" d="m157.8 149.9q-0.5 0-0.9-0.3c-0.3-0.2-0.6-0.6-0.6-1-0.1-0.4 0-0.9 0.2-1.2 1.1-1.6 1.6-3.4 1.5-5.3 0-3.9-1.9-7.1-4.1-7.1q-0.4 0-0.7-0.1-0.3-0.1-0.5-0.3-0.3-0.2-0.4-0.5-0.1-0.3-0.1-0.7 0-0.3 0.1-0.6 0.1-0.3 0.4-0.5 0.2-0.3 0.5-0.4 0.3-0.1 0.7-0.1c4.1 0 7.3 4.5 7.3 10.3 0.1 2.5-0.7 5-2.1 7.1q-0.2 0.3-0.5 0.5-0.4 0.2-0.8 0.2z"/>
		<path id="Layer" class="s3" d="m180.7 149.9q-0.5 0-0.9-0.3c-0.4-0.2-0.6-0.6-0.7-1-0.1-0.4 0-0.9 0.3-1.2 1-1.6 1.5-3.4 1.5-5.3 0-3.9-1.9-7.1-4.2-7.1q-0.3 0-0.6-0.1-0.3-0.1-0.6-0.3-0.2-0.2-0.4-0.5-0.1-0.3-0.1-0.7 0-0.3 0.1-0.6 0.2-0.3 0.4-0.5 0.3-0.3 0.6-0.4 0.3-0.1 0.6-0.1c4.1 0 7.4 4.5 7.4 10.3 0 2.5-0.7 5-2.1 7.1q-0.2 0.3-0.6 0.5-0.3 0.2-0.7 0.2z"/>
		<path id="Layer" class="s3" d="m203.5 149.9q-0.5 0-0.9-0.3-0.3-0.2-0.5-0.4-0.1-0.3-0.2-0.6-0.1-0.3 0-0.6 0.1-0.3 0.3-0.6c1-1.6 1.5-3.4 1.5-5.3 0-3.9-1.9-7.1-4.2-7.1-0.4 0-0.8-0.2-1.1-0.5-0.2-0.3-0.4-0.7-0.4-1.1 0-0.4 0.2-0.8 0.4-1.1 0.3-0.2 0.7-0.4 1.1-0.5 4.1 0 7.3 4.5 7.3 10.3 0.1 2.5-0.6 5-2 7.1q-0.3 0.3-0.6 0.5-0.3 0.2-0.7 0.2z"/>
		<path id="Layer" class="s3" d="m226.3 149.9q-0.5 0-0.9-0.3c-0.4-0.2-0.6-0.6-0.7-1-0.1-0.4 0-0.9 0.3-1.2 1-1.6 1.5-3.4 1.5-5.3 0-3.9-1.9-7.1-4.2-7.1q-0.3 0-0.6-0.1-0.3-0.1-0.6-0.3-0.2-0.2-0.4-0.5-0.1-0.3-0.1-0.7 0-0.3 0.1-0.6 0.2-0.3 0.4-0.5 0.3-0.3 0.6-0.4 0.3-0.1 0.6-0.1c4.1 0 7.3 4.5 7.3 10.3 0.1 2.5-0.6 5-2 7.1q-0.2 0.3-0.6 0.5-0.3 0.2-0.7 0.2z"/>
	</g>
	<path id="Layer" class="s6" d="m88.1 338.4q-0.1 0-0.2-0.1-0.1-0.1-0.1-0.3c0 0 0.1-0.7 0.1-1.9 0.1-1.9 0.3-5.7 0.2-10.8v-0.2c0-5.7-0.3-11.3-0.9-16.7q-0.7-7.5-2.1-14.4-1.2-5.9-2.9-11.7-0.3-0.8-0.6-1.7c-0.2-0.5-0.3-0.9-0.4-1.4q-0.7-1.8-1.2-3.4-1.1-3.5-1.9-6.9c-0.4-1.3-0.6-2.7-0.9-3.9q-1.5-7.3-1.7-14.8c0-1.9 0-3.9 0.1-5.7q0.2-3 0.7-5.9c0-0.2 0-0.3 0-0.4v-0.2q0-0.1 0.1-0.2 0.1-0.1 0.3-0.1 0.1 0 0.2 0.1 0.1 0 0.1 0.1 0.1 0.1 0 0.2v0.2 0.4q-0.5 2.9-0.6 5.8c-0.1 1.9-0.2 3.8-0.1 5.7q0.2 7.4 1.6 14.6 0.4 1.9 0.9 3.9c0.5 2.3 1.2 4.6 1.9 6.9q0.5 1.6 1.1 3.4l0.5 1.4q0.3 0.8 0.5 1.7 1.8 5.8 3 11.8c0.9 4.6 1.6 9.4 2.1 14.5 0.5 5.4 0.8 11 0.9 16.7q0 0.1 0 0.2c0.1 5.1-0.1 8.9-0.2 10.8-0.1 1.2-0.1 1.9-0.1 2q0 0.1-0.1 0.2-0.1 0.1-0.3 0.1z"/>
	<path id="Layer" class="s6" d="m76.7 238.1q0.9-0.9 2-1.5 1.2-0.7 2.5-1.1"/>
	<path id="Layer" class="s6" d="m76.7 238.5q-0.1 0-0.1 0-0.2-0.1-0.2-0.2-0.1-0.2 0-0.3 0 0 0-0.1c1.4-1.3 3-2.2 4.7-2.7q0.1 0 0.1 0 0.1 0 0.2 0.1 0 0 0.1 0 0 0.1 0.1 0.2 0 0.1-0.1 0.2-0.1 0.2-0.2 0.2-1.3 0.4-2.4 1.1-1.1 0.6-1.9 1.4-0.2 0.1-0.3 0.1z"/>
	<path id="Layer" class="s6" d="m76 244.8q-0.1 0-0.2 0l-2.5-2q0 0-0.1-0.1 0-0.1 0-0.2 0 0 0-0.1 0-0.1 0-0.2 0.1 0 0.2 0 0-0.1 0.1-0.1 0.1 0 0.2 0.1 0 0 0.1 0l2.4 2q0.1 0.1 0.1 0.1 0 0.1 0 0.2 0 0 0 0.1 0 0.1-0.1 0.1-0.1 0.1-0.2 0.1z"/>
	<path id="Layer" class="s6" d="m80.3 276.1q-0.1 0-0.2-0.1-0.1-0.1-0.1-0.3 0.1-1 0.5-1.9 0.5-1.4 1.3-2.5 0.7-0.9 1.5-1.6 0.1-0.1 0.2-0.1 0.2 0 0.3 0.1 0.1 0.1 0.1 0.3 0 0.1-0.1 0.3-0.8 0.6-1.4 1.4-0.8 1.1-1.2 2.3-0.3 0.9-0.5 1.8 0 0.1 0 0.1 0 0.1-0.1 0.1 0 0.1-0.1 0.1 0 0-0.1 0z"/>
	<path id="Layer" class="s6" d="m82.5 282.6q-0.1 0-0.2-0.1-0.1 0-0.1-0.1-0.6-1.2-1.5-2-0.9-0.8-2.1-1.2-0.1 0-0.2-0.1 0 0-0.1-0.1 0-0.1 0-0.1 0-0.1 0-0.2 0-0.1 0.1-0.1 0-0.1 0.1-0.1 0-0.1 0.1-0.1 0.1 0 0.2 0.1 1.3 0.4 2.4 1.4 1 0.9 1.6 2.2 0.1 0.1 0.1 0.2 0 0-0.1 0.1 0 0.1 0 0.1-0.1 0.1-0.2 0.1 0 0-0.1 0z"/>
	<path id="Layer" class="s6" d="m88 314.7c-0.8-0.9-1.6-4.5-2-6.4q-0.1-0.7-0.2-1.1"/>
	<path id="Layer" class="s6" d="m88 315q-0.1 0-0.2 0 0 0-0.1-0.1c-0.8-0.9-1.5-3.8-2-6.5-0.1-0.5-0.2-0.9-0.3-1.2q0 0 0-0.1 0-0.1 0.1-0.1 0-0.1 0.1-0.1 0-0.1 0.1-0.1 0.1 0 0.1 0 0.1 0 0.2 0.1 0 0 0.1 0 0 0.1 0 0.2 0.1 0.4 0.3 1.1c0.3 1.8 1.1 5.4 1.9 6.2q0.1 0.1 0.1 0.3 0 0.1-0.1 0.2-0.2 0.1-0.3 0.1z"/>
	<path id="Layer" class="s6" d="m78.4 269.2q-0.1 0-0.2-0.1-0.1-0.1-0.1-0.2c-0.1-0.6-1-14.5 6.7-20.1q0.1-0.1 0.2 0 0.2 0 0.3 0.1 0.1 0.1 0 0.3 0 0.1-0.1 0.2c-7.3 5.3-6.4 19.3-6.4 19.4q0 0.2-0.1 0.3-0.1 0.1-0.2 0.1z"/>
	<path id="Layer" class="s6" d="m79.1 299.4c-0.9 3.4 6.5 9.4 6.5 9.4 0 0 9.4-1.6 10.3-5 0.9-3.3-1.7-8.7-6.4-9.9-4.6-1.2-9.5 2.2-10.4 5.5z"/>
	<path id="Layer" class="s6" d="m69.4 259.5c1 3.5 7.9 5.7 7.9 5.7 0 0 4.5-5.7 3.4-9.1-1-3.5-4.9-7.2-8.1-6.3-3.1 1-4.3 6.2-3.2 9.7z"/>
	<path id="Layer" class="s6" d="m87.7 270q-1.2 1.1-2.8 1.8-0.8 0.3-1.7 0.1-0.8-0.2-1.4-0.7c-1-1-0.8-2.7-0.3-4 1-2.5 5-6.9 8.3-5.8 4.7 1.5-0.1 7-2.1 8.6z"/>
	<path id="Layer" class="s6" d="m78.5 276.8c0.6 0.7 1.3 1.7 1 2.6-0.2 0.4-0.5 0.7-0.9 0.9-0.4 0.2-0.8 0.3-1.2 0.2-0.9-0.1-1.7-0.5-2.4-1-1.7-1-5.1-3.3-3.1-5.6 2.1-2.3 5.2 1.3 6.6 2.9z"/>
	<path id="Layer" class="s6" d="m90.8 244.4q0.6 0 1 0.3 0.4 0.3 0.6 0.9c0.2 0.8-0.5 1.5-1.1 2-1.6 1.4-6.3 4.9-7.6 1.7-1.1-3 4.9-5.1 7.1-4.9z"/>
	<path id="Layer" class="s6" d="m81.3 234c1 0 2-0.4 3-0.3 1.1 0 2.2 0.7 2 1.7-0.2 1-1.3 1.3-2.2 1.4q-2.4 0.3-4.8-0.1c-0.4 0-0.7-0.2-1-0.4-0.4-0.6 0.2-1.5 0.9-1.7q1.1-0.2 2.1-0.6z"/>
	<path id="Layer" class="s6" d="m71.8 241.4c-1 0.1-2-0.3-3.1-0.3-1 0.1-2.1 0.9-1.9 1.9 0.2 1 1.3 1.2 2.2 1.3q2.4 0.2 4.8-0.2c0.4-0.1 0.7-0.2 1-0.5 0.4-0.6-0.2-1.4-0.9-1.7q-1.1-0.1-2.1-0.5z"/>
	<path id="Layer" class="s6" d="m76.4 239.5q-0.1 0-0.1-0.1-0.1 0-0.1-0.1-0.1 0-0.1-0.1 0 0 0-0.1c0.1-2-0.1-3.9-0.5-4q-0.1 0-0.2-0.2-0.1-0.1 0-0.2 0-0.2 0.2-0.3 0.1 0 0.2 0c1.2 0.3 1.1 3.4 1 4.7q0 0.2-0.1 0.3-0.1 0.1-0.3 0.1z"/>
	<path id="Layer" class="s6" d="m77.1 234.8c-0.6-1.4-1.5-2.6-2.7-3.6-1.2-0.8-3.2-0.8-4 0.5-1 1.4 0.1 3.4 1.7 4.1 1.6 0.6 3.3 0.3 5 0q0-0.3 0-0.7z"/>
	<path id="Layer" class="s6" d="m89.2 350.6q-0.1 0-0.2-0.1 0 0-0.1-0.1 0 0 0-0.1 0-0.1 0-0.1c2.4-12.9 9.7-18.6 9.8-18.6q0.1-0.1 0.3-0.1 0.1 0 0.2 0.2 0.1 0.1 0.1 0.2 0 0.2-0.1 0.3c-0.1 0-7.2 5.5-9.6 18.1q0 0.1-0.1 0.2-0.1 0.1-0.3 0.1z"/>
	<path id="Layer" class="s6" d="m96.8 334.3q-0.1 0-0.2-0.1-0.1-0.1-0.1-0.2-0.1-0.1 0-0.3 0.1-0.1 0.2-0.1c1.2-0.4 2.5-0.4 3.8-0.2q0.1 0 0.1 0.1 0.1 0 0.1 0.1 0.1 0 0.1 0.1 0 0.1 0 0.1 0 0.1-0.1 0.2 0 0-0.1 0.1 0 0-0.1 0-0.1 0.1-0.1 0c-1.2-0.2-2.3-0.2-3.4 0.1q-0.1 0.1-0.2 0.1z"/>
	<path id="Layer" class="s6" d="m95.3 336.3q-0.2 0-0.3-0.1-0.1-0.1-0.1-0.3c-0.1-3.1 0.8-6.2 2.5-8.9q0 0 0.1-0.1 0 0 0.1 0 0.1 0 0.1 0 0.1 0 0.2 0 0.1 0.1 0.1 0.3 0 0.1 0 0.2c-1.6 2.6-2.5 5.5-2.4 8.5q0 0.1-0.1 0.3-0.1 0.1-0.2 0.1z"/>
	<path id="Layer" class="s6" d="m92.6 340.5q-0.1 0-0.2-0.1-0.1 0-0.1-0.1-0.1-0.1 0-0.2 0-0.1 0.1-0.2c0.6-0.6 1.4-1.1 2.3-1.3 0.9-0.2 1.8-0.2 2.6 0.1q0.1 0 0.2 0 0 0.1 0.1 0.1 0 0.1 0 0.2 0 0.1 0 0.1-0.1 0.2-0.2 0.2-0.1 0.1-0.3 0.1c-0.7-0.3-1.5-0.3-2.2-0.1-0.8 0.2-1.5 0.5-2 1q-0.1 0.1-0.1 0.1-0.1 0.1-0.2 0.1z"/>
	<path id="Layer" class="s6" d="m91.3 343.4q-0.1 0-0.2 0-0.1-0.1-0.1-0.2c-0.8-1.9-1-4-0.8-6.1q0-0.1 0.1-0.1 0-0.1 0.1-0.1 0-0.1 0.1-0.1 0.1 0 0.1 0 0.1 0 0.2 0 0 0.1 0.1 0.1 0 0.1 0 0.2 0.1 0 0.1 0.1c-0.3 1.9-0.1 3.9 0.7 5.7q0 0.1 0 0.3-0.1 0.1-0.2 0.2-0.1 0-0.2 0z"/>
	<path id="Layer" class="s6" d="m90 346.3c0 0.1-0.3 0.4 0.7 0.4 2.6 0.2 7.1 0.1 8.7-2 2.3-3.1-3.2-3-2.7-4.7 0.4-1.7 6.5-0.1 7.5-2.6 1.1-2.4-3.2-2-3-3.3 0.1-1.3 4.7 0.5 6.2-2.1 1.4-2.6-2.5-1.3-1.9-2.3 0.6-1.1 5.5-5.5 3.4-6.6-2-1-6.7 3.6-8.2 4-1.6 0.5-2.1-4.1-4.1-2.6-2 1.5-0.4 8.5-2.8 9.3-1.8 0.6-0.9-1.9-3.1-1.8-2.9 0-3.6 9.8-0.7 14.3z"/>
	<g id="Layer" style="opacity: .3">
		<path id="Layer" class="s3" d="m90 346.3c0 0.1-0.3 0.4 0.7 0.4 2.6 0.2 7.1 0.1 8.7-2 2.3-3.1-3.2-3-2.7-4.7 0.4-1.7 6.5-0.1 7.5-2.6 1.1-2.4-3.2-2-3-3.3 0.1-1.3 4.7 0.5 6.2-2.1 1.4-2.6-2.5-1.3-1.9-2.3 0.6-1.1 5.5-5.5 3.4-6.6-2-1-6.7 3.6-8.2 4-1.6 0.5-2.1-4.1-4.1-2.6-2 1.5-0.4 8.5-2.8 9.3-1.8 0.6-0.9-1.9-3.1-1.8-2.9 0-3.6 9.8-0.7 14.3z"/>
	</g>
	<path id="Layer" class="s6" d="m89 350.9q-0.2 0-0.3-0.1-0.1-0.1-0.1-0.2c-1.8-6.7-5.4-12.7-10.3-17.5q0-0.1-0.1-0.2 0 0 0-0.1 0-0.1 0-0.2 0 0 0.1-0.1 0 0 0.1-0.1 0.1 0 0.1 0 0.1 0 0.2 0 0.1 0.1 0.1 0.1c5 5 8.7 11.1 10.6 17.9q0 0.1 0 0.2 0 0.1-0.1 0.1 0 0.1-0.1 0.1 0 0.1-0.1 0.1z"/>
	<path id="Layer" class="s6" d="m82.7 338.3h-0.1-0.1c-1.3-0.5-2.6-0.7-3.9-0.6q-0.1 0-0.2 0 0-0.1-0.1-0.1-0.1-0.1-0.1-0.1 0-0.1 0-0.2 0 0 0-0.1 0-0.1 0.1-0.1 0-0.1 0.1-0.1 0 0 0.1 0c1.5-0.1 2.9 0.1 4.2 0.6q0.2 0 0.2 0.2 0.1 0.1 0.1 0.2 0 0.1-0.1 0.2-0.1 0.1-0.2 0.1z"/>
	<path id="Layer" class="s6" d="m84.1 340.1q-0.1-0.1-0.1-0.1-0.1 0-0.1-0.1-0.1 0-0.1-0.1 0-0.1 0-0.1c0-2.7-0.7-5.3-2.1-7.5q-0.1-0.1-0.1-0.3 0.1-0.1 0.2-0.2 0 0 0.1-0.1 0.1 0 0.1 0 0.1 0 0.2 0.1 0 0 0.1 0.1c1.5 2.3 2.3 5.1 2.2 7.8q0 0.1 0 0.2-0.1 0.1-0.1 0.1-0.1 0.1-0.1 0.1-0.1 0.1-0.2 0.1z"/>
	<path id="Layer" class="s6" d="m85.6 342.4q-0.1 0-0.2-0.1c-0.5-0.4-1.1-0.7-1.8-0.9-0.6-0.1-1.3 0-1.9 0.2q-0.1 0-0.2 0-0.1 0-0.1-0.1-0.1 0-0.1-0.1-0.1 0-0.1-0.1 0-0.1 0-0.1 0-0.1 0-0.2 0.1 0 0.1-0.1 0.1 0 0.1 0c0.8-0.3 1.6-0.3 2.4-0.2 0.8 0.2 1.5 0.6 2.1 1.1q0.1 0.1 0.1 0.2 0 0.2-0.1 0.3-0.1 0-0.1 0.1-0.1 0-0.2 0z"/>
	<path id="Layer" class="s6" d="m87.6 346.3q-0.1 0-0.2 0 0 0-0.1-0.1 0 0-0.1-0.1 0-0.1 0-0.1 0-0.1 0.1-0.2c0.6-1.6 0.8-3.3 0.6-5q0-0.1 0-0.2 0 0 0-0.1 0.1 0 0.1-0.1 0.1 0 0.2 0 0.1 0 0.2 0.1 0.2 0.1 0.2 0.2c0.2 1.8 0 3.7-0.7 5.4q0 0.1-0.1 0.2-0.1 0-0.2 0z"/>
	<path id="Layer" class="s6" d="m88.8 349.1c-2 0.1-5.4-1.6-6.8-3.3-1.4-1.7 2.4-0.8 2-2.2-0.5-1.4-5.1-0.1-6-2.1-1-2 2.4-1.7 2.2-2.7-0.2-1-3.6-0.7-4.8-2.8-1.2-2.1 1.9-1 1.4-1.9-0.6-0.9-4.5-4.4-3-5.3 1.6-0.8 5.3 2.9 6.5 3.3 1.3 0.4 1.4-2.3 3-1.1 1.6 1.2 0.7 6.9 2.5 7.6 1.4 0.5 0.7-2.1 2.3-1.5 2.9 1 1.5 11.9 0.7 12z"/>
	<g id="Layer" style="opacity: .2">
		<path id="Layer" class="s3" d="m88.8 349.1c-2 0.1-5.4-1.6-6.8-3.3-1.4-1.7 2.4-0.8 2-2.2-0.5-1.4-5.1-0.1-6-2.1-1-2 2.4-1.7 2.2-2.7-0.2-1-3.6-0.7-4.8-2.8-1.2-2.1 1.9-1 1.4-1.9-0.6-0.9-4.5-4.4-3-5.3 1.6-0.8 5.3 2.9 6.5 3.3 1.3 0.4 1.4-2.3 3-1.1 1.6 1.2 0.7 6.9 2.5 7.6 1.4 0.5 0.7-2.1 2.3-1.5 2.9 1 1.5 11.9 0.7 12z"/>
	</g>
	<path id="Layer" class="s11" d="m104.4 352.9c0 9.5 4.2 17.2-17.2 17.2-19 0-17.2-7.7-17.2-17.2 0-9.5 7.7-12.2 17.2-12.2 9.5 0 17.2 2.7 17.2 12.2z"/>
	<path id="Layer" class="s11" d="m106.3 340.5h-38.1v9.4h38.1z"/>
	<path id="Layer" class="s13" d="m106.3 340.5h-38.1v9.4h38.1z"/>
	<path id="Layer" class="s15" d="m310.3 184.9l6.9-4.1 6.6-0.4-2.1 5.3-3.3 1.4c0 0-3.2 4.1-7.3 2.7z"/>
	<path id="Layer" class="s6" d="m273.6 169.5c7.3 2.5 16.6 16.2 18.5 17.4 2 1.1 18.7-2.4 18.7-2.4l2 5.8c0 0-16.6 5.3-20.8 4.8-4.3-0.5-18.4-11.8-18.4-11.8z"/>
	<path id="Layer" class="s16" d="m312.8 190.2c0 0-16.5 5.4-20.8 4.9-1.8-0.2-5.3-2.3-8.8-4.7-3.7-2.6-7.4-5.4-8.9-6.6l-0.7-0.5v-13.8c7.3 2.5 16.6 16.2 18.5 17.4 2 1.1 18.7-2.4 18.7-2.4z"/>
	<path id="Layer" class="s14" d="m283.2 190.4c-3.7-2.6-7.4-5.4-8.9-6.6-0.2-3.1 0.3-6 2-7.9 0 0 7.6 1.6 6.9 14.5z"/>
	<path id="Layer" class="s6" d="m302 370.1c-5.8 0-6.5-0.1-9.8-0.2-2.8-0.1-3.5 0.2-5.7 0.2-1.9 0-1.8-1.9-1.2-3.9 0.3-1.1 0.7-3.3 1.1-5l8.5-0.6c1.2 2.3 4 5.6 7.2 6 3.1 0.5 2.3 3.5-0.1 3.5z"/>
	<path id="Layer" class="s6" d="m259 370.1c-5.8 0-6.5-0.1-9.8-0.2-2.8-0.1-3.5 0.2-5.7 0.2-1.9 0-1.8-1.9-1.2-3.9 0.3-1.1 0.7-3.3 1.1-5l8.5-0.6c1.2 2.3 3.9 5.6 7.2 6 3.3 0.5 2.2 3.5-0.1 3.5z"/>
	<path id="Layer" class="s6" d="m268.3 134.6c2.4-4.3 6.3-6.5 11.7-4.6 5.4 1.9 6.1 7 4.2 12.5-1.9 5.5 6.2 6.2 5.3 11.6-0.4 2.1-1.8 2.8-1.4 6.3 0.3 2 3.5 5.2 1.9 6.8-2 2-9.9-0.5-9-4.1 0.8-3.6-4.3-2.4-5-5.7-0.7-3.5 1.7-5 0.3-7.5-1.5-2.8-4.7-2.3-6.7-6.4-1.8-3.6-2-7.5-1.3-8.9z"/>
	<path id="Layer" class="s17" d="m268.3 134.6c2.4-4.3 6.3-6.5 11.7-4.6 5.4 1.9 6.1 7 4.2 12.5-1.9 5.5 6.2 6.2 5.3 11.6-0.4 2.1-1.8 2.8-1.4 6.3 0.3 2 3.5 5.2 1.9 6.8-2 2-9.9-0.5-9-4.1 0.8-3.6-4.3-2.4-5-5.7-0.7-3.5 1.7-5 0.3-7.5-1.5-2.8-4.7-2.3-6.7-6.4-1.8-3.6-2-7.5-1.3-8.9z"/>
	<path id="Layer" class="s11" d="m273.3 213.4c0 0 7.6 45.3 8.8 68.7 1.3 24.6 9.2 63.9 13.3 79.3-1.1 1-6.6 1.5-9.2 0.2 0 0-22.8-45.4-19.8-73.8-19-53.4-14.4-73.5-14.4-73.5z"/>
	<path id="Layer" class="s14" d="m260.8 270.8c-2.7-9-4.7-16.7-6.1-23.3 1.4-5.2 3.3-9.6 6-12.3 0 0 3.8 14.5 0.1 35.6z"/>
	<path id="Layer" class="s11" d="m265.2 211c0 0-6.2 48.1-9.8 71.2-3.7 24.3-4.2 63.3-3.3 79.2-1.3 0.8-6.3 1.7-9 0.9 0 0-12.6-49.2-4.2-77.7-7.7-56.2 3.4-70 3.4-70z"/>
	<path id="Layer" class="s6" d="m276.5 212.8c1.6-6.9 2.5-11.8 3.4-16.7q1.3-6.3 1.7-12.7c0.6-5.5-2.6-12.4-8-13.9-1.5-0.4-3-0.9-4.5-1.2q-7-1.5-14.2-2-2-0.2-3.9-0.2c-1.1-0.1-2.2 0.1-3.2 0.6-1 0.4-1.9 1.1-2.6 1.9-0.7 0.8-1.2 1.8-1.5 2.8-0.3 1.1-0.4 2.2-0.2 3.3 2.1 14.6 2.5 23.9 1.9 31.2-1.2 2.1-7.4 13.2-5.9 14.9 1.6 1.8 32.6 8.3 35.5 6.1 2.2-1.6 1.8-10.3 1.5-14.1z"/>
	<path id="Layer" class="s16" d="m281.6 183.4q-0.4 6.4-1.7 12.7c-0.9 4.9-1.8 9.8-3.4 16.7 0.3 3.8 0.7 12.6-1.5 14.3-2.9 2.1-33.9-4.4-35.6-6.2-1.4-1.7 4.8-12.8 5.9-14.9q0.4-5 0.2-10.1c0-0.7 0-1.4-0.1-2.1q-0.1-3.3-0.5-7.1c-0.1-1.4-0.3-3-0.5-4.5q-0.4-3.5-0.9-7.4c-0.2-1.1-0.2-2.2 0.1-3.3 0.3-1 0.8-2 1.6-2.8 0.7-0.8 1.6-1.5 2.6-1.9 1-0.5 2.1-0.7 3.2-0.6q1.8 0.1 3.9 0.2 7.1 0.5 14.1 2c1.5 0.3 3.1 0.8 4.6 1.2 5.4 1.5 8.6 8.3 8 13.8z"/>
	<path id="Layer" class="s6" d="m276.5 212.8c0 0 5.1-18.5 5.5-30q0.1-0.1 0.1-0.2 0.1-0.1 0.1-0.2c0-5-9.8-13.7-12.2-14.4q-0.1-0.1-0.2 0-0.1 0-0.2 0-0.1 0.1-0.2 0.1 0 0.1-0.1 0.2 0 0.1 0 0.2 0 0.1 0.1 0.2 0 0.1 0.1 0.2 0.1 0 0.2 0.1c2.2 0.6 10.2 7.9 11.3 12.4l-24.5-3.3c-1-4.2-2.1-10.2-1.2-11.4q0.1-0.1 0.1-0.3 0-0.2-0.2-0.4-0.2-0.1-0.4-0.1-0.2 0.1-0.3 0.2c-1.4 2 0.6 10.5 1.2 12.9 0 4-0.2 18.5-5 28.7l-6.5-1.7-2.1 6.1 5.2 3.4-4.2 53.4c0 0 24.6 3.6 39.9-1.3 0.1-0.1-3.7-42.3-6.5-54.8z"/>
	<path id="Layer" class="s15" d="m268.5 173.4c-8.3-6.9-12.7-6.9-12.8-6.9q0.8-0.7 1.3-1.6c1.5-2.7 1.6-7.2 1.4-11 0-1.2-0.2-2.3-0.3-3.3l2.9 3 5.3 5.7q-0.2 0.7-0.4 1.4c-0.7 3-0.4 6.1 3.9 7.7 0 0 1.8 1.5-1.3 5z"/>
	<path id="Layer" class="s14" d="m266.3 159.3q-0.2 0.7-0.4 1.4c-1 1.3-2.4 2.4-3.9 3.1-1.6 0.7-3.3 1.1-5 1.1 1.5-2.7 1.7-7.2 1.4-11q1.3-0.3 2.6-0.3z"/>
	<path id="Layer" class="s15" d="m270.8 145.9c-0.6 7.6-0.7 10.7-4.5 14.7-5.8 6-14.8 4.1-16.4-3.3-1.5-6.7-0.2-17.9 7.1-21.1 1.6-0.7 3.3-1 5-0.9 1.7 0.1 3.4 0.7 4.8 1.7 1.4 1 2.5 2.4 3.2 3.9 0.7 1.6 1 3.3 0.8 5z"/>
	<path id="Layer" class="s6" d="m258.5 132.3c-5.3 1.5-11.8 8.4-4.6 8.1 0.5 2.2 4.5 1.3 7.2-0.5-0.1 1.7 3.4 4.3 6.8 2.5-1.9 1.6-0.8 7.1 1.9 6.8 2.6-0.3 8.3 0 5.4-8.8-2.9-8.8-11-9.6-16.7-8.1z"/>
	<path id="Layer" class="s17" d="m258.5 132.3c-5.3 1.5-11.8 8.4-4.6 8.1 0.5 2.2 4.5 1.3 7.2-0.5-0.1 1.7 3.4 4.3 6.8 2.5-1.9 1.6-0.8 7.1 1.9 6.8 2.6-0.3 8.3 0 5.4-8.8-2.9-8.8-11-9.6-16.7-8.1z"/>
	<path id="Layer" class="s11" d="m261.5 148.2c0 0.6-0.3 1.1-0.7 1.1-0.4 0.1-0.8-0.5-0.7-1.1 0-0.6 0.3-1.1 0.7-1.1 0.4-0.1 0.8 0.5 0.7 1.1z"/>
	<path id="Layer" class="s11" d="m253.7 148.2c0 0.6-0.4 1.1-0.8 1.1-0.4 0-0.7-0.5-0.7-1.1 0.1-0.6 0.4-1.1 0.8-1.1 0.4-0.1 0.7 0.5 0.7 1.1z"/>
	<path id="Layer" class="s11" d="m253.2 147.1l-1.5-0.4c0 0 0.7 1.2 1.5 0.4z"/>
	<path id="Layer" class="s18" d="m256 149.5q-0.9 2.2-2.3 4.1 0.5 0.3 1 0.4 0.6 0.1 1.2-0.1z"/>
	<path id="Layer" class="s11" d="m259.3 156.2q-0.5 0.1-1 0.1-0.1 0-0.1 0 0 0-0.1-0.1 0 0 0 0 0-0.1 0-0.1 0-0.1 0.1-0.1 0-0.1 0.1-0.1 1.2 0 2.2-0.6 1.1-0.5 1.8-1.5 0.1 0 0.1 0 0.1-0.1 0.2 0 0 0 0 0.1 0 0.1 0 0.1c-0.8 1.1-2 1.9-3.3 2.2z"/>
	<path id="Layer" class="s15" d="m273.1 152c-0.7 1.4-2 2.5-3.6 2.9-1.9 0.5-2.8-1.4-2.2-3.4 0.6-1.8 2.4-4.2 4.3-3.9 1.9 0.4 2.5 2.7 1.5 4.4z"/>
	<path id="Layer" class="s11" d="m262.8 144.2q0 0-0.1 0-0.1-0.1-0.1-0.1-0.5-0.5-1.2-0.7-0.7-0.1-1.3 0-0.1 0-0.2 0 0 0-0.1 0 0 0-0.1-0.1 0 0 0-0.1-0.1-0.2 0-0.3 0.1-0.1 0.2-0.2 0.9-0.2 1.7 0 0.8 0.2 1.5 0.8 0.1 0.1 0.1 0.3 0 0.1-0.1 0.2-0.1 0.1-0.3 0.2z"/>
	<path id="Layer" class="s11" d="m250.6 144.1q-0.1 0.1-0.2 0-0.1-0.1-0.2-0.2 0-0.2 0.1-0.3 0.4-0.8 1.2-1.3 0.7-0.5 1.6-0.6 0.1 0 0.2 0 0 0 0.1 0.1 0 0 0.1 0.1 0 0.1 0 0.1 0 0.2-0.1 0.3-0.1 0.1-0.3 0.1-0.7 0.1-1.3 0.5-0.6 0.5-0.9 1.1-0.1 0.1-0.3 0.1z"/>
	<path id="Layer" class="s11" d="m261 147.1l-1.4-0.4c0 0 0.6 1.1 1.4 0.4z"/>
	<path id="Layer" class="s6" d="m288.8 199.5l0.4 0.4 1.4 1.4 7.1 7.3 1.2 1.2 1.6 1.6-1 2.5c0 0-2-2.1-7.9 2l-9 7.6-7.5-7.7 12.8-14.5-0.4-0.4c-0.4-0.4-0.9-0.6-1.4-0.6-0.4 0-0.9 0.2-1.3 0.6l-4.8 4.7q-0.1 0.1-0.3 0.2-0.2 0.1-0.4 0.1-0.2 0-0.3-0.1-0.2-0.1-0.4-0.2-0.2-0.3-0.2-0.7 0-0.4 0.2-0.7l4.9-4.7c0.7-0.7 1.6-1.1 2.6-1.1 1 0 2 0.4 2.7 1.1z"/>
	<path id="Layer" class="s7" d="m288.8 199.5l0.4 0.4 1.4 1.4 7.1 7.3 1.2 1.2 1.6 1.6-1 2.5c0 0-2-2.1-7.9 2l-9 7.6-7.5-7.7 12.8-14.5-0.4-0.4c-0.4-0.4-0.9-0.6-1.4-0.6-0.4 0-0.9 0.2-1.3 0.6l-4.8 4.7q-0.1 0.1-0.3 0.2-0.2 0.1-0.4 0.1-0.2 0-0.3-0.1-0.2-0.1-0.4-0.2-0.2-0.3-0.2-0.7 0-0.4 0.2-0.7l4.9-4.7c0.7-0.7 1.6-1.1 2.6-1.1 1 0 2 0.4 2.7 1.1z"/>
	<path id="Layer" class="s10" d="m278.7 213.1l-2.4 2.7 6.3 6.5 8.4-7q1.8-1.3 3.9-2.2z"/>
	<path id="Layer" class="s15" d="m276.2 195.8l7.3 3.2 4.3 5-5.6 1.5-3-1.9c0 0-5.2-0.2-6.6-4.3z"/>
	<path id="Layer" class="s14" d="m263.7 201.4c-10.3 0-15.5-2.8-18.2-5.5q0-1.1 0-2.2-0.2-3.2-0.6-7.1c2.4-4.7 6.2-11.6 7.5-10.8 1.9 1.4 3.2 9.3 3.8 13 0.2 1 0.7 1.9 1.5 2.6 0.7 0.6 1.7 1 2.7 1z"/>
	<path id="Layer" class="s6" d="m248.9 166.5c-11.5 1.8-3.4 27.2-1.4 30.1 3.8 5.1 26 5.2 26 5.2l3.1-6c0 0-20.8-4-21.3-5-0.4-0.9-1.6-14.7-1.6-14.7 0 0-1.8-10-4.8-9.6z"/>
	<path id="Layer" class="s16" d="m248.9 166.5c-11.5 1.8-3.4 27.2-1.4 30.1 3.8 5.1 26 5.2 26 5.2l3.1-6c0 0-20.8-4-21.3-5-0.4-0.9-1.6-14.7-1.6-14.7 0 0-1.8-10-4.8-9.6z"/>
	<path id="Layer" class="s11" d="m267.7 242.1h-6.1v128h6.1z"/>
	<path id="Layer" class="s11" d="m314.5 242.1h-6.1v128h6.1z"/>
	<path id="Layer" class="s11" d="m369.1 242.1h-6.2v128h6.2z"/>
	<path id="Layer" class="s11" d="m415.8 242.1h-6.1v128h6.1z"/>
	<path id="Layer" class="s16" d="m267.7 242.1h-6.1v128h6.1z"/>
	<path id="Layer" class="s16" d="m314.5 242.1h-6.1v128h6.1z"/>
	<path id="Layer" class="s16" d="m369.1 242.1h-6.2v128h6.2z"/>
	<path id="Layer" class="s16" d="m415.8 242.1h-6.1v128h6.1z"/>
	<path id="Layer" class="s11" d="m419.1 238.8h-160.8v9.2h160.8z"/>
	<path id="Layer" class="s19" d="m267.7 289.2v80.9h-6.1v-82.6z"/>
	<path id="Layer" class="s13" d="m314.5 273.1v97h-6.1v-98.8z"/>
	<path id="Layer" class="s19" d="m369.1 288.6v81.5h-6.2v-83.2z"/>
	<path id="Layer" class="s13" d="m415.8 302v68.1h-6.1v-69.9z"/>
	<path id="Layer" class="s16" d="m419.1 238.8h-160.8v9.2h160.8z"/>
	<path id="Layer" class="s13" d="m419.1 238.8h-107.7v9.2h107.7z"/>
	<path id="Layer" class="s11" d="m319.9 236.2h-18.7c-0.5 0-1.1-0.2-1.5-0.6-0.5-0.4-0.7-1-0.8-1.5l-1.7-16.1h26.8l-1.7 16.1c-0.1 0.5-0.4 1.1-0.8 1.5-0.4 0.4-1 0.6-1.6 0.6z"/>
	<path id="Layer" class="s11" d="m297.7 236.2h44.9c0.4 0 0.7 0.1 0.9 0.4 0.3 0.2 0.4 0.5 0.4 0.9v1.3h-47.5v-1.3c0-0.4 0.1-0.7 0.4-0.9 0.2-0.3 0.5-0.4 0.9-0.4z"/>
	<path id="Layer" class="s11" d="m352.5 197.7l-16.4-18.7q-0.3-0.4-0.8-0.6-0.4-0.2-0.9-0.2h-7c-0.6 0-1.2 0.2-1.6 0.6l-6.7 5.9c-0.5 0.4-0.8 0.9-0.9 1.5 0 0.6 0.1 1.2 0.5 1.7l14.5 20.4c0.3 0.5 0.8 0.8 1.4 1h7.3q0.5 0.1 0.9-0.1 0.5-0.2 0.8-0.5l8.6-7.4q0.4-0.4 0.6-0.8 0.2-0.5 0.3-1 0-0.5-0.1-0.9-0.2-0.5-0.5-0.9z"/>
	<path id="Layer" class="s10" d="m352.5 197.7l-16.4-18.7q-0.3-0.4-0.8-0.6-0.4-0.2-0.9-0.2h-7c-0.6 0-1.2 0.2-1.6 0.6l-6.7 5.9c-0.5 0.4-0.8 0.9-0.9 1.5 0 0.6 0.1 1.2 0.5 1.7l14.5 20.4c0.3 0.5 0.8 0.8 1.4 1h7.3q0.5 0.1 0.9-0.1 0.5-0.2 0.8-0.5l8.6-7.4q0.4-0.4 0.6-0.8 0.2-0.5 0.3-1 0-0.5-0.1-0.9-0.2-0.5-0.5-0.9z"/>
	<g id="Layer" style="opacity: .2">
		<path id="Layer" class="s3" d="m340 208.2l-14.4-20.4c-0.4-0.5-0.6-1.1-0.5-1.7 0.1-0.6 0.4-1.1 0.8-1.5l6.7-5.9c0.5-0.5 1.2-0.7 1.8-0.6 0.7 0 1.3 0.3 1.7 0.8l16.4 18.7c0.4 0.5 0.6 1.2 0.6 1.8-0.1 0.7-0.4 1.3-0.9 1.7l-8.5 7.5q-0.4 0.3-0.9 0.5-0.5 0.2-1 0.1-0.5 0-1-0.3-0.4-0.3-0.8-0.7z"/>
	</g>
	<path id="Layer" fill-rule="evenodd" class="s11" d="m322.3 190.3l-1.9 1.6q-0.1 0.1-0.1 0.1-0.1 0-0.2 0 0 0-0.1 0-0.1 0-0.1-0.1l-0.1-0.1-8.5 7.4 0.5 0.5-0.1 0.2c-0.1 0.1-2.1 4.2-4.3 4.4h-0.3q-0.4 0-0.8-0.2-0.4-0.2-0.7-0.5-0.4-0.4-0.5-0.9-0.2-0.5-0.1-1c0.6-2.1 4.9-3.7 5.1-3.7l0.2-0.1 0.4 0.5 8.5-7.3-0.1-0.1q-0.1-0.1-0.1-0.2 0 0 0-0.1 0-0.1 0-0.1 0-0.1 0.1-0.1l1.8-1.7 0.4 0.4 0.6 0.7zm-16 13.2c1.2 0 3.6-2.8 4.6-4l-0.1-0.2-4.7 4.1q0 0.1 0 0.1 0.1 0 0.2 0zm4.1-4.6c-1.4 0.8-4.4 2.8-4.6 4q0 0.1 0 0.2v0.1c0.4-0.3 1-0.9 2.3-2.1l2.4-2zm-4.8 3.6c0.6-1.4 3.7-3.4 4.6-3.9l-0.1-0.1c-0.7 0.3-4.1 1.7-4.5 3.3q-0.1 0.4 0 0.7zm5.7-2.7l-0.1-0.1c-0.7 0.8-3 3.7-4.5 4.1q0.3 0.1 0.6 0.1c1.8-0.3 3.6-3.4 4-4.1z"/>
	<path id="Layer" fill-rule="evenodd" class="s11" d="m326.2 190.3l-1.9 1.6q0 0.1-0.1 0.1-0.1 0-0.1 0-0.1 0-0.2 0 0 0-0.1-0.1l-0.1-0.1-8.4 7.4 0.4 0.5v0.2c-0.1 0.1-2.2 4.2-4.4 4.4h-0.3q-0.4 0-0.8-0.2-0.4-0.2-0.7-0.5-0.4-0.4-0.5-0.9-0.1-0.5 0-1c0.5-2.1 4.8-3.7 5-3.7l0.2-0.1 0.4 0.5 8.5-7.3-0.1-0.1q-0.1-0.1-0.1-0.2 0 0 0-0.1 0-0.1 0-0.1 0-0.1 0.1-0.1l1.9-1.7 0.3 0.4 0.6 0.7zm-16 13.2c1.2 0 3.7-2.8 4.6-4l-0.1-0.2c-1.5 1.3-4 3.5-4.7 4.1q0 0.1 0.1 0.1 0.1 0 0.1 0zm4.1-4.6c-1.4 0.8-4.4 2.8-4.6 4q0 0.1 0 0.2l0.1 0.1c0.3-0.3 0.9-0.9 2.3-2.1l2.4-2zm-4.9 3.6c0.6-1.4 3.7-3.4 4.6-3.9v-0.1c-0.8 0.3-4.2 1.7-4.6 3.3q-0.1 0.4 0 0.7zm5.7-2.7l-0.1-0.1c-0.7 0.8-3 3.7-4.5 4.1q0.3 0.1 0.7 0.1c1.7-0.3 3.5-3.4 3.9-4.1z"/>
	<path id="Layer" fill-rule="evenodd" class="s19" d="m326.2 190.3l-1.9 1.6q0 0.1-0.1 0.1-0.1 0-0.1 0-0.1 0-0.2 0 0 0-0.1-0.1l-0.1-0.1-8.4 7.4 0.4 0.5v0.2c-0.1 0.1-2.2 4.2-4.4 4.4h-0.3q-0.4 0-0.8-0.2-0.4-0.2-0.7-0.5-0.4-0.4-0.5-0.9-0.1-0.5 0-1c0.5-2.1 4.8-3.7 5-3.7l0.2-0.1 0.4 0.5 8.5-7.3-0.1-0.1q-0.1-0.1-0.1-0.2 0 0 0-0.1 0-0.1 0-0.1 0-0.1 0.1-0.1l1.9-1.7 0.3 0.4 0.6 0.7zm-16 13.2c1.2 0 3.7-2.8 4.6-4l-0.1-0.2c-1.5 1.3-4 3.5-4.7 4.1q0 0.1 0.1 0.1 0.1 0 0.1 0zm4.1-4.6c-1.4 0.8-4.4 2.8-4.6 4q0 0.1 0 0.2l0.1 0.1c0.3-0.3 0.9-0.9 2.3-2.1l2.4-2zm-4.9 3.6c0.6-1.4 3.7-3.4 4.6-3.9v-0.1c-0.8 0.3-4.2 1.7-4.6 3.3q-0.1 0.4 0 0.7zm5.7-2.7l-0.1-0.1c-0.7 0.8-3 3.7-4.5 4.1q0.3 0.1 0.7 0.1c1.7-0.3 3.5-3.4 3.9-4.1z"/>
	<path id="Layer" class="s11" d="m335.4 202.7h-5.5v28.2c0 0.9-0.3 1.7-0.7 2.4-0.5 0.7-1.1 1.2-1.9 1.6l-2.7 1.3h15.1v-27.9z"/>
	<path id="Layer" class="s10" d="m339.7 208.3v27.9h-15.1l2.7-1.3c0.8-0.4 1.4-0.9 1.9-1.6 0.4-0.7 0.7-1.5 0.7-2.4v-28.2h5.5z"/>
	<path id="Layer" class="s13" d="m335.4 202.7v28.2c0 0.9-0.2 1.7-0.7 2.4-0.4 0.7-1 1.2-1.8 1.6l-2.8 1.3h9.6v-27.9z"/>
	<path id="Layer" class="s14" d="m339.7 208.3v0.4l-4.3-4.4h-5.5v-1.6h5.5z"/>
	<path id="Layer" class="s10" d="m297.7 236.2h44.9c0.4 0 0.7 0.1 0.9 0.4 0.3 0.2 0.4 0.5 0.4 0.9v1.3h-47.5v-1.3c0-0.4 0.1-0.7 0.4-0.9 0.2-0.3 0.5-0.4 0.9-0.4z"/>
	<path id="Layer" class="s7" d="m319.9 236.2h-18.7c-0.5 0-1.1-0.2-1.5-0.6-0.5-0.4-0.7-1-0.8-1.5l-1.7-16.1h26.8l-1.7 16.1c-0.1 0.5-0.4 1.1-0.8 1.5-0.4 0.4-1 0.6-1.6 0.6z"/>
	<path id="Layer" class="s11" d="m376.5 226.4l-1.4 1.1-11.8-14.7q-0.2-0.3-0.2-0.7 0.1-0.3 0.4-0.6 0.3-0.2 0.7-0.2 0.3 0.1 0.6 0.4z"/>
	<path id="Layer" class="s6" d="m366.2 217.5h29.9v18.8q0 0.5-0.2 0.9-0.2 0.5-0.5 0.8-0.4 0.4-0.8 0.6-0.5 0.2-1 0.2h-24.9q-0.5 0-1-0.2-0.5-0.2-0.8-0.6-0.4-0.3-0.6-0.8-0.1-0.4-0.1-0.9z"/>
	<path id="Layer" class="s16" d="m366.2 217.5h29.9v18.8q0 0.5-0.2 0.9-0.2 0.5-0.5 0.8-0.4 0.4-0.8 0.6-0.5 0.2-1 0.2h-24.9q-0.5 0-1-0.2-0.5-0.2-0.8-0.6-0.4-0.3-0.6-0.8-0.1-0.4-0.1-0.9z"/>
	<path id="Layer" class="s6" d="m361.5 217.5h-16.7l-1 2.5c0 0 2.8-0.1 4.1 7.1l0.8 11.7h10.7l1.5-19.3h0.6c0.5 0 0.9 0.2 1.3 0.5 0.3 0.4 0.5 0.9 0.5 1.3v6.8q0 0.4 0.3 0.7 0.3 0.3 0.7 0.3 0.4 0 0.7-0.3 0.3-0.3 0.3-0.7v-6.7c0-1-0.4-2-1.1-2.7-0.7-0.7-1.7-1.2-2.7-1.2z"/>
	<path id="Layer" class="s7" d="m361.5 217.5h-16.7l-1 2.5c0 0 2.8-0.1 4.1 7.1l0.8 11.7h10.7l1.5-19.3h0.6c0.5 0 0.9 0.2 1.3 0.5 0.3 0.4 0.5 0.9 0.5 1.3v6.8q0 0.4 0.3 0.7 0.3 0.3 0.7 0.3 0.4 0 0.7-0.3 0.3-0.3 0.3-0.7v-6.7c0-1-0.4-2-1.1-2.7-0.7-0.7-1.7-1.2-2.7-1.2z"/>
	<path id="Layer" class="s11" d="m375.6 229.4h32.7v6c0 0.9-0.3 1.7-0.9 2.4-0.7 0.6-1.5 1-2.4 1h-26c-0.9 0-1.8-0.4-2.4-1-0.6-0.7-1-1.5-1-2.4z"/>
	<path id="Layer" class="s16" d="m375.6 229.4h32.7v6c0 0.9-0.3 1.7-0.9 2.4-0.7 0.6-1.5 1-2.4 1h-26c-0.9 0-1.8-0.4-2.4-1-0.6-0.7-1-1.5-1-2.4z"/>
</svg>